<svg width="220" height="148" viewBox="0 0 220 148" fill="none" xmlns="http://www.w3.org/2000/svg">
<g clip-path="url(#clip0)">
<g filter="url(#filter0_d)">
<rect x="10" width="200" height="148" fill="white"/>
</g>
<g clip-path="url(#clip1)">
<path d="M50 30H80V52H50V30Z" fill="white"/>
<path fill-rule="evenodd" clip-rule="evenodd" d="M49.5 29.5H80.5V52.5H49.5V29.5ZM50.5 30.5V51.5H79.5V30.5H50.5Z" fill="#E2E9EF"/>
<path d="M110 30H140V52H110V30Z" fill="white"/>
<path fill-rule="evenodd" clip-rule="evenodd" d="M109.5 29.5H140.5V52.5H109.5V29.5ZM110.5 30.5V51.5H139.5V30.5H110.5Z" fill="#E2E9EF"/>
<path d="M50 -9H110V12H50V-9Z" fill="white"/>
<path fill-rule="evenodd" clip-rule="evenodd" d="M49.5 -9.5H110.5V12.5H49.5V-9.5ZM50.5 -8.5V11.5H109.5V-8.5H50.5Z" fill="#E2E9EF"/>
<path d="M110 -9H170V12H110V-9Z" fill="white"/>
<path fill-rule="evenodd" clip-rule="evenodd" d="M109.5 -9.5H170.5V12.5H109.5V-9.5ZM110.5 -8.5V11.5H169.5V-8.5H110.5Z" fill="#E2E9EF"/>
<path d="M50 69H170V149H50V69Z" fill="white"/>
<path fill-rule="evenodd" clip-rule="evenodd" d="M49.5 68.5H170.5V149.5H49.5V68.5ZM50.5 69.5V148.5H169.5V69.5H50.5Z" fill="#E2E9EF"/>
<path d="M80 30H110V52H80V30Z" fill="white"/>
<path fill-rule="evenodd" clip-rule="evenodd" d="M79.5 29.5H110.5V52.5H79.5V29.5ZM80.5 30.5V51.5H109.5V30.5H80.5Z" fill="#E2E9EF"/>
<path d="M140 30H170V52H140V30Z" fill="white"/>
<path fill-rule="evenodd" clip-rule="evenodd" d="M139.5 29.5H170.5V52.5H139.5V29.5ZM140.5 30.5V51.5H169.5V30.5H140.5Z" fill="#E2E9EF"/>
<path d="M50 25H66V28H50V25Z" fill="#CFD9E0"/>
<path d="M50 64H66V67H50V64Z" fill="#CFD9E0"/>
<path d="M161.44 34H148.56C148.25 34 148 34.2502 148 34.56V47.44C148 47.7498 148.25 48 148.56 48H161.44C161.75 48 162 47.7498 162 47.44V34.56C162 34.2502 161.75 34 161.44 34ZM160.88 46.88H157.658V42.5785H159.478L159.751 40.4662H157.658V39.117C157.658 38.5045 157.828 38.088 158.705 38.088H159.823V36.198C159.629 36.1718 158.966 36.114 158.192 36.114C156.579 36.114 155.474 37.0992 155.474 38.907V40.4645H153.651V42.5767H155.476V46.88H149.12V35.12H160.88V46.88Z" fill="#0B2239"/>
<path d="M65 34C61.1558 34 58 36.9205 58 40.5381C58 42.4654 58.9158 44.1778 60.3333 45.3706V48L62.9222 46.7384C63.5802 46.9317 64.2685 47.0761 65 47.0761C68.8442 47.0761 72 44.1556 72 40.5381C72 36.9205 68.8442 34 65 34ZM65 35.1371C68.2428 35.1371 70.8333 37.5624 70.8333 40.5381C70.8333 43.5137 68.2428 45.9391 65 45.9391C64.3029 45.9391 63.6373 45.81 63.0132 45.6014L62.7763 45.5303L61.5 46.1523V44.8731L61.2812 44.6951C59.9868 43.7008 59.1667 42.2107 59.1667 40.5381C59.1667 37.5624 61.7572 35.1371 65 35.1371ZM64.3438 38.7438L60.8257 42.3682L63.9792 40.6626L65.6562 42.4216L69.1382 38.7432L66.057 40.4318L64.3438 38.7438Z" fill="#0B2239"/>
<path fill-rule="evenodd" clip-rule="evenodd" d="M87.5 41C87.5 36.8578 90.8578 33.5 95 33.5C99.1422 33.5 102.5 36.8578 102.5 41C102.5 45.1422 99.1422 48.5 95 48.5C90.8578 48.5 87.5 45.1422 87.5 41ZM95 34.5C91.41 34.5 88.5 37.41 88.5 41C88.5 44.59 91.41 47.5 95 47.5C98.59 47.5 101.5 44.59 101.5 41C101.5 37.41 98.59 34.5 95 34.5Z" fill="#0B2239"/>
<path d="M97.6104 37.5488L90.2229 40.3975C89.7187 40.6 89.7217 40.8813 90.1304 41.0067L92.0271 41.5984L96.4154 38.8296C96.6229 38.7034 96.8125 38.7713 96.6567 38.9096L93.1012 42.1184H93.1004L93.1012 42.1188L92.9704 44.0738C93.1621 44.0738 93.2467 43.9859 93.3542 43.8821L94.2754 42.9863L96.1917 44.4017C96.545 44.5963 96.7987 44.4963 96.8867 44.0746L98.1446 38.1463C98.2733 37.63 97.9475 37.3963 97.6104 37.5488Z" fill="black"/>
<g clip-path="url(#clip2)">
<path fill-rule="evenodd" clip-rule="evenodd" d="M128.159 42.3895C127.985 42.3026 127.133 41.8838 126.974 41.8254C126.815 41.7677 126.7 41.7391 126.584 41.9129C126.468 42.0856 126.136 42.4764 126.035 42.5919C125.934 42.708 125.833 42.722 125.66 42.6357C125.487 42.5482 124.928 42.3656 124.266 41.7753C123.751 41.3156 123.402 40.748 123.301 40.5742C123.2 40.4009 123.29 40.307 123.377 40.2207C123.455 40.1431 123.55 40.0183 123.637 39.9174C123.724 39.8159 123.753 39.7435 123.811 39.6274C123.869 39.5119 123.84 39.411 123.796 39.3241C123.753 39.2372 123.406 38.3838 123.262 38.0367C123.121 37.6989 122.978 37.745 122.872 37.7392C122.771 37.7345 122.655 37.7334 122.54 37.7334C122.424 37.7334 122.236 37.7765 122.078 37.9504C121.918 38.1236 121.471 38.543 121.471 39.3964C121.471 40.2493 122.092 41.0735 122.178 41.1896C122.265 41.3051 123.401 43.0563 125.139 43.807C125.554 43.9855 125.876 44.0923 126.128 44.1716C126.543 44.304 126.921 44.2854 127.22 44.2404C127.552 44.1909 128.245 43.821 128.39 43.4162C128.534 43.0114 128.534 42.6643 128.491 42.5919C128.448 42.5196 128.332 42.4764 128.158 42.3895H128.159ZM124.996 46.7079H124.994C123.961 46.7081 122.947 46.4305 122.058 45.9041L121.848 45.7793L119.665 46.3521L120.248 44.2241L120.111 44.0059C119.534 43.0868 119.228 42.0231 119.23 40.9376C119.231 37.7584 121.817 35.1719 124.998 35.1719C126.538 35.1719 127.986 35.7728 129.075 36.8624C129.611 37.3971 130.037 38.0329 130.327 38.7331C130.616 39.4333 130.764 40.184 130.762 40.9417C130.76 44.1209 128.174 46.7079 124.996 46.7079ZM129.903 36.0347C129.26 35.3877 128.495 34.8748 127.653 34.5255C126.811 34.1762 125.907 33.9976 124.995 34C121.172 34 118.06 37.1121 118.058 40.937C118.058 42.1597 118.377 43.3532 118.984 44.4049L118 48L121.677 47.0352C122.695 47.5894 123.835 47.8798 124.993 47.8799H124.996C128.819 47.8799 131.932 44.7678 131.933 40.9423C131.936 40.0307 131.758 39.1276 131.409 38.2852C131.061 37.4428 130.549 36.6779 129.903 36.0347Z" fill="#0B2239"/>
</g>
<g clip-path="url(#clip3)">
<rect width="110" height="61.875" transform="translate(55 74)" fill="#F0FBFF"/>
<path d="M106.208 135.703H164.828V118.875L131.026 85.0955L106.208 111.64V135.703Z" fill="#E3E3E3"/>
<path fill-rule="evenodd" clip-rule="evenodd" d="M165.828 136.703H105.208V111.246L131.001 83.6573L165.828 118.461V136.703ZM164.828 118.875V135.703H106.208V111.64L131.026 85.0955L164.828 118.875Z" fill="black"/>
<path d="M125.297 91.2736L131.072 84.8282L143.516 97.6329L135.737 91.9768L133.733 95.6512L130.393 90.7742L127.253 93.7138L125.297 91.2736Z" fill="white"/>
<path fill-rule="evenodd" clip-rule="evenodd" d="M131.043 83.3628L152.365 105.304L136.07 93.4551L133.83 97.5621L130.226 92.3002L127.148 95.1818L123.987 91.2374L131.043 83.3628ZM130.393 90.7741L133.733 95.6512L135.738 91.9767L143.516 97.6329L131.073 84.8282L125.297 91.2735L127.253 93.7137L130.393 90.7741Z" fill="black"/>
<path d="M145.32 135.703L106.598 97.0312L68.2344 135.703H87.4844H145.32Z" fill="#F0F0F0"/>
<path fill-rule="evenodd" clip-rule="evenodd" d="M106.595 95.6146L147.737 136.703H65.834L106.595 95.6146ZM106.598 97.0312L68.2346 135.703H145.321L106.598 97.0312Z" fill="black"/>
<path d="M102.104 132.721L69.3516 127.078L55.0859 133.469V135.789H164.914V127.883L144.508 132.721L125.148 122.297L102.104 132.721Z" fill="#A8F2C5"/>
<path fill-rule="evenodd" clip-rule="evenodd" d="M125.167 121.739L144.578 132.19L165.414 127.25V136.289H54.5859V133.145L69.2862 126.559L102.038 132.202L125.167 121.739ZM125.129 122.854L102.17 133.24L69.4169 127.596L55.5859 133.793V135.289H164.414V128.515L144.439 133.251L125.129 122.854Z" fill="black"/>
<path d="M78.2031 88.8675C78.2031 92.5219 75.2406 95.4844 71.5862 95.4844C67.9313 95.4844 64.9688 92.5219 64.9688 88.8675C64.9688 85.2125 67.9313 82.25 71.5862 82.25C75.2406 82.25 78.2031 85.2125 78.2031 88.8675Z" fill="#FFC107"/>
<path fill-rule="evenodd" clip-rule="evenodd" d="M71.5862 94.4844C74.6883 94.4844 77.2031 91.9696 77.2031 88.8675C77.2031 85.7647 74.6883 83.25 71.5862 83.25C68.4835 83.25 65.9688 85.7648 65.9688 88.8675C65.9688 91.9695 68.4835 94.4844 71.5862 94.4844ZM71.5862 95.4844C75.2406 95.4844 78.2031 92.5219 78.2031 88.8675C78.2031 85.2125 75.2406 82.25 71.5862 82.25C67.9313 82.25 64.9688 85.2125 64.9688 88.8675C64.9688 92.5219 67.9313 95.4844 71.5862 95.4844Z" fill="black"/>
<path fill-rule="evenodd" clip-rule="evenodd" d="M164 75H56V134.875H164V75ZM55 74V135.875H165V74H55Z" fill="black"/>
</g>
</g>
</g>
<defs>
<filter id="filter0_d" x="-2" y="-8" width="224" height="172" filterUnits="userSpaceOnUse" color-interpolation-filters="sRGB">
<feFlood flood-opacity="0" result="BackgroundImageFix"/>
<feColorMatrix in="SourceAlpha" type="matrix" values="0 0 0 0 0 0 0 0 0 0 0 0 0 0 0 0 0 0 127 0" result="hardAlpha"/>
<feOffset dy="4"/>
<feGaussianBlur stdDeviation="6"/>
<feComposite in2="hardAlpha" operator="out"/>
<feColorMatrix type="matrix" values="0 0 0 0 0 0 0 0 0 0 0 0 0 0 0 0 0 0 0.08 0"/>
<feBlend mode="normal" in2="BackgroundImageFix" result="effect1_dropShadow"/>
<feBlend mode="normal" in="SourceGraphic" in2="effect1_dropShadow" result="shape"/>
</filter>
<clipPath id="clip0">
<rect width="220" height="148" fill="white"/>
</clipPath>
<clipPath id="clip1">
<rect width="130" height="148" fill="white" transform="translate(45)"/>
</clipPath>
<clipPath id="clip2">
<rect width="14" height="14" fill="white" transform="translate(118 34)"/>
</clipPath>
<clipPath id="clip3">
<rect width="110" height="61.875" fill="white" transform="translate(55 74)"/>
</clipPath>
</defs>
</svg>
