<svg width="220" height="148" viewBox="0 0 220 148" fill="none" xmlns="http://www.w3.org/2000/svg">
<g clip-path="url(#clip0)">
<g filter="url(#filter0_d)">
<rect x="10" width="200" height="148" fill="white"/>
</g>
<g clip-path="url(#clip1)">
<path d="M50 29H110V57H50V29Z" fill="white"/>
<path fill-rule="evenodd" clip-rule="evenodd" d="M49.5 28.5H110.5V57.5H49.5V28.5ZM50.5 29.5V56.5H109.5V29.5H50.5Z" fill="#E2E9EF"/>
<rect x="55" y="34" width="50" height="18" fill="#0066FF"/>
<path d="M50 102H110V130H50V102Z" fill="white"/>
<path fill-rule="evenodd" clip-rule="evenodd" d="M49.5 101.5H110.5V130.5H49.5V101.5ZM50.5 102.5V129.5H109.5V102.5H50.5Z" fill="#E2E9EF"/>
<path d="M50 57H110V85H50V57Z" fill="white"/>
<path fill-rule="evenodd" clip-rule="evenodd" d="M49.5 56.5H110.5V85.5H49.5V56.5ZM50.5 57.5V84.5H109.5V57.5H50.5Z" fill="#E2E9EF"/>
<path d="M50 130H110V158H50V130Z" fill="white"/>
<path fill-rule="evenodd" clip-rule="evenodd" d="M49.5 129.5H110.5V158.5H49.5V129.5ZM50.5 130.5V157.5H109.5V130.5H50.5Z" fill="#E2E9EF"/>
<path d="M110 130H170V158H110V130Z" fill="white"/>
<path fill-rule="evenodd" clip-rule="evenodd" d="M109.5 129.5H170.5V158.5H109.5V129.5ZM110.5 130.5V157.5H169.5V130.5H110.5Z" fill="#E2E9EF"/>
<path d="M110 29H170V57H110V29Z" fill="white"/>
<path fill-rule="evenodd" clip-rule="evenodd" d="M109.5 28.5H170.5V57.5H109.5V28.5ZM110.5 29.5V56.5H169.5V29.5H110.5Z" fill="#E2E9EF"/>
<path d="M110 102H170V130H110V102Z" fill="white"/>
<path fill-rule="evenodd" clip-rule="evenodd" d="M109.5 101.5H170.5V130.5H109.5V101.5ZM110.5 102.5V129.5H169.5V102.5H110.5Z" fill="#E2E9EF"/>
<path d="M110 57H170V85H110V57Z" fill="white"/>
<path fill-rule="evenodd" clip-rule="evenodd" d="M109.5 56.5H170.5V85.5H109.5V56.5ZM110.5 57.5V84.5H169.5V57.5H110.5Z" fill="#E2E9EF"/>
<path d="M50 -9H110V12H50V-9Z" fill="white"/>
<path fill-rule="evenodd" clip-rule="evenodd" d="M49.5 -9.5H110.5V12.5H49.5V-9.5ZM50.5 -8.5V11.5H109.5V-8.5H50.5Z" fill="#E2E9EF"/>
<path d="M110 -9H170V12H110V-9Z" fill="white"/>
<path fill-rule="evenodd" clip-rule="evenodd" d="M109.5 -9.5H170.5V12.5H109.5V-9.5ZM110.5 -8.5V11.5H169.5V-8.5H110.5Z" fill="#E2E9EF"/>
<rect x="50" y="24" width="16" height="3" fill="#CFD9E0"/>
<rect x="50" y="97" width="16" height="3" fill="#CFD9E0"/>
<rect opacity="0.6" x="115" y="34" width="50" height="18" fill="#0066FF"/>
<rect opacity="0.4" x="55" y="62" width="50" height="18" fill="#0066FF"/>
<rect x="55" y="107" width="50" height="18" fill="#0B2239"/>
<rect opacity="0.4" x="55" y="135" width="50" height="18" fill="#0B2239"/>
<rect opacity="0.2" x="115" y="135" width="50" height="18" fill="#0B2239"/>
<rect opacity="0.2" x="115" y="62" width="50" height="18" fill="#0066FF"/>
<rect opacity="0.6" x="115" y="107" width="50" height="18" fill="#0B2239"/>
</g>
</g>
<defs>
<filter id="filter0_d" x="-2" y="-8" width="224" height="172" filterUnits="userSpaceOnUse" color-interpolation-filters="sRGB">
<feFlood flood-opacity="0" result="BackgroundImageFix"/>
<feColorMatrix in="SourceAlpha" type="matrix" values="0 0 0 0 0 0 0 0 0 0 0 0 0 0 0 0 0 0 127 0" result="hardAlpha"/>
<feOffset dy="4"/>
<feGaussianBlur stdDeviation="6"/>
<feComposite in2="hardAlpha" operator="out"/>
<feColorMatrix type="matrix" values="0 0 0 0 0 0 0 0 0 0 0 0 0 0 0 0 0 0 0.08 0"/>
<feBlend mode="normal" in2="BackgroundImageFix" result="effect1_dropShadow"/>
<feBlend mode="normal" in="SourceGraphic" in2="effect1_dropShadow" result="shape"/>
</filter>
<clipPath id="clip0">
<rect width="220" height="148" fill="white"/>
</clipPath>
<clipPath id="clip1">
<rect width="130" height="148" fill="white" transform="translate(45)"/>
</clipPath>
</defs>
</svg>
