<svg width="220" height="148" viewBox="0 0 220 148" fill="none" xmlns="http://www.w3.org/2000/svg">
<g clip-path="url(#clip0)">
<g filter="url(#filter0_d)">
<rect x="10" width="200" height="148" fill="white"/>
</g>
<rect x="50" y="81" width="27" height="3" fill="#CFD9E0"/>
<rect x="50" y="91" width="42" height="3" fill="#CFD9E0"/>
<rect x="50" y="86" width="16" height="3" fill="#CFD9E0"/>
<rect x="81" y="81" width="12" height="3" fill="#CFD9E0"/>
<rect x="70" y="86" width="12" height="3" fill="#CFD9E0"/>
<rect x="97" y="81" width="21" height="3" fill="#CFD9E0"/>
<rect x="96" y="91" width="9" height="3" fill="#CFD9E0"/>
<rect x="86" y="86" width="41" height="3" fill="#CFD9E0"/>
<rect x="122" y="81" width="8" height="3" fill="#CFD9E0"/>
<rect x="109" y="91" width="35" height="3" fill="#CFD9E0"/>
<rect x="131" y="86" width="8" height="3" fill="#CFD9E0"/>
<rect x="134" y="81" width="30" height="3" fill="#CFD9E0"/>
<rect x="148" y="91" width="22" height="3" fill="#CFD9E0"/>
<rect x="143" y="86" width="11" height="3" fill="#CFD9E0"/>
<rect x="50" y="128" width="27" height="3" fill="#CFD9E0"/>
<rect x="50" y="138" width="42" height="3" fill="#CFD9E0"/>
<rect x="50" y="133" width="16" height="3" fill="#CFD9E0"/>
<rect x="81" y="128" width="12" height="3" fill="#CFD9E0"/>
<rect x="70" y="133" width="12" height="3" fill="#CFD9E0"/>
<rect x="97" y="128" width="21" height="3" fill="#CFD9E0"/>
<rect x="96" y="138" width="9" height="3" fill="#CFD9E0"/>
<rect x="86" y="133" width="41" height="3" fill="#CFD9E0"/>
<rect x="122" y="128" width="8" height="3" fill="#CFD9E0"/>
<rect x="109" y="138" width="35" height="3" fill="#CFD9E0"/>
<rect x="131" y="133" width="8" height="3" fill="#CFD9E0"/>
<rect x="134" y="128" width="30" height="3" fill="#CFD9E0"/>
<rect x="148" y="138" width="22" height="3" fill="#CFD9E0"/>
<rect x="143" y="133" width="11" height="3" fill="#CFD9E0"/>
<rect x="50" y="102" width="27" height="3" fill="#CFD9E0"/>
<rect x="50" y="112" width="42" height="3" fill="#CFD9E0"/>
<rect x="50" y="107" width="32" height="3" fill="#CFD9E0"/>
<rect x="50" y="117" width="32" height="3" fill="#CFD9E0"/>
<rect x="81" y="102" width="12" height="3" fill="#CFD9E0"/>
<rect x="96" y="112" width="9" height="3" fill="#CFD9E0"/>
<rect x="86" y="107" width="41" height="3" fill="#CFD9E0"/>
<rect x="86" y="117" width="41" height="3" fill="#CFD9E0"/>
<rect x="109" y="112" width="35" height="3" fill="#CFD9E0"/>
<rect x="131" y="107" width="8" height="3" fill="#CFD9E0"/>
<rect x="131" y="117" width="8" height="3" fill="#CFD9E0"/>
<rect x="143" y="107" width="22" height="3" fill="#CFD9E0"/>
<rect x="143" y="117" width="22" height="3" fill="#CFD9E0"/>
<path d="M80.4219 26.7056H83.8433V28H78.8105V20.1797H80.4219V26.7056Z" fill="#0B2239"/>
<path d="M84.4287 25.0405C84.4287 24.464 84.5397 23.9502 84.7617 23.499C84.9837 23.0479 85.3024 22.6987 85.7178 22.4517C86.1367 22.2046 86.6219 22.0811 87.1733 22.0811C87.9575 22.0811 88.5967 22.321 89.0908 22.8008C89.5885 23.2806 89.866 23.9323 89.9233 24.7559L89.9341 25.1533C89.9341 26.0449 89.6852 26.7611 89.1875 27.3018C88.6898 27.8389 88.022 28.1074 87.1841 28.1074C86.3462 28.1074 85.6766 27.8389 85.1753 27.3018C84.6776 26.7646 84.4287 26.0342 84.4287 25.1104V25.0405ZM85.981 25.1533C85.981 25.7048 86.0848 26.1273 86.2925 26.4209C86.5002 26.7109 86.7974 26.856 87.1841 26.856C87.5601 26.856 87.8537 26.7127 88.0649 26.4263C88.2762 26.1362 88.3818 25.6743 88.3818 25.0405C88.3818 24.4998 88.2762 24.0809 88.0649 23.7837C87.8537 23.4865 87.5565 23.3379 87.1733 23.3379C86.7938 23.3379 86.5002 23.4865 86.2925 23.7837C86.0848 24.0773 85.981 24.5339 85.981 25.1533Z" fill="#0B2239"/>
<path d="M94.1558 23.644C93.9445 23.6154 93.7583 23.6011 93.5972 23.6011C93.0099 23.6011 92.625 23.7998 92.4424 24.1973V28H90.8901V22.1885H92.3564L92.3994 22.8813C92.7109 22.3478 93.1424 22.0811 93.6938 22.0811C93.8657 22.0811 94.0269 22.1043 94.1772 22.1509L94.1558 23.644Z" fill="#0B2239"/>
<path d="M97.4751 28.1074C96.6229 28.1074 95.9282 27.846 95.3911 27.3232C94.8576 26.8005 94.5908 26.104 94.5908 25.2339V25.0835C94.5908 24.4998 94.7036 23.9788 94.9292 23.5205C95.1548 23.0586 95.4735 22.7041 95.8853 22.457C96.3006 22.2064 96.7733 22.0811 97.3032 22.0811C98.0981 22.0811 98.723 22.3317 99.1777 22.833C99.6361 23.3343 99.8652 24.0451 99.8652 24.9653V25.5991H96.1646C96.2147 25.9787 96.3651 26.283 96.6157 26.5122C96.87 26.7414 97.1904 26.856 97.5771 26.856C98.1751 26.856 98.6424 26.6393 98.979 26.2061L99.7417 27.0601C99.509 27.3895 99.1938 27.6473 98.7964 27.8335C98.3989 28.0161 97.9585 28.1074 97.4751 28.1074ZM97.2979 23.3379C96.9899 23.3379 96.7393 23.4417 96.5459 23.6494C96.3561 23.8571 96.2344 24.1543 96.1807 24.541H98.3398V24.4175C98.3327 24.0737 98.2396 23.8088 98.0605 23.6226C97.8815 23.4328 97.6273 23.3379 97.2979 23.3379Z" fill="#0B2239"/>
<path d="M102.207 22.1885L102.255 22.8384C102.667 22.3335 103.224 22.0811 103.926 22.0811C104.674 22.0811 105.188 22.3765 105.467 22.9673C105.875 22.3765 106.457 22.0811 107.213 22.0811C107.843 22.0811 108.312 22.2655 108.62 22.6343C108.928 22.9995 109.082 23.5509 109.082 24.2886V28H107.524V24.2939C107.524 23.9645 107.46 23.7246 107.331 23.5742C107.202 23.4202 106.975 23.3433 106.649 23.3433C106.183 23.3433 105.861 23.5653 105.682 24.0093L105.688 28H104.135V24.2993C104.135 23.9627 104.069 23.7192 103.937 23.5688C103.804 23.4185 103.578 23.3433 103.26 23.3433C102.819 23.3433 102.501 23.5259 102.304 23.8911V28H100.751V22.1885H102.207Z" fill="#0B2239"/>
<path d="M114.657 28H113.1V22.1885H114.657V28ZM113.008 20.6846C113.008 20.4518 113.085 20.2603 113.239 20.1099C113.397 19.9595 113.61 19.8843 113.878 19.8843C114.143 19.8843 114.355 19.9595 114.512 20.1099C114.67 20.2603 114.749 20.4518 114.749 20.6846C114.749 20.9209 114.668 21.1143 114.507 21.2646C114.349 21.415 114.14 21.4902 113.878 21.4902C113.617 21.4902 113.406 21.415 113.245 21.2646C113.087 21.1143 113.008 20.9209 113.008 20.6846Z" fill="#0B2239"/>
<path d="M121.172 25.1479C121.172 26.0431 120.968 26.7611 120.56 27.3018C120.155 27.8389 119.608 28.1074 118.917 28.1074C118.329 28.1074 117.855 27.9033 117.493 27.4951V30.2344H115.941V22.1885H117.38L117.434 22.7578C117.81 22.3066 118.301 22.0811 118.906 22.0811C119.622 22.0811 120.179 22.346 120.576 22.876C120.974 23.4059 121.172 24.1364 121.172 25.0674V25.1479ZM119.62 25.0352C119.62 24.4945 119.523 24.0773 119.33 23.7837C119.14 23.4901 118.863 23.3433 118.498 23.3433C118.011 23.3433 117.676 23.5295 117.493 23.9019V26.2812C117.683 26.6644 118.021 26.856 118.508 26.856C119.25 26.856 119.62 26.249 119.62 25.0352Z" fill="#0B2239"/>
<path d="M125.287 26.394C125.287 26.2043 125.192 26.0557 125.002 25.9482C124.816 25.8372 124.515 25.7388 124.1 25.6528C122.717 25.3628 122.026 24.7756 122.026 23.8911C122.026 23.3755 122.239 22.9458 122.666 22.6021C123.095 22.2547 123.656 22.0811 124.347 22.0811C125.084 22.0811 125.673 22.2547 126.114 22.6021C126.558 22.9494 126.78 23.4006 126.78 23.9556H125.228C125.228 23.7336 125.156 23.5509 125.013 23.4077C124.869 23.2609 124.646 23.1875 124.341 23.1875C124.08 23.1875 123.878 23.2466 123.734 23.3647C123.591 23.4829 123.52 23.6333 123.52 23.8159C123.52 23.9878 123.6 24.1274 123.761 24.2349C123.926 24.3387 124.202 24.43 124.588 24.5088C124.975 24.584 125.301 24.6699 125.566 24.7666C126.386 25.0674 126.796 25.5884 126.796 26.3296C126.796 26.8595 126.569 27.2892 126.114 27.6187C125.659 27.9445 125.072 28.1074 124.352 28.1074C123.865 28.1074 123.432 28.0215 123.052 27.8496C122.676 27.6742 122.381 27.436 122.166 27.1353C121.951 26.8309 121.844 26.5033 121.844 26.1523H123.315C123.33 26.4281 123.432 26.6393 123.622 26.7861C123.811 26.9329 124.066 27.0063 124.384 27.0063C124.681 27.0063 124.905 26.9508 125.056 26.8398C125.21 26.7253 125.287 26.5767 125.287 26.394Z" fill="#0B2239"/>
<path d="M131.281 27.4092C130.898 27.8747 130.368 28.1074 129.691 28.1074C129.068 28.1074 128.592 27.9284 128.262 27.5703C127.936 27.2122 127.77 26.6877 127.763 25.9966V22.1885H129.315V25.9429C129.315 26.548 129.591 26.8506 130.142 26.8506C130.668 26.8506 131.03 26.668 131.227 26.3027V22.1885H132.785V28H131.324L131.281 27.4092Z" fill="#0B2239"/>
<path d="M135.411 22.1885L135.459 22.8384C135.871 22.3335 136.428 22.0811 137.13 22.0811C137.878 22.0811 138.392 22.3765 138.671 22.9673C139.08 22.3765 139.661 22.0811 140.417 22.0811C141.047 22.0811 141.516 22.2655 141.824 22.6343C142.132 22.9995 142.286 23.5509 142.286 24.2886V28H140.729V24.2939C140.729 23.9645 140.664 23.7246 140.535 23.5742C140.406 23.4202 140.179 23.3433 139.853 23.3433C139.388 23.3433 139.065 23.5653 138.886 24.0093L138.892 28H137.339V24.2993C137.339 23.9627 137.273 23.7192 137.141 23.5688C137.008 23.4185 136.783 23.3433 136.464 23.3433C136.023 23.3433 135.705 23.5259 135.508 23.8911V28H133.956V22.1885H135.411Z" fill="#0B2239"/>
<path d="M51.1748 42.4082H53.1113V43H50.4336V38.7344H51.1748V42.4082Z" fill="#98A9B5"/>
<path d="M53.4775 41.3857C53.4775 41.0752 53.5391 40.7959 53.6621 40.5479C53.7852 40.2979 53.958 40.1064 54.1807 39.9736C54.4033 39.8389 54.6592 39.7715 54.9482 39.7715C55.376 39.7715 55.7227 39.9092 55.9883 40.1846C56.2559 40.46 56.4004 40.8252 56.4219 41.2803L56.4248 41.4473C56.4248 41.7598 56.3643 42.0391 56.2432 42.2852C56.124 42.5312 55.9521 42.7217 55.7275 42.8564C55.5049 42.9912 55.2471 43.0586 54.9541 43.0586C54.5068 43.0586 54.1484 42.9102 53.8789 42.6133C53.6113 42.3145 53.4775 41.917 53.4775 41.4209V41.3857ZM54.1895 41.4473C54.1895 41.7734 54.2568 42.0293 54.3916 42.2148C54.5264 42.3984 54.7139 42.4902 54.9541 42.4902C55.1943 42.4902 55.3809 42.3965 55.5137 42.209C55.6484 42.0215 55.7158 41.7471 55.7158 41.3857C55.7158 41.0654 55.6465 40.8115 55.5078 40.624C55.3711 40.4365 55.1846 40.3428 54.9482 40.3428C54.7158 40.3428 54.5312 40.4355 54.3945 40.6211C54.2578 40.8047 54.1895 41.0801 54.1895 41.4473Z" fill="#98A9B5"/>
<path d="M58.6865 40.4805C58.5928 40.4648 58.4961 40.457 58.3965 40.457C58.0703 40.457 57.8506 40.582 57.7373 40.832V43H57.0254V39.8301H57.7051L57.7227 40.1846C57.8945 39.9092 58.1328 39.7715 58.4375 39.7715C58.5391 39.7715 58.623 39.7852 58.6895 39.8125L58.6865 40.4805Z" fill="#98A9B5"/>
<path d="M60.4736 43.0586C60.0225 43.0586 59.6562 42.917 59.375 42.6338C59.0957 42.3486 58.9561 41.9697 58.9561 41.4971V41.4092C58.9561 41.0928 59.0166 40.8105 59.1377 40.5625C59.2607 40.3125 59.4326 40.1182 59.6533 39.9795C59.874 39.8408 60.1201 39.7715 60.3916 39.7715C60.8232 39.7715 61.1562 39.9092 61.3906 40.1846C61.627 40.46 61.7451 40.8496 61.7451 41.3535V41.6406H59.6738C59.6953 41.9023 59.7822 42.1094 59.9346 42.2617C60.0889 42.4141 60.2822 42.4902 60.5146 42.4902C60.8408 42.4902 61.1064 42.3584 61.3115 42.0947L61.6953 42.4609C61.5684 42.6504 61.3984 42.7979 61.1855 42.9033C60.9746 43.0068 60.7373 43.0586 60.4736 43.0586ZM60.3887 40.3428C60.1934 40.3428 60.0352 40.4111 59.9141 40.5479C59.7949 40.6846 59.7188 40.875 59.6855 41.1191H61.042V41.0664C61.0264 40.8281 60.9629 40.6484 60.8516 40.5273C60.7402 40.4043 60.5859 40.3428 60.3887 40.3428Z" fill="#98A9B5"/>
<path d="M62.9697 39.8301L62.9902 40.1611C63.2129 39.9014 63.5176 39.7715 63.9043 39.7715C64.3281 39.7715 64.6182 39.9336 64.7744 40.2578C65.0049 39.9336 65.3291 39.7715 65.7471 39.7715C66.0967 39.7715 66.3564 39.8682 66.5264 40.0615C66.6982 40.2549 66.7861 40.54 66.79 40.917V43H66.0781V40.9375C66.0781 40.7363 66.0342 40.5889 65.9463 40.4951C65.8584 40.4014 65.7129 40.3545 65.5098 40.3545C65.3477 40.3545 65.2148 40.3984 65.1113 40.4863C65.0098 40.5723 64.9385 40.6855 64.8975 40.8262L64.9004 43H64.1885V40.9141C64.1787 40.541 63.9883 40.3545 63.6172 40.3545C63.332 40.3545 63.1299 40.4707 63.0107 40.7031V43H62.2988V39.8301H62.9697Z" fill="#98A9B5"/>
<path d="M69.8662 43H69.1279V38.7344H69.8662V43Z" fill="#98A9B5"/>
<path d="M73.4844 41.4473C73.4844 41.9375 73.373 42.3291 73.1504 42.6221C72.9277 42.9131 72.6289 43.0586 72.2539 43.0586C71.9062 43.0586 71.6279 42.9443 71.4189 42.7158V44.2188H70.707V39.8301H71.3633L71.3926 40.1523C71.6016 39.8984 71.8857 39.7715 72.2451 39.7715C72.6318 39.7715 72.9346 39.916 73.1533 40.2051C73.374 40.4922 73.4844 40.8916 73.4844 41.4033V41.4473ZM72.7754 41.3857C72.7754 41.0693 72.7119 40.8184 72.585 40.6328C72.46 40.4473 72.2803 40.3545 72.0459 40.3545C71.7549 40.3545 71.5459 40.4746 71.4189 40.7148V42.1211C71.5479 42.3672 71.7588 42.4902 72.0518 42.4902C72.2783 42.4902 72.4551 42.3994 72.582 42.2178C72.7109 42.0342 72.7754 41.7568 72.7754 41.3857Z" fill="#98A9B5"/>
<path d="M75.8662 42.1387C75.8662 42.0117 75.8135 41.915 75.708 41.8486C75.6045 41.7822 75.4316 41.7236 75.1895 41.6729C74.9473 41.6221 74.7451 41.5576 74.583 41.4795C74.2275 41.3076 74.0498 41.0586 74.0498 40.7324C74.0498 40.459 74.165 40.2305 74.3955 40.0469C74.626 39.8633 74.9189 39.7715 75.2744 39.7715C75.6533 39.7715 75.959 39.8652 76.1914 40.0527C76.4258 40.2402 76.543 40.4834 76.543 40.7822H75.8311C75.8311 40.6455 75.7803 40.5322 75.6787 40.4424C75.5771 40.3506 75.4424 40.3047 75.2744 40.3047C75.1182 40.3047 74.9902 40.3408 74.8906 40.4131C74.793 40.4854 74.7441 40.582 74.7441 40.7031C74.7441 40.8125 74.79 40.8975 74.8818 40.958C74.9736 41.0186 75.1592 41.0801 75.4385 41.1426C75.7178 41.2031 75.9365 41.2764 76.0947 41.3623C76.2549 41.4463 76.373 41.5479 76.4492 41.667C76.5273 41.7861 76.5664 41.9307 76.5664 42.1006C76.5664 42.3857 76.4482 42.6172 76.2119 42.7949C75.9756 42.9707 75.666 43.0586 75.2832 43.0586C75.0234 43.0586 74.792 43.0117 74.5889 42.918C74.3857 42.8242 74.2275 42.6953 74.1143 42.5312C74.001 42.3672 73.9443 42.1904 73.9443 42.001H74.6357C74.6455 42.1689 74.709 42.2988 74.8262 42.3906C74.9434 42.4805 75.0986 42.5254 75.292 42.5254C75.4795 42.5254 75.6221 42.4902 75.7197 42.4199C75.8174 42.3477 75.8662 42.2539 75.8662 42.1387Z" fill="#98A9B5"/>
<path d="M79.1094 42.6895C78.9004 42.9355 78.6035 43.0586 78.2188 43.0586C77.875 43.0586 77.6143 42.958 77.4365 42.7568C77.2607 42.5557 77.1729 42.2646 77.1729 41.8838V39.8301H77.8848V41.875C77.8848 42.2773 78.0518 42.4785 78.3857 42.4785C78.7314 42.4785 78.9648 42.3545 79.0859 42.1064V39.8301H79.7979V43H79.127L79.1094 42.6895Z" fill="#98A9B5"/>
<path d="M81.1924 39.8301L81.2129 40.1611C81.4355 39.9014 81.7402 39.7715 82.127 39.7715C82.5508 39.7715 82.8408 39.9336 82.9971 40.2578C83.2275 39.9336 83.5518 39.7715 83.9697 39.7715C84.3193 39.7715 84.5791 39.8682 84.749 40.0615C84.9209 40.2549 85.0088 40.54 85.0127 40.917V43H84.3008V40.9375C84.3008 40.7363 84.2568 40.5889 84.1689 40.4951C84.0811 40.4014 83.9355 40.3545 83.7324 40.3545C83.5703 40.3545 83.4375 40.3984 83.334 40.4863C83.2324 40.5723 83.1611 40.6855 83.1201 40.8262L83.123 43H82.4111V40.9141C82.4014 40.541 82.2109 40.3545 81.8398 40.3545C81.5547 40.3545 81.3525 40.4707 81.2334 40.7031V43H80.5215V39.8301H81.1924Z" fill="#98A9B5"/>
<path d="M87.9951 43H87.2832V39.8301H87.9951V43ZM87.2393 39.0068C87.2393 38.8975 87.2734 38.8066 87.3418 38.7344C87.4121 38.6621 87.5117 38.626 87.6406 38.626C87.7695 38.626 87.8691 38.6621 87.9395 38.7344C88.0098 38.8066 88.0449 38.8975 88.0449 39.0068C88.0449 39.1143 88.0098 39.2041 87.9395 39.2764C87.8691 39.3467 87.7695 39.3818 87.6406 39.3818C87.5117 39.3818 87.4121 39.3467 87.3418 39.2764C87.2734 39.2041 87.2393 39.1143 87.2393 39.0068Z" fill="#98A9B5"/>
<path d="M90.5498 42.1387C90.5498 42.0117 90.4971 41.915 90.3916 41.8486C90.2881 41.7822 90.1152 41.7236 89.873 41.6729C89.6309 41.6221 89.4287 41.5576 89.2666 41.4795C88.9111 41.3076 88.7334 41.0586 88.7334 40.7324C88.7334 40.459 88.8486 40.2305 89.0791 40.0469C89.3096 39.8633 89.6025 39.7715 89.958 39.7715C90.3369 39.7715 90.6426 39.8652 90.875 40.0527C91.1094 40.2402 91.2266 40.4834 91.2266 40.7822H90.5146C90.5146 40.6455 90.4639 40.5322 90.3623 40.4424C90.2607 40.3506 90.126 40.3047 89.958 40.3047C89.8018 40.3047 89.6738 40.3408 89.5742 40.4131C89.4766 40.4854 89.4277 40.582 89.4277 40.7031C89.4277 40.8125 89.4736 40.8975 89.5654 40.958C89.6572 41.0186 89.8428 41.0801 90.1221 41.1426C90.4014 41.2031 90.6201 41.2764 90.7783 41.3623C90.9385 41.4463 91.0566 41.5479 91.1328 41.667C91.2109 41.7861 91.25 41.9307 91.25 42.1006C91.25 42.3857 91.1318 42.6172 90.8955 42.7949C90.6592 42.9707 90.3496 43.0586 89.9668 43.0586C89.707 43.0586 89.4756 43.0117 89.2725 42.918C89.0693 42.8242 88.9111 42.6953 88.7979 42.5312C88.6846 42.3672 88.6279 42.1904 88.6279 42.001H89.3193C89.3291 42.1689 89.3926 42.2988 89.5098 42.3906C89.627 42.4805 89.7822 42.5254 89.9756 42.5254C90.1631 42.5254 90.3057 42.4902 90.4033 42.4199C90.501 42.3477 90.5498 42.2539 90.5498 42.1387Z" fill="#98A9B5"/>
<path d="M95.1436 42.1387C95.1436 42.0117 95.0908 41.915 94.9854 41.8486C94.8818 41.7822 94.709 41.7236 94.4668 41.6729C94.2246 41.6221 94.0225 41.5576 93.8604 41.4795C93.5049 41.3076 93.3271 41.0586 93.3271 40.7324C93.3271 40.459 93.4424 40.2305 93.6729 40.0469C93.9033 39.8633 94.1963 39.7715 94.5518 39.7715C94.9307 39.7715 95.2363 39.8652 95.4688 40.0527C95.7031 40.2402 95.8203 40.4834 95.8203 40.7822H95.1084C95.1084 40.6455 95.0576 40.5322 94.9561 40.4424C94.8545 40.3506 94.7197 40.3047 94.5518 40.3047C94.3955 40.3047 94.2676 40.3408 94.168 40.4131C94.0703 40.4854 94.0215 40.582 94.0215 40.7031C94.0215 40.8125 94.0674 40.8975 94.1592 40.958C94.251 41.0186 94.4365 41.0801 94.7158 41.1426C94.9951 41.2031 95.2139 41.2764 95.3721 41.3623C95.5322 41.4463 95.6504 41.5479 95.7266 41.667C95.8047 41.7861 95.8438 41.9307 95.8438 42.1006C95.8438 42.3857 95.7256 42.6172 95.4893 42.7949C95.2529 42.9707 94.9434 43.0586 94.5605 43.0586C94.3008 43.0586 94.0693 43.0117 93.8662 42.918C93.6631 42.8242 93.5049 42.6953 93.3916 42.5312C93.2783 42.3672 93.2217 42.1904 93.2217 42.001H93.9131C93.9229 42.1689 93.9863 42.2988 94.1035 42.3906C94.2207 42.4805 94.376 42.5254 94.5693 42.5254C94.7568 42.5254 94.8994 42.4902 94.9971 42.4199C95.0947 42.3477 95.1436 42.2539 95.1436 42.1387Z" fill="#98A9B5"/>
<path d="M97.2236 43H96.5117V39.8301H97.2236V43ZM96.4678 39.0068C96.4678 38.8975 96.502 38.8066 96.5703 38.7344C96.6406 38.6621 96.7402 38.626 96.8691 38.626C96.998 38.626 97.0977 38.6621 97.168 38.7344C97.2383 38.8066 97.2734 38.8975 97.2734 39.0068C97.2734 39.1143 97.2383 39.2041 97.168 39.2764C97.0977 39.3467 96.998 39.3818 96.8691 39.3818C96.7402 39.3818 96.6406 39.3467 96.5703 39.2764C96.502 39.2041 96.4678 39.1143 96.4678 39.0068Z" fill="#98A9B5"/>
<path d="M98.6709 39.8301L98.6914 40.1611C98.9141 39.9014 99.2188 39.7715 99.6055 39.7715C100.029 39.7715 100.319 39.9336 100.476 40.2578C100.706 39.9336 101.03 39.7715 101.448 39.7715C101.798 39.7715 102.058 39.8682 102.228 40.0615C102.399 40.2549 102.487 40.54 102.491 40.917V43H101.779V40.9375C101.779 40.7363 101.735 40.5889 101.647 40.4951C101.56 40.4014 101.414 40.3545 101.211 40.3545C101.049 40.3545 100.916 40.3984 100.812 40.4863C100.711 40.5723 100.64 40.6855 100.599 40.8262L100.602 43H99.8896V40.9141C99.8799 40.541 99.6895 40.3545 99.3184 40.3545C99.0332 40.3545 98.8311 40.4707 98.7119 40.7031V43H98V39.8301H98.6709Z" fill="#98A9B5"/>
<path d="M105.998 41.4473C105.998 41.9375 105.887 42.3291 105.664 42.6221C105.441 42.9131 105.143 43.0586 104.768 43.0586C104.42 43.0586 104.142 42.9443 103.933 42.7158V44.2188H103.221V39.8301H103.877L103.906 40.1523C104.115 39.8984 104.399 39.7715 104.759 39.7715C105.146 39.7715 105.448 39.916 105.667 40.2051C105.888 40.4922 105.998 40.8916 105.998 41.4033V41.4473ZM105.289 41.3857C105.289 41.0693 105.226 40.8184 105.099 40.6328C104.974 40.4473 104.794 40.3545 104.56 40.3545C104.269 40.3545 104.06 40.4746 103.933 40.7148V42.1211C104.062 42.3672 104.272 42.4902 104.565 42.4902C104.792 42.4902 104.969 42.3994 105.096 42.2178C105.225 42.0342 105.289 41.7568 105.289 41.3857Z" fill="#98A9B5"/>
<path d="M107.36 43H106.648V38.5H107.36V43Z" fill="#98A9B5"/>
<path d="M109.247 41.9805L109.892 39.8301H110.65L109.391 43.4805C109.197 44.0137 108.869 44.2803 108.406 44.2803C108.303 44.2803 108.188 44.2627 108.063 44.2275V43.6768L108.198 43.6855C108.378 43.6855 108.513 43.6523 108.603 43.5859C108.694 43.5215 108.767 43.4121 108.819 43.2578L108.922 42.9854L107.809 39.8301H108.576L109.247 41.9805Z" fill="#98A9B5"/>
<path d="M112.423 41.3916C112.423 40.9033 112.536 40.5117 112.763 40.2168C112.989 39.9199 113.293 39.7715 113.674 39.7715C114.01 39.7715 114.281 39.8887 114.488 40.123V38.5H115.2V43H114.556L114.521 42.6719C114.308 42.9297 114.023 43.0586 113.668 43.0586C113.297 43.0586 112.996 42.9092 112.766 42.6104C112.537 42.3115 112.423 41.9053 112.423 41.3916ZM113.135 41.4531C113.135 41.7754 113.196 42.0273 113.319 42.209C113.444 42.3887 113.621 42.4785 113.85 42.4785C114.141 42.4785 114.354 42.3486 114.488 42.0889V40.7354C114.357 40.4814 114.146 40.3545 113.855 40.3545C113.625 40.3545 113.447 40.4463 113.322 40.6299C113.197 40.8115 113.135 41.0859 113.135 41.4531Z" fill="#98A9B5"/>
<path d="M117.863 42.6895C117.654 42.9355 117.357 43.0586 116.973 43.0586C116.629 43.0586 116.368 42.958 116.19 42.7568C116.015 42.5557 115.927 42.2646 115.927 41.8838V39.8301H116.639V41.875C116.639 42.2773 116.806 42.4785 117.14 42.4785C117.485 42.4785 117.719 42.3545 117.84 42.1064V39.8301H118.552V43H117.881L117.863 42.6895Z" fill="#98A9B5"/>
<path d="M119.946 39.8301L119.967 40.1611C120.189 39.9014 120.494 39.7715 120.881 39.7715C121.305 39.7715 121.595 39.9336 121.751 40.2578C121.981 39.9336 122.306 39.7715 122.724 39.7715C123.073 39.7715 123.333 39.8682 123.503 40.0615C123.675 40.2549 123.763 40.54 123.767 40.917V43H123.055V40.9375C123.055 40.7363 123.011 40.5889 122.923 40.4951C122.835 40.4014 122.689 40.3545 122.486 40.3545C122.324 40.3545 122.191 40.3984 122.088 40.4863C121.986 40.5723 121.915 40.6855 121.874 40.8262L121.877 43H121.165V40.9141C121.155 40.541 120.965 40.3545 120.594 40.3545C120.309 40.3545 120.106 40.4707 119.987 40.7031V43H119.275V39.8301H119.946Z" fill="#98A9B5"/>
<path d="M125.167 39.8301L125.188 40.1611C125.41 39.9014 125.715 39.7715 126.102 39.7715C126.525 39.7715 126.815 39.9336 126.972 40.2578C127.202 39.9336 127.526 39.7715 127.944 39.7715C128.294 39.7715 128.554 39.8682 128.724 40.0615C128.896 40.2549 128.983 40.54 128.987 40.917V43H128.275V40.9375C128.275 40.7363 128.231 40.5889 128.144 40.4951C128.056 40.4014 127.91 40.3545 127.707 40.3545C127.545 40.3545 127.412 40.3984 127.309 40.4863C127.207 40.5723 127.136 40.6855 127.095 40.8262L127.098 43H126.386V40.9141C126.376 40.541 126.186 40.3545 125.814 40.3545C125.529 40.3545 125.327 40.4707 125.208 40.7031V43H124.496V39.8301H125.167Z" fill="#98A9B5"/>
<path d="M130.827 41.9805L131.472 39.8301H132.23L130.971 43.4805C130.777 44.0137 130.449 44.2803 129.986 44.2803C129.883 44.2803 129.769 44.2627 129.644 44.2275V43.6768L129.778 43.6855C129.958 43.6855 130.093 43.6523 130.183 43.5859C130.274 43.5215 130.347 43.4121 130.399 43.2578L130.502 42.9854L129.389 39.8301H130.156L130.827 41.9805Z" fill="#98A9B5"/>
<path d="M135.028 39.0596V39.8301H135.588V40.3574H135.028V42.127C135.028 42.248 135.052 42.3359 135.099 42.3906C135.147 42.4434 135.233 42.4697 135.356 42.4697C135.438 42.4697 135.521 42.46 135.605 42.4404V42.9912C135.443 43.0361 135.287 43.0586 135.137 43.0586C134.59 43.0586 134.316 42.7568 134.316 42.1533V40.3574H133.795V39.8301H134.316V39.0596H135.028Z" fill="#98A9B5"/>
<path d="M137.53 43.0586C137.079 43.0586 136.713 42.917 136.432 42.6338C136.152 42.3486 136.013 41.9697 136.013 41.4971V41.4092C136.013 41.0928 136.073 40.8105 136.194 40.5625C136.317 40.3125 136.489 40.1182 136.71 39.9795C136.931 39.8408 137.177 39.7715 137.448 39.7715C137.88 39.7715 138.213 39.9092 138.447 40.1846C138.684 40.46 138.802 40.8496 138.802 41.3535V41.6406H136.73C136.752 41.9023 136.839 42.1094 136.991 42.2617C137.146 42.4141 137.339 42.4902 137.571 42.4902C137.897 42.4902 138.163 42.3584 138.368 42.0947L138.752 42.4609C138.625 42.6504 138.455 42.7979 138.242 42.9033C138.031 43.0068 137.794 43.0586 137.53 43.0586ZM137.445 40.3428C137.25 40.3428 137.092 40.4111 136.971 40.5479C136.852 40.6846 136.775 40.875 136.742 41.1191H138.099V41.0664C138.083 40.8281 138.02 40.6484 137.908 40.5273C137.797 40.4043 137.643 40.3428 137.445 40.3428Z" fill="#98A9B5"/>
<path d="M140.495 40.873L141.099 39.8301H141.89L140.92 41.3916L141.922 43H141.137L140.504 41.916L139.874 43H139.083L140.085 41.3916L139.118 39.8301H139.903L140.495 40.873Z" fill="#98A9B5"/>
<path d="M143.267 39.0596V39.8301H143.826V40.3574H143.267V42.127C143.267 42.248 143.29 42.3359 143.337 42.3906C143.386 42.4434 143.472 42.4697 143.595 42.4697C143.677 42.4697 143.76 42.46 143.844 42.4404V42.9912C143.682 43.0361 143.525 43.0586 143.375 43.0586C142.828 43.0586 142.555 42.7568 142.555 42.1533V40.3574H142.033V39.8301H142.555V39.0596H143.267Z" fill="#98A9B5"/>
<path d="M145.733 41.3857C145.733 41.0752 145.795 40.7959 145.918 40.5479C146.041 40.2979 146.214 40.1064 146.437 39.9736C146.659 39.8389 146.915 39.7715 147.204 39.7715C147.632 39.7715 147.979 39.9092 148.244 40.1846C148.512 40.46 148.656 40.8252 148.678 41.2803L148.681 41.4473C148.681 41.7598 148.62 42.0391 148.499 42.2852C148.38 42.5312 148.208 42.7217 147.983 42.8564C147.761 42.9912 147.503 43.0586 147.21 43.0586C146.763 43.0586 146.404 42.9102 146.135 42.6133C145.867 42.3145 145.733 41.917 145.733 41.4209V41.3857ZM146.445 41.4473C146.445 41.7734 146.513 42.0293 146.647 42.2148C146.782 42.3984 146.97 42.4902 147.21 42.4902C147.45 42.4902 147.637 42.3965 147.77 42.209C147.904 42.0215 147.972 41.7471 147.972 41.3857C147.972 41.0654 147.902 40.8115 147.764 40.624C147.627 40.4365 147.44 40.3428 147.204 40.3428C146.972 40.3428 146.787 40.4355 146.65 40.6211C146.514 40.8047 146.445 41.0801 146.445 41.4473Z" fill="#98A9B5"/>
<path d="M149.533 43V40.3574H149.05V39.8301H149.533V39.54C149.533 39.1885 149.631 38.917 149.826 38.7256C150.021 38.5342 150.295 38.4385 150.646 38.4385C150.771 38.4385 150.904 38.4561 151.045 38.4912L151.027 39.0479C150.949 39.0322 150.858 39.0244 150.755 39.0244C150.415 39.0244 150.245 39.1992 150.245 39.5488V39.8301H150.89V40.3574H150.245V43H149.533Z" fill="#98A9B5"/>
<path d="M153.796 39.0596V39.8301H154.355V40.3574H153.796V42.127C153.796 42.248 153.819 42.3359 153.866 42.3906C153.915 42.4434 154.001 42.4697 154.124 42.4697C154.206 42.4697 154.289 42.46 154.373 42.4404V42.9912C154.211 43.0361 154.055 43.0586 153.904 43.0586C153.357 43.0586 153.084 42.7568 153.084 42.1533V40.3574H152.562V39.8301H153.084V39.0596H153.796Z" fill="#98A9B5"/>
<path d="M155.604 40.1758C155.836 39.9062 156.13 39.7715 156.485 39.7715C157.161 39.7715 157.504 40.1572 157.514 40.9287V43H156.802V40.9551C156.802 40.7363 156.754 40.582 156.658 40.4922C156.564 40.4004 156.426 40.3545 156.242 40.3545C155.957 40.3545 155.744 40.4814 155.604 40.7354V43H154.892V38.5H155.604V40.1758Z" fill="#98A9B5"/>
<path d="M159.632 43.0586C159.181 43.0586 158.814 42.917 158.533 42.6338C158.254 42.3486 158.114 41.9697 158.114 41.4971V41.4092C158.114 41.0928 158.175 40.8105 158.296 40.5625C158.419 40.3125 158.591 40.1182 158.812 39.9795C159.032 39.8408 159.278 39.7715 159.55 39.7715C159.981 39.7715 160.314 39.9092 160.549 40.1846C160.785 40.46 160.903 40.8496 160.903 41.3535V41.6406H158.832C158.854 41.9023 158.94 42.1094 159.093 42.2617C159.247 42.4141 159.44 42.4902 159.673 42.4902C159.999 42.4902 160.265 42.3584 160.47 42.0947L160.854 42.4609C160.727 42.6504 160.557 42.7979 160.344 42.9033C160.133 43.0068 159.896 43.0586 159.632 43.0586ZM159.547 40.3428C159.352 40.3428 159.193 40.4111 159.072 40.5479C158.953 40.6846 158.877 40.875 158.844 41.1191H160.2V41.0664C160.185 40.8281 160.121 40.6484 160.01 40.5273C159.898 40.4043 159.744 40.3428 159.547 40.3428Z" fill="#98A9B5"/>
<path d="M53.1406 50.4473C53.1406 50.9375 53.0293 51.3291 52.8066 51.6221C52.584 51.9131 52.2852 52.0586 51.9102 52.0586C51.5625 52.0586 51.2842 51.9443 51.0752 51.7158V53.2188H50.3633V48.8301H51.0195L51.0488 49.1523C51.2578 48.8984 51.542 48.7715 51.9014 48.7715C52.2881 48.7715 52.5908 48.916 52.8096 49.2051C53.0303 49.4922 53.1406 49.8916 53.1406 50.4033V50.4473ZM52.4316 50.3857C52.4316 50.0693 52.3682 49.8184 52.2412 49.6328C52.1162 49.4473 51.9365 49.3545 51.7021 49.3545C51.4111 49.3545 51.2021 49.4746 51.0752 49.7148V51.1211C51.2041 51.3672 51.415 51.4902 51.708 51.4902C51.9346 51.4902 52.1113 51.3994 52.2383 51.2178C52.3672 51.0342 52.4316 50.7568 52.4316 50.3857Z" fill="#98A9B5"/>
<path d="M55.4053 49.4805C55.3115 49.4648 55.2148 49.457 55.1152 49.457C54.7891 49.457 54.5693 49.582 54.4561 49.832V52H53.7441V48.8301H54.4238L54.4414 49.1846C54.6133 48.9092 54.8516 48.7715 55.1562 48.7715C55.2578 48.7715 55.3418 48.7852 55.4082 48.8125L55.4053 49.4805Z" fill="#98A9B5"/>
<path d="M56.6123 52H55.9004V48.8301H56.6123V52ZM55.8564 48.0068C55.8564 47.8975 55.8906 47.8066 55.959 47.7344C56.0293 47.6621 56.1289 47.626 56.2578 47.626C56.3867 47.626 56.4863 47.6621 56.5566 47.7344C56.627 47.8066 56.6621 47.8975 56.6621 48.0068C56.6621 48.1143 56.627 48.2041 56.5566 48.2764C56.4863 48.3467 56.3867 48.3818 56.2578 48.3818C56.1289 48.3818 56.0293 48.3467 55.959 48.2764C55.8906 48.2041 55.8564 48.1143 55.8564 48.0068Z" fill="#98A9B5"/>
<path d="M58.0508 48.8301L58.0713 49.1963C58.3057 48.9131 58.6133 48.7715 58.9941 48.7715C59.6543 48.7715 59.9902 49.1494 60.002 49.9053V52H59.29V49.9463C59.29 49.7451 59.2461 49.5967 59.1582 49.501C59.0723 49.4033 58.9307 49.3545 58.7334 49.3545C58.4463 49.3545 58.2324 49.4844 58.0918 49.7441V52H57.3799V48.8301H58.0508Z" fill="#98A9B5"/>
<path d="M61.6221 48.0596V48.8301H62.1816V49.3574H61.6221V51.127C61.6221 51.248 61.6455 51.3359 61.6924 51.3906C61.7412 51.4434 61.8271 51.4697 61.9502 51.4697C62.0322 51.4697 62.1152 51.46 62.1992 51.4404V51.9912C62.0371 52.0361 61.8809 52.0586 61.7305 52.0586C61.1836 52.0586 60.9102 51.7568 60.9102 51.1533V49.3574H60.3887V48.8301H60.9102V48.0596H61.6221Z" fill="#98A9B5"/>
<path d="M63.4854 52H62.7734V48.8301H63.4854V52ZM62.7295 48.0068C62.7295 47.8975 62.7637 47.8066 62.832 47.7344C62.9023 47.6621 63.002 47.626 63.1309 47.626C63.2598 47.626 63.3594 47.6621 63.4297 47.7344C63.5 47.8066 63.5352 47.8975 63.5352 48.0068C63.5352 48.1143 63.5 48.2041 63.4297 48.2764C63.3594 48.3467 63.2598 48.3818 63.1309 48.3818C63.002 48.3818 62.9023 48.3467 62.832 48.2764C62.7637 48.2041 62.7295 48.1143 62.7295 48.0068Z" fill="#98A9B5"/>
<path d="M64.9238 48.8301L64.9443 49.1963C65.1787 48.9131 65.4863 48.7715 65.8672 48.7715C66.5273 48.7715 66.8633 49.1494 66.875 49.9053V52H66.1631V49.9463C66.1631 49.7451 66.1191 49.5967 66.0312 49.501C65.9453 49.4033 65.8037 49.3545 65.6064 49.3545C65.3193 49.3545 65.1055 49.4844 64.9648 49.7441V52H64.2529V48.8301H64.9238Z" fill="#98A9B5"/>
<path d="M67.4785 50.3916C67.4785 49.8994 67.5938 49.5068 67.8242 49.2139C68.0566 48.9189 68.3643 48.7715 68.7471 48.7715C69.1084 48.7715 69.3926 48.8975 69.5996 49.1494L69.6318 48.8301H70.2734V51.9033C70.2734 52.3193 70.1436 52.6475 69.8838 52.8877C69.626 53.1279 69.2773 53.248 68.8379 53.248C68.6055 53.248 68.3779 53.1992 68.1553 53.1016C67.9346 53.0059 67.7666 52.8799 67.6514 52.7236L67.9883 52.2959C68.207 52.5557 68.4766 52.6855 68.7969 52.6855C69.0332 52.6855 69.2197 52.6211 69.3564 52.4922C69.4932 52.3652 69.5615 52.1777 69.5615 51.9297V51.7158C69.3564 51.9443 69.083 52.0586 68.7412 52.0586C68.3701 52.0586 68.0664 51.9111 67.8301 51.6162C67.5957 51.3213 67.4785 50.9131 67.4785 50.3916ZM68.1875 50.4531C68.1875 50.7715 68.252 51.0225 68.3809 51.2061C68.5117 51.3877 68.6924 51.4785 68.9229 51.4785C69.21 51.4785 69.4229 51.3555 69.5615 51.1094V49.7148C69.4268 49.4746 69.2158 49.3545 68.9287 49.3545C68.6943 49.3545 68.5117 49.4473 68.3809 49.6328C68.252 49.8184 68.1875 50.0918 68.1875 50.4531Z" fill="#98A9B5"/>
<path d="M74.3955 52C74.3643 51.9395 74.3369 51.8408 74.3135 51.7041C74.0869 51.9404 73.8096 52.0586 73.4814 52.0586C73.1631 52.0586 72.9033 51.9678 72.7021 51.7861C72.501 51.6045 72.4004 51.3799 72.4004 51.1123C72.4004 50.7744 72.5254 50.5156 72.7754 50.3359C73.0273 50.1543 73.3867 50.0635 73.8535 50.0635H74.29V49.8555C74.29 49.6914 74.2441 49.5605 74.1523 49.4629C74.0605 49.3633 73.9209 49.3135 73.7334 49.3135C73.5713 49.3135 73.4385 49.3545 73.335 49.4365C73.2314 49.5166 73.1797 49.6191 73.1797 49.7441H72.4678C72.4678 49.5703 72.5254 49.4082 72.6406 49.2578C72.7559 49.1055 72.9121 48.9863 73.1094 48.9004C73.3086 48.8145 73.5303 48.7715 73.7744 48.7715C74.1455 48.7715 74.4414 48.8652 74.6621 49.0527C74.8828 49.2383 74.9961 49.5 75.002 49.8379V51.2676C75.002 51.5527 75.042 51.7803 75.1221 51.9502V52H74.3955ZM73.6133 51.4873C73.7539 51.4873 73.8857 51.4531 74.0088 51.3848C74.1338 51.3164 74.2275 51.2246 74.29 51.1094V50.5117H73.9062C73.6426 50.5117 73.4443 50.5576 73.3115 50.6494C73.1787 50.7412 73.1123 50.8711 73.1123 51.0391C73.1123 51.1758 73.1572 51.2852 73.2471 51.3672C73.3389 51.4473 73.4609 51.4873 73.6133 51.4873Z" fill="#98A9B5"/>
<path d="M76.4082 48.8301L76.4287 49.1963C76.6631 48.9131 76.9707 48.7715 77.3516 48.7715C78.0117 48.7715 78.3477 49.1494 78.3594 49.9053V52H77.6475V49.9463C77.6475 49.7451 77.6035 49.5967 77.5156 49.501C77.4297 49.4033 77.2881 49.3545 77.0908 49.3545C76.8037 49.3545 76.5898 49.4844 76.4492 49.7441V52H75.7373V48.8301H76.4082Z" fill="#98A9B5"/>
<path d="M78.9541 50.3916C78.9541 49.9033 79.0674 49.5117 79.2939 49.2168C79.5205 48.9199 79.8242 48.7715 80.2051 48.7715C80.541 48.7715 80.8125 48.8887 81.0195 49.123V47.5H81.7314V52H81.0869L81.0518 51.6719C80.8389 51.9297 80.5547 52.0586 80.1992 52.0586C79.8281 52.0586 79.5273 51.9092 79.2969 51.6104C79.0684 51.3115 78.9541 50.9053 78.9541 50.3916ZM79.666 50.4531C79.666 50.7754 79.7275 51.0273 79.8506 51.209C79.9756 51.3887 80.1523 51.4785 80.3809 51.4785C80.6719 51.4785 80.8848 51.3486 81.0195 51.0889V49.7354C80.8887 49.4814 80.6777 49.3545 80.3867 49.3545C80.1562 49.3545 79.9785 49.4463 79.8535 49.6299C79.7285 49.8115 79.666 50.0859 79.666 50.4531Z" fill="#98A9B5"/>
<path d="M84.8604 48.0596V48.8301H85.4199V49.3574H84.8604V51.127C84.8604 51.248 84.8838 51.3359 84.9307 51.3906C84.9795 51.4434 85.0654 51.4697 85.1885 51.4697C85.2705 51.4697 85.3535 51.46 85.4375 51.4404V51.9912C85.2754 52.0361 85.1191 52.0586 84.9688 52.0586C84.4219 52.0586 84.1484 51.7568 84.1484 51.1533V49.3574H83.627V48.8301H84.1484V48.0596H84.8604Z" fill="#98A9B5"/>
<path d="M87.0752 50.9805L87.7197 48.8301H88.4785L87.2188 52.4805C87.0254 53.0137 86.6973 53.2803 86.2344 53.2803C86.1309 53.2803 86.0166 53.2627 85.8916 53.2275V52.6768L86.0264 52.6855C86.2061 52.6855 86.3408 52.6523 86.4307 52.5859C86.5225 52.5215 86.5947 52.4121 86.6475 52.2578L86.75 51.9854L85.6367 48.8301H86.4043L87.0752 50.9805Z" fill="#98A9B5"/>
<path d="M91.666 50.4473C91.666 50.9375 91.5547 51.3291 91.332 51.6221C91.1094 51.9131 90.8105 52.0586 90.4355 52.0586C90.0879 52.0586 89.8096 51.9443 89.6006 51.7158V53.2188H88.8887V48.8301H89.5449L89.5742 49.1523C89.7832 48.8984 90.0674 48.7715 90.4268 48.7715C90.8135 48.7715 91.1162 48.916 91.335 49.2051C91.5557 49.4922 91.666 49.8916 91.666 50.4033V50.4473ZM90.957 50.3857C90.957 50.0693 90.8936 49.8184 90.7666 49.6328C90.6416 49.4473 90.4619 49.3545 90.2275 49.3545C89.9365 49.3545 89.7275 49.4746 89.6006 49.7148V51.1211C89.7295 51.3672 89.9404 51.4902 90.2334 51.4902C90.46 51.4902 90.6367 51.3994 90.7637 51.2178C90.8926 51.0342 90.957 50.7568 90.957 50.3857Z" fill="#98A9B5"/>
<path d="M93.667 52.0586C93.2158 52.0586 92.8496 51.917 92.5684 51.6338C92.2891 51.3486 92.1494 50.9697 92.1494 50.4971V50.4092C92.1494 50.0928 92.21 49.8105 92.3311 49.5625C92.4541 49.3125 92.626 49.1182 92.8467 48.9795C93.0674 48.8408 93.3135 48.7715 93.585 48.7715C94.0166 48.7715 94.3496 48.9092 94.584 49.1846C94.8203 49.46 94.9385 49.8496 94.9385 50.3535V50.6406H92.8672C92.8887 50.9023 92.9756 51.1094 93.1279 51.2617C93.2822 51.4141 93.4756 51.4902 93.708 51.4902C94.0342 51.4902 94.2998 51.3584 94.5049 51.0947L94.8887 51.4609C94.7617 51.6504 94.5918 51.7979 94.3789 51.9033C94.168 52.0068 93.9307 52.0586 93.667 52.0586ZM93.582 49.3428C93.3867 49.3428 93.2285 49.4111 93.1074 49.5479C92.9883 49.6846 92.9121 49.875 92.8789 50.1191H94.2354V50.0664C94.2197 49.8281 94.1562 49.6484 94.0449 49.5273C93.9336 49.4043 93.7793 49.3428 93.582 49.3428Z" fill="#98A9B5"/>
<path d="M97.2705 51.1387C97.2705 51.0117 97.2178 50.915 97.1123 50.8486C97.0088 50.7822 96.8359 50.7236 96.5938 50.6729C96.3516 50.6221 96.1494 50.5576 95.9873 50.4795C95.6318 50.3076 95.4541 50.0586 95.4541 49.7324C95.4541 49.459 95.5693 49.2305 95.7998 49.0469C96.0303 48.8633 96.3232 48.7715 96.6787 48.7715C97.0576 48.7715 97.3633 48.8652 97.5957 49.0527C97.8301 49.2402 97.9473 49.4834 97.9473 49.7822H97.2354C97.2354 49.6455 97.1846 49.5322 97.083 49.4424C96.9814 49.3506 96.8467 49.3047 96.6787 49.3047C96.5225 49.3047 96.3945 49.3408 96.2949 49.4131C96.1973 49.4854 96.1484 49.582 96.1484 49.7031C96.1484 49.8125 96.1943 49.8975 96.2861 49.958C96.3779 50.0186 96.5635 50.0801 96.8428 50.1426C97.1221 50.2031 97.3408 50.2764 97.499 50.3623C97.6592 50.4463 97.7773 50.5479 97.8535 50.667C97.9316 50.7861 97.9707 50.9307 97.9707 51.1006C97.9707 51.3857 97.8525 51.6172 97.6162 51.7949C97.3799 51.9707 97.0703 52.0586 96.6875 52.0586C96.4277 52.0586 96.1963 52.0117 95.9932 51.918C95.79 51.8242 95.6318 51.6953 95.5186 51.5312C95.4053 51.3672 95.3486 51.1904 95.3486 51.001H96.04C96.0498 51.1689 96.1133 51.2988 96.2305 51.3906C96.3477 51.4805 96.5029 51.5254 96.6963 51.5254C96.8838 51.5254 97.0264 51.4902 97.124 51.4199C97.2217 51.3477 97.2705 51.2539 97.2705 51.1387Z" fill="#98A9B5"/>
<path d="M99.9893 52.0586C99.5381 52.0586 99.1719 51.917 98.8906 51.6338C98.6113 51.3486 98.4717 50.9697 98.4717 50.4971V50.4092C98.4717 50.0928 98.5322 49.8105 98.6533 49.5625C98.7764 49.3125 98.9482 49.1182 99.1689 48.9795C99.3896 48.8408 99.6357 48.7715 99.9072 48.7715C100.339 48.7715 100.672 48.9092 100.906 49.1846C101.143 49.46 101.261 49.8496 101.261 50.3535V50.6406H99.1895C99.2109 50.9023 99.2979 51.1094 99.4502 51.2617C99.6045 51.4141 99.7979 51.4902 100.03 51.4902C100.356 51.4902 100.622 51.3584 100.827 51.0947L101.211 51.4609C101.084 51.6504 100.914 51.7979 100.701 51.9033C100.49 52.0068 100.253 52.0586 99.9893 52.0586ZM99.9043 49.3428C99.709 49.3428 99.5508 49.4111 99.4297 49.5479C99.3105 49.6846 99.2344 49.875 99.2012 50.1191H100.558V50.0664C100.542 49.8281 100.479 49.6484 100.367 49.5273C100.256 49.4043 100.102 49.3428 99.9043 49.3428Z" fill="#98A9B5"/>
<path d="M102.708 48.0596V48.8301H103.268V49.3574H102.708V51.127C102.708 51.248 102.731 51.3359 102.778 51.3906C102.827 51.4434 102.913 51.4697 103.036 51.4697C103.118 51.4697 103.201 51.46 103.285 51.4404V51.9912C103.123 52.0361 102.967 52.0586 102.816 52.0586C102.27 52.0586 101.996 51.7568 101.996 51.1533V49.3574H101.475V48.8301H101.996V48.0596H102.708Z" fill="#98A9B5"/>
<path d="M104.706 48.0596V48.8301H105.266V49.3574H104.706V51.127C104.706 51.248 104.729 51.3359 104.776 51.3906C104.825 51.4434 104.911 51.4697 105.034 51.4697C105.116 51.4697 105.199 51.46 105.283 51.4404V51.9912C105.121 52.0361 104.965 52.0586 104.814 52.0586C104.268 52.0586 103.994 51.7568 103.994 51.1533V49.3574H103.473V48.8301H103.994V48.0596H104.706Z" fill="#98A9B5"/>
<path d="M106.569 52H105.857V48.8301H106.569V52ZM105.813 48.0068C105.813 47.8975 105.848 47.8066 105.916 47.7344C105.986 47.6621 106.086 47.626 106.215 47.626C106.344 47.626 106.443 47.6621 106.514 47.7344C106.584 47.8066 106.619 47.8975 106.619 48.0068C106.619 48.1143 106.584 48.2041 106.514 48.2764C106.443 48.3467 106.344 48.3818 106.215 48.3818C106.086 48.3818 105.986 48.3467 105.916 48.2764C105.848 48.2041 105.813 48.1143 105.813 48.0068Z" fill="#98A9B5"/>
<path d="M108.008 48.8301L108.028 49.1963C108.263 48.9131 108.57 48.7715 108.951 48.7715C109.611 48.7715 109.947 49.1494 109.959 49.9053V52H109.247V49.9463C109.247 49.7451 109.203 49.5967 109.115 49.501C109.029 49.4033 108.888 49.3545 108.69 49.3545C108.403 49.3545 108.189 49.4844 108.049 49.7441V52H107.337V48.8301H108.008Z" fill="#98A9B5"/>
<path d="M110.562 50.3916C110.562 49.8994 110.678 49.5068 110.908 49.2139C111.141 48.9189 111.448 48.7715 111.831 48.7715C112.192 48.7715 112.477 48.8975 112.684 49.1494L112.716 48.8301H113.357V51.9033C113.357 52.3193 113.228 52.6475 112.968 52.8877C112.71 53.1279 112.361 53.248 111.922 53.248C111.689 53.248 111.462 53.1992 111.239 53.1016C111.019 53.0059 110.851 52.8799 110.735 52.7236L111.072 52.2959C111.291 52.5557 111.561 52.6855 111.881 52.6855C112.117 52.6855 112.304 52.6211 112.44 52.4922C112.577 52.3652 112.646 52.1777 112.646 51.9297V51.7158C112.44 51.9443 112.167 52.0586 111.825 52.0586C111.454 52.0586 111.15 51.9111 110.914 51.6162C110.68 51.3213 110.562 50.9131 110.562 50.3916ZM111.271 50.4531C111.271 50.7715 111.336 51.0225 111.465 51.2061C111.596 51.3877 111.776 51.4785 112.007 51.4785C112.294 51.4785 112.507 51.3555 112.646 51.1094V49.7148C112.511 49.4746 112.3 49.3545 112.013 49.3545C111.778 49.3545 111.596 49.4473 111.465 49.6328C111.336 49.8184 111.271 50.0918 111.271 50.4531Z" fill="#98A9B5"/>
<path d="M116.343 52H115.631V48.8301H116.343V52ZM115.587 48.0068C115.587 47.8975 115.621 47.8066 115.689 47.7344C115.76 47.6621 115.859 47.626 115.988 47.626C116.117 47.626 116.217 47.6621 116.287 47.7344C116.357 47.8066 116.393 47.8975 116.393 48.0068C116.393 48.1143 116.357 48.2041 116.287 48.2764C116.217 48.3467 116.117 48.3818 115.988 48.3818C115.859 48.3818 115.76 48.3467 115.689 48.2764C115.621 48.2041 115.587 48.1143 115.587 48.0068Z" fill="#98A9B5"/>
<path d="M117.781 48.8301L117.802 49.1963C118.036 48.9131 118.344 48.7715 118.725 48.7715C119.385 48.7715 119.721 49.1494 119.732 49.9053V52H119.021V49.9463C119.021 49.7451 118.977 49.5967 118.889 49.501C118.803 49.4033 118.661 49.3545 118.464 49.3545C118.177 49.3545 117.963 49.4844 117.822 49.7441V52H117.11V48.8301H117.781Z" fill="#98A9B5"/>
<path d="M120.327 50.3916C120.327 49.9033 120.44 49.5117 120.667 49.2168C120.894 48.9199 121.197 48.7715 121.578 48.7715C121.914 48.7715 122.186 48.8887 122.393 49.123V47.5H123.104V52H122.46L122.425 51.6719C122.212 51.9297 121.928 52.0586 121.572 52.0586C121.201 52.0586 120.9 51.9092 120.67 51.6104C120.441 51.3115 120.327 50.9053 120.327 50.3916ZM121.039 50.4531C121.039 50.7754 121.101 51.0273 121.224 51.209C121.349 51.3887 121.525 51.4785 121.754 51.4785C122.045 51.4785 122.258 51.3486 122.393 51.0889V49.7354C122.262 49.4814 122.051 49.3545 121.76 49.3545C121.529 49.3545 121.352 49.4463 121.227 49.6299C121.102 49.8115 121.039 50.0859 121.039 50.4531Z" fill="#98A9B5"/>
<path d="M125.768 51.6895C125.559 51.9355 125.262 52.0586 124.877 52.0586C124.533 52.0586 124.272 51.958 124.095 51.7568C123.919 51.5557 123.831 51.2646 123.831 50.8838V48.8301H124.543V50.875C124.543 51.2773 124.71 51.4785 125.044 51.4785C125.39 51.4785 125.623 51.3545 125.744 51.1064V48.8301H126.456V52H125.785L125.768 51.6895Z" fill="#98A9B5"/>
<path d="M128.958 51.1387C128.958 51.0117 128.905 50.915 128.8 50.8486C128.696 50.7822 128.523 50.7236 128.281 50.6729C128.039 50.6221 127.837 50.5576 127.675 50.4795C127.319 50.3076 127.142 50.0586 127.142 49.7324C127.142 49.459 127.257 49.2305 127.487 49.0469C127.718 48.8633 128.011 48.7715 128.366 48.7715C128.745 48.7715 129.051 48.8652 129.283 49.0527C129.518 49.2402 129.635 49.4834 129.635 49.7822H128.923C128.923 49.6455 128.872 49.5322 128.771 49.4424C128.669 49.3506 128.534 49.3047 128.366 49.3047C128.21 49.3047 128.082 49.3408 127.982 49.4131C127.885 49.4854 127.836 49.582 127.836 49.7031C127.836 49.8125 127.882 49.8975 127.974 49.958C128.065 50.0186 128.251 50.0801 128.53 50.1426C128.81 50.2031 129.028 50.2764 129.187 50.3623C129.347 50.4463 129.465 50.5479 129.541 50.667C129.619 50.7861 129.658 50.9307 129.658 51.1006C129.658 51.3857 129.54 51.6172 129.304 51.7949C129.067 51.9707 128.758 52.0586 128.375 52.0586C128.115 52.0586 127.884 52.0117 127.681 51.918C127.478 51.8242 127.319 51.6953 127.206 51.5312C127.093 51.3672 127.036 51.1904 127.036 51.001H127.728C127.737 51.1689 127.801 51.2988 127.918 51.3906C128.035 51.4805 128.19 51.5254 128.384 51.5254C128.571 51.5254 128.714 51.4902 128.812 51.4199C128.909 51.3477 128.958 51.2539 128.958 51.1387Z" fill="#98A9B5"/>
<path d="M131.173 48.0596V48.8301H131.732V49.3574H131.173V51.127C131.173 51.248 131.196 51.3359 131.243 51.3906C131.292 51.4434 131.378 51.4697 131.501 51.4697C131.583 51.4697 131.666 51.46 131.75 51.4404V51.9912C131.588 52.0361 131.432 52.0586 131.281 52.0586C130.734 52.0586 130.461 51.7568 130.461 51.1533V49.3574H129.939V48.8301H130.461V48.0596H131.173Z" fill="#98A9B5"/>
<path d="M133.938 49.4805C133.845 49.4648 133.748 49.457 133.648 49.457C133.322 49.457 133.103 49.582 132.989 49.832V52H132.277V48.8301H132.957L132.975 49.1846C133.146 48.9092 133.385 48.7715 133.689 48.7715C133.791 48.7715 133.875 48.7852 133.941 48.8125L133.938 49.4805Z" fill="#98A9B5"/>
<path d="M135.55 50.9805L136.194 48.8301H136.953L135.693 52.4805C135.5 53.0137 135.172 53.2803 134.709 53.2803C134.605 53.2803 134.491 53.2627 134.366 53.2275V52.6768L134.501 52.6855C134.681 52.6855 134.815 52.6523 134.905 52.5859C134.997 52.5215 135.069 52.4121 135.122 52.2578L135.225 51.9854L134.111 48.8301H134.879L135.55 50.9805Z" fill="#98A9B5"/>
<path d="M137.316 51.25C137.449 51.25 137.552 51.2881 137.624 51.3643C137.696 51.4385 137.732 51.5322 137.732 51.6455C137.732 51.7568 137.696 51.8496 137.624 51.9238C137.552 51.9961 137.449 52.0322 137.316 52.0322C137.189 52.0322 137.089 51.9961 137.015 51.9238C136.94 51.8516 136.903 51.7588 136.903 51.6455C136.903 51.5322 136.939 51.4385 137.012 51.3643C137.084 51.2881 137.186 51.25 137.316 51.25Z" fill="#98A9B5"/>
<path d="M140.853 51.4082H142.789V52H140.111V47.7344H140.853V51.4082Z" fill="#98A9B5"/>
<path d="M143.155 50.3857C143.155 50.0752 143.217 49.7959 143.34 49.5479C143.463 49.2979 143.636 49.1064 143.858 48.9736C144.081 48.8389 144.337 48.7715 144.626 48.7715C145.054 48.7715 145.4 48.9092 145.666 49.1846C145.934 49.46 146.078 49.8252 146.1 50.2803L146.103 50.4473C146.103 50.7598 146.042 51.0391 145.921 51.2852C145.802 51.5312 145.63 51.7217 145.405 51.8564C145.183 51.9912 144.925 52.0586 144.632 52.0586C144.185 52.0586 143.826 51.9102 143.557 51.6133C143.289 51.3145 143.155 50.917 143.155 50.4209V50.3857ZM143.867 50.4473C143.867 50.7734 143.935 51.0293 144.069 51.2148C144.204 51.3984 144.392 51.4902 144.632 51.4902C144.872 51.4902 145.059 51.3965 145.191 51.209C145.326 51.0215 145.394 50.7471 145.394 50.3857C145.394 50.0654 145.324 49.8115 145.186 49.624C145.049 49.4365 144.862 49.3428 144.626 49.3428C144.394 49.3428 144.209 49.4355 144.072 49.6211C143.936 49.8047 143.867 50.0801 143.867 50.4473Z" fill="#98A9B5"/>
<path d="M148.364 49.4805C148.271 49.4648 148.174 49.457 148.074 49.457C147.748 49.457 147.528 49.582 147.415 49.832V52H146.703V48.8301H147.383L147.4 49.1846C147.572 48.9092 147.811 48.7715 148.115 48.7715C148.217 48.7715 148.301 48.7852 148.367 48.8125L148.364 49.4805Z" fill="#98A9B5"/>
<path d="M150.151 52.0586C149.7 52.0586 149.334 51.917 149.053 51.6338C148.773 51.3486 148.634 50.9697 148.634 50.4971V50.4092C148.634 50.0928 148.694 49.8105 148.815 49.5625C148.938 49.3125 149.11 49.1182 149.331 48.9795C149.552 48.8408 149.798 48.7715 150.069 48.7715C150.501 48.7715 150.834 48.9092 151.068 49.1846C151.305 49.46 151.423 49.8496 151.423 50.3535V50.6406H149.352C149.373 50.9023 149.46 51.1094 149.612 51.2617C149.767 51.4141 149.96 51.4902 150.192 51.4902C150.519 51.4902 150.784 51.3584 150.989 51.0947L151.373 51.4609C151.246 51.6504 151.076 51.7979 150.863 51.9033C150.652 52.0068 150.415 52.0586 150.151 52.0586ZM150.066 49.3428C149.871 49.3428 149.713 49.4111 149.592 49.5479C149.473 49.6846 149.396 49.875 149.363 50.1191H150.72V50.0664C150.704 49.8281 150.641 49.6484 150.529 49.5273C150.418 49.4043 150.264 49.3428 150.066 49.3428Z" fill="#98A9B5"/>
<path d="M152.647 48.8301L152.668 49.1611C152.891 48.9014 153.195 48.7715 153.582 48.7715C154.006 48.7715 154.296 48.9336 154.452 49.2578C154.683 48.9336 155.007 48.7715 155.425 48.7715C155.774 48.7715 156.034 48.8682 156.204 49.0615C156.376 49.2549 156.464 49.54 156.468 49.917V52H155.756V49.9375C155.756 49.7363 155.712 49.5889 155.624 49.4951C155.536 49.4014 155.391 49.3545 155.188 49.3545C155.025 49.3545 154.893 49.3984 154.789 49.4863C154.688 49.5723 154.616 49.6855 154.575 49.8262L154.578 52H153.866V49.9141C153.856 49.541 153.666 49.3545 153.295 49.3545C153.01 49.3545 152.808 49.4707 152.688 49.7031V52H151.977V48.8301H152.647Z" fill="#98A9B5"/>
<path d="M51.2158 61H50.4775V56.7344H51.2158V61Z" fill="#98A9B5"/>
<path d="M54.834 59.4473C54.834 59.9375 54.7227 60.3291 54.5 60.6221C54.2773 60.9131 53.9785 61.0586 53.6035 61.0586C53.2559 61.0586 52.9775 60.9443 52.7686 60.7158V62.2188H52.0566V57.8301H52.7129L52.7422 58.1523C52.9512 57.8984 53.2354 57.7715 53.5947 57.7715C53.9814 57.7715 54.2842 57.916 54.5029 58.2051C54.7236 58.4922 54.834 58.8916 54.834 59.4033V59.4473ZM54.125 59.3857C54.125 59.0693 54.0615 58.8184 53.9346 58.6328C53.8096 58.4473 53.6299 58.3545 53.3955 58.3545C53.1045 58.3545 52.8955 58.4746 52.7686 58.7148V60.1211C52.8975 60.3672 53.1084 60.4902 53.4014 60.4902C53.6279 60.4902 53.8047 60.3994 53.9316 60.2178C54.0605 60.0342 54.125 59.7568 54.125 59.3857Z" fill="#98A9B5"/>
<path d="M57.2158 60.1387C57.2158 60.0117 57.1631 59.915 57.0576 59.8486C56.9541 59.7822 56.7812 59.7236 56.5391 59.6729C56.2969 59.6221 56.0947 59.5576 55.9326 59.4795C55.5771 59.3076 55.3994 59.0586 55.3994 58.7324C55.3994 58.459 55.5146 58.2305 55.7451 58.0469C55.9756 57.8633 56.2686 57.7715 56.624 57.7715C57.0029 57.7715 57.3086 57.8652 57.541 58.0527C57.7754 58.2402 57.8926 58.4834 57.8926 58.7822H57.1807C57.1807 58.6455 57.1299 58.5322 57.0283 58.4424C56.9268 58.3506 56.792 58.3047 56.624 58.3047C56.4678 58.3047 56.3398 58.3408 56.2402 58.4131C56.1426 58.4854 56.0938 58.582 56.0938 58.7031C56.0938 58.8125 56.1396 58.8975 56.2314 58.958C56.3232 59.0186 56.5088 59.0801 56.7881 59.1426C57.0674 59.2031 57.2861 59.2764 57.4443 59.3623C57.6045 59.4463 57.7227 59.5479 57.7988 59.667C57.877 59.7861 57.916 59.9307 57.916 60.1006C57.916 60.3857 57.7979 60.6172 57.5615 60.7949C57.3252 60.9707 57.0156 61.0586 56.6328 61.0586C56.373 61.0586 56.1416 61.0117 55.9385 60.918C55.7354 60.8242 55.5771 60.6953 55.4639 60.5312C55.3506 60.3672 55.2939 60.1904 55.2939 60.001H55.9854C55.9951 60.1689 56.0586 60.2988 56.1758 60.3906C56.293 60.4805 56.4482 60.5254 56.6416 60.5254C56.8291 60.5254 56.9717 60.4902 57.0693 60.4199C57.167 60.3477 57.2158 60.2539 57.2158 60.1387Z" fill="#98A9B5"/>
<path d="M60.459 60.6895C60.25 60.9355 59.9531 61.0586 59.5684 61.0586C59.2246 61.0586 58.9639 60.958 58.7861 60.7568C58.6104 60.5557 58.5225 60.2646 58.5225 59.8838V57.8301H59.2344V59.875C59.2344 60.2773 59.4014 60.4785 59.7354 60.4785C60.0811 60.4785 60.3145 60.3545 60.4355 60.1064V57.8301H61.1475V61H60.4766L60.459 60.6895Z" fill="#98A9B5"/>
<path d="M62.542 57.8301L62.5625 58.1611C62.7852 57.9014 63.0898 57.7715 63.4766 57.7715C63.9004 57.7715 64.1904 57.9336 64.3467 58.2578C64.5771 57.9336 64.9014 57.7715 65.3193 57.7715C65.6689 57.7715 65.9287 57.8682 66.0986 58.0615C66.2705 58.2549 66.3584 58.54 66.3623 58.917V61H65.6504V58.9375C65.6504 58.7363 65.6064 58.5889 65.5186 58.4951C65.4307 58.4014 65.2852 58.3545 65.082 58.3545C64.9199 58.3545 64.7871 58.3984 64.6836 58.4863C64.582 58.5723 64.5107 58.6855 64.4697 58.8262L64.4727 61H63.7607V58.9141C63.751 58.541 63.5605 58.3545 63.1895 58.3545C62.9043 58.3545 62.7021 58.4707 62.583 58.7031V61H61.8711V57.8301H62.542Z" fill="#98A9B5"/>
<path d="M69.2891 58.1758C69.5215 57.9062 69.8154 57.7715 70.1709 57.7715C70.8467 57.7715 71.1895 58.1572 71.1992 58.9287V61H70.4873V58.9551C70.4873 58.7363 70.4395 58.582 70.3438 58.4922C70.25 58.4004 70.1113 58.3545 69.9277 58.3545C69.6426 58.3545 69.4297 58.4814 69.2891 58.7354V61H68.5771V56.5H69.2891V58.1758Z" fill="#98A9B5"/>
<path d="M73.8154 61C73.7842 60.9395 73.7568 60.8408 73.7334 60.7041C73.5068 60.9404 73.2295 61.0586 72.9014 61.0586C72.583 61.0586 72.3232 60.9678 72.1221 60.7861C71.9209 60.6045 71.8203 60.3799 71.8203 60.1123C71.8203 59.7744 71.9453 59.5156 72.1953 59.3359C72.4473 59.1543 72.8066 59.0635 73.2734 59.0635H73.71V58.8555C73.71 58.6914 73.6641 58.5605 73.5723 58.4629C73.4805 58.3633 73.3408 58.3135 73.1533 58.3135C72.9912 58.3135 72.8584 58.3545 72.7549 58.4365C72.6514 58.5166 72.5996 58.6191 72.5996 58.7441H71.8877C71.8877 58.5703 71.9453 58.4082 72.0605 58.2578C72.1758 58.1055 72.332 57.9863 72.5293 57.9004C72.7285 57.8145 72.9502 57.7715 73.1943 57.7715C73.5654 57.7715 73.8613 57.8652 74.082 58.0527C74.3027 58.2383 74.416 58.5 74.4219 58.8379V60.2676C74.4219 60.5527 74.4619 60.7803 74.542 60.9502V61H73.8154ZM73.0332 60.4873C73.1738 60.4873 73.3057 60.4531 73.4287 60.3848C73.5537 60.3164 73.6475 60.2246 73.71 60.1094V59.5117H73.3262C73.0625 59.5117 72.8643 59.5576 72.7314 59.6494C72.5986 59.7412 72.5322 59.8711 72.5322 60.0391C72.5322 60.1758 72.5771 60.2852 72.667 60.3672C72.7588 60.4473 72.8809 60.4873 73.0332 60.4873Z" fill="#98A9B5"/>
<path d="M76.9443 60.1387C76.9443 60.0117 76.8916 59.915 76.7861 59.8486C76.6826 59.7822 76.5098 59.7236 76.2676 59.6729C76.0254 59.6221 75.8232 59.5576 75.6611 59.4795C75.3057 59.3076 75.1279 59.0586 75.1279 58.7324C75.1279 58.459 75.2432 58.2305 75.4736 58.0469C75.7041 57.8633 75.9971 57.7715 76.3525 57.7715C76.7314 57.7715 77.0371 57.8652 77.2695 58.0527C77.5039 58.2402 77.6211 58.4834 77.6211 58.7822H76.9092C76.9092 58.6455 76.8584 58.5322 76.7568 58.4424C76.6553 58.3506 76.5205 58.3047 76.3525 58.3047C76.1963 58.3047 76.0684 58.3408 75.9688 58.4131C75.8711 58.4854 75.8223 58.582 75.8223 58.7031C75.8223 58.8125 75.8682 58.8975 75.96 58.958C76.0518 59.0186 76.2373 59.0801 76.5166 59.1426C76.7959 59.2031 77.0146 59.2764 77.1729 59.3623C77.333 59.4463 77.4512 59.5479 77.5273 59.667C77.6055 59.7861 77.6445 59.9307 77.6445 60.1006C77.6445 60.3857 77.5264 60.6172 77.29 60.7949C77.0537 60.9707 76.7441 61.0586 76.3613 61.0586C76.1016 61.0586 75.8701 61.0117 75.667 60.918C75.4639 60.8242 75.3057 60.6953 75.1924 60.5312C75.0791 60.3672 75.0225 60.1904 75.0225 60.001H75.7139C75.7236 60.1689 75.7871 60.2988 75.9043 60.3906C76.0215 60.4805 76.1768 60.5254 76.3701 60.5254C76.5576 60.5254 76.7002 60.4902 76.7979 60.4199C76.8955 60.3477 76.9443 60.2539 76.9443 60.1387Z" fill="#98A9B5"/>
<path d="M82.543 59.4473C82.543 59.9395 82.4326 60.3311 82.2119 60.6221C81.9932 60.9131 81.6914 61.0586 81.3066 61.0586C80.9355 61.0586 80.6465 60.9248 80.4395 60.6572L80.4043 61H79.7598V56.5H80.4717V58.1348C80.6768 57.8926 80.9531 57.7715 81.3008 57.7715C81.6875 57.7715 81.9912 57.915 82.2119 58.2021C82.4326 58.4893 82.543 58.8906 82.543 59.4062V59.4473ZM81.8311 59.3857C81.8311 59.042 81.7705 58.7842 81.6494 58.6123C81.5283 58.4404 81.3525 58.3545 81.1221 58.3545C80.8135 58.3545 80.5967 58.4893 80.4717 58.7588V60.0654C80.5986 60.3408 80.8174 60.4785 81.1279 60.4785C81.3506 60.4785 81.5225 60.3955 81.6436 60.2295C81.7646 60.0635 81.8271 59.8125 81.8311 59.4766V59.3857Z" fill="#98A9B5"/>
<path d="M84.5381 61.0586C84.0869 61.0586 83.7207 60.917 83.4395 60.6338C83.1602 60.3486 83.0205 59.9697 83.0205 59.4971V59.4092C83.0205 59.0928 83.0811 58.8105 83.2021 58.5625C83.3252 58.3125 83.4971 58.1182 83.7178 57.9795C83.9385 57.8408 84.1846 57.7715 84.4561 57.7715C84.8877 57.7715 85.2207 57.9092 85.4551 58.1846C85.6914 58.46 85.8096 58.8496 85.8096 59.3535V59.6406H83.7383C83.7598 59.9023 83.8467 60.1094 83.999 60.2617C84.1533 60.4141 84.3467 60.4902 84.5791 60.4902C84.9053 60.4902 85.1709 60.3584 85.376 60.0947L85.7598 60.4609C85.6328 60.6504 85.4629 60.7979 85.25 60.9033C85.0391 61.0068 84.8018 61.0586 84.5381 61.0586ZM84.4531 58.3428C84.2578 58.3428 84.0996 58.4111 83.9785 58.5479C83.8594 58.6846 83.7832 58.875 83.75 59.1191H85.1064V59.0664C85.0908 58.8281 85.0273 58.6484 84.916 58.5273C84.8047 58.4043 84.6504 58.3428 84.4531 58.3428Z" fill="#98A9B5"/>
<path d="M87.7607 61.0586C87.3096 61.0586 86.9434 60.917 86.6621 60.6338C86.3828 60.3486 86.2432 59.9697 86.2432 59.4971V59.4092C86.2432 59.0928 86.3037 58.8105 86.4248 58.5625C86.5479 58.3125 86.7197 58.1182 86.9404 57.9795C87.1611 57.8408 87.4072 57.7715 87.6787 57.7715C88.1104 57.7715 88.4434 57.9092 88.6777 58.1846C88.9141 58.46 89.0322 58.8496 89.0322 59.3535V59.6406H86.9609C86.9824 59.9023 87.0693 60.1094 87.2217 60.2617C87.376 60.4141 87.5693 60.4902 87.8018 60.4902C88.1279 60.4902 88.3936 60.3584 88.5986 60.0947L88.9824 60.4609C88.8555 60.6504 88.6855 60.7979 88.4727 60.9033C88.2617 61.0068 88.0244 61.0586 87.7607 61.0586ZM87.6758 58.3428C87.4805 58.3428 87.3223 58.4111 87.2012 58.5479C87.082 58.6846 87.0059 58.875 86.9727 59.1191H88.3291V59.0664C88.3135 58.8281 88.25 58.6484 88.1387 58.5273C88.0273 58.4043 87.873 58.3428 87.6758 58.3428Z" fill="#98A9B5"/>
<path d="M90.248 57.8301L90.2686 58.1963C90.5029 57.9131 90.8105 57.7715 91.1914 57.7715C91.8516 57.7715 92.1875 58.1494 92.1992 58.9053V61H91.4873V58.9463C91.4873 58.7451 91.4434 58.5967 91.3555 58.501C91.2695 58.4033 91.1279 58.3545 90.9307 58.3545C90.6436 58.3545 90.4297 58.4844 90.2891 58.7441V61H89.5771V57.8301H90.248Z" fill="#98A9B5"/>
<path d="M95.3135 57.0596V57.8301H95.873V58.3574H95.3135V60.127C95.3135 60.248 95.3369 60.3359 95.3838 60.3906C95.4326 60.4434 95.5186 60.4697 95.6416 60.4697C95.7236 60.4697 95.8066 60.46 95.8906 60.4404V60.9912C95.7285 61.0361 95.5723 61.0586 95.4219 61.0586C94.875 61.0586 94.6016 60.7568 94.6016 60.1533V58.3574H94.0801V57.8301H94.6016V57.0596H95.3135Z" fill="#98A9B5"/>
<path d="M97.1211 58.1758C97.3535 57.9062 97.6475 57.7715 98.0029 57.7715C98.6787 57.7715 99.0215 58.1572 99.0312 58.9287V61H98.3193V58.9551C98.3193 58.7363 98.2715 58.582 98.1758 58.4922C98.082 58.4004 97.9434 58.3545 97.7598 58.3545C97.4746 58.3545 97.2617 58.4814 97.1211 58.7354V61H96.4092V56.5H97.1211V58.1758Z" fill="#98A9B5"/>
<path d="M101.149 61.0586C100.698 61.0586 100.332 60.917 100.051 60.6338C99.7715 60.3486 99.6318 59.9697 99.6318 59.4971V59.4092C99.6318 59.0928 99.6924 58.8105 99.8135 58.5625C99.9365 58.3125 100.108 58.1182 100.329 57.9795C100.55 57.8408 100.796 57.7715 101.067 57.7715C101.499 57.7715 101.832 57.9092 102.066 58.1846C102.303 58.46 102.421 58.8496 102.421 59.3535V59.6406H100.35C100.371 59.9023 100.458 60.1094 100.61 60.2617C100.765 60.4141 100.958 60.4902 101.19 60.4902C101.517 60.4902 101.782 60.3584 101.987 60.0947L102.371 60.4609C102.244 60.6504 102.074 60.7979 101.861 60.9033C101.65 61.0068 101.413 61.0586 101.149 61.0586ZM101.064 58.3428C100.869 58.3428 100.711 58.4111 100.59 58.5479C100.471 58.6846 100.395 58.875 100.361 59.1191H101.718V59.0664C101.702 58.8281 101.639 58.6484 101.527 58.5273C101.416 58.4043 101.262 58.3428 101.064 58.3428Z" fill="#98A9B5"/>
<path d="M105.228 61H104.516V57.8301H105.228V61ZM104.472 57.0068C104.472 56.8975 104.506 56.8066 104.574 56.7344C104.645 56.6621 104.744 56.626 104.873 56.626C105.002 56.626 105.102 56.6621 105.172 56.7344C105.242 56.8066 105.277 56.8975 105.277 57.0068C105.277 57.1143 105.242 57.2041 105.172 57.2764C105.102 57.3467 105.002 57.3818 104.873 57.3818C104.744 57.3818 104.645 57.3467 104.574 57.2764C104.506 57.2041 104.472 57.1143 104.472 57.0068Z" fill="#98A9B5"/>
<path d="M106.666 57.8301L106.687 58.1963C106.921 57.9131 107.229 57.7715 107.609 57.7715C108.27 57.7715 108.605 58.1494 108.617 58.9053V61H107.905V58.9463C107.905 58.7451 107.861 58.5967 107.773 58.501C107.688 58.4033 107.546 58.3545 107.349 58.3545C107.062 58.3545 106.848 58.4844 106.707 58.7441V61H105.995V57.8301H106.666Z" fill="#98A9B5"/>
<path d="M109.212 59.3916C109.212 58.9033 109.325 58.5117 109.552 58.2168C109.778 57.9199 110.082 57.7715 110.463 57.7715C110.799 57.7715 111.07 57.8887 111.277 58.123V56.5H111.989V61H111.345L111.31 60.6719C111.097 60.9297 110.812 61.0586 110.457 61.0586C110.086 61.0586 109.785 60.9092 109.555 60.6104C109.326 60.3115 109.212 59.9053 109.212 59.3916ZM109.924 59.4531C109.924 59.7754 109.985 60.0273 110.108 60.209C110.233 60.3887 110.41 60.4785 110.639 60.4785C110.93 60.4785 111.143 60.3486 111.277 60.0889V58.7354C111.146 58.4814 110.936 58.3545 110.645 58.3545C110.414 58.3545 110.236 58.4463 110.111 58.6299C109.986 58.8115 109.924 59.0859 109.924 59.4531Z" fill="#98A9B5"/>
<path d="M114.652 60.6895C114.443 60.9355 114.146 61.0586 113.762 61.0586C113.418 61.0586 113.157 60.958 112.979 60.7568C112.804 60.5557 112.716 60.2646 112.716 59.8838V57.8301H113.428V59.875C113.428 60.2773 113.595 60.4785 113.929 60.4785C114.274 60.4785 114.508 60.3545 114.629 60.1064V57.8301H115.341V61H114.67L114.652 60.6895Z" fill="#98A9B5"/>
<path d="M117.843 60.1387C117.843 60.0117 117.79 59.915 117.685 59.8486C117.581 59.7822 117.408 59.7236 117.166 59.6729C116.924 59.6221 116.722 59.5576 116.56 59.4795C116.204 59.3076 116.026 59.0586 116.026 58.7324C116.026 58.459 116.142 58.2305 116.372 58.0469C116.603 57.8633 116.896 57.7715 117.251 57.7715C117.63 57.7715 117.936 57.8652 118.168 58.0527C118.402 58.2402 118.52 58.4834 118.52 58.7822H117.808C117.808 58.6455 117.757 58.5322 117.655 58.4424C117.554 58.3506 117.419 58.3047 117.251 58.3047C117.095 58.3047 116.967 58.3408 116.867 58.4131C116.77 58.4854 116.721 58.582 116.721 58.7031C116.721 58.8125 116.767 58.8975 116.858 58.958C116.95 59.0186 117.136 59.0801 117.415 59.1426C117.694 59.2031 117.913 59.2764 118.071 59.3623C118.231 59.4463 118.35 59.5479 118.426 59.667C118.504 59.7861 118.543 59.9307 118.543 60.1006C118.543 60.3857 118.425 60.6172 118.188 60.7949C117.952 60.9707 117.643 61.0586 117.26 61.0586C117 61.0586 116.769 61.0117 116.565 60.918C116.362 60.8242 116.204 60.6953 116.091 60.5312C115.978 60.3672 115.921 60.1904 115.921 60.001H116.612C116.622 60.1689 116.686 60.2988 116.803 60.3906C116.92 60.4805 117.075 60.5254 117.269 60.5254C117.456 60.5254 117.599 60.4902 117.696 60.4199C117.794 60.3477 117.843 60.2539 117.843 60.1387Z" fill="#98A9B5"/>
<path d="M120.058 57.0596V57.8301H120.617V58.3574H120.058V60.127C120.058 60.248 120.081 60.3359 120.128 60.3906C120.177 60.4434 120.263 60.4697 120.386 60.4697C120.468 60.4697 120.551 60.46 120.635 60.4404V60.9912C120.473 61.0361 120.316 61.0586 120.166 61.0586C119.619 61.0586 119.346 60.7568 119.346 60.1533V58.3574H118.824V57.8301H119.346V57.0596H120.058Z" fill="#98A9B5"/>
<path d="M122.823 58.4805C122.729 58.4648 122.633 58.457 122.533 58.457C122.207 58.457 121.987 58.582 121.874 58.832V61H121.162V57.8301H121.842L121.859 58.1846C122.031 57.9092 122.27 57.7715 122.574 57.7715C122.676 57.7715 122.76 57.7852 122.826 57.8125L122.823 58.4805Z" fill="#98A9B5"/>
<path d="M124.435 59.9805L125.079 57.8301H125.838L124.578 61.4805C124.385 62.0137 124.057 62.2803 123.594 62.2803C123.49 62.2803 123.376 62.2627 123.251 62.2275V61.6768L123.386 61.6855C123.565 61.6855 123.7 61.6523 123.79 61.5859C123.882 61.5215 123.954 61.4121 124.007 61.2578L124.109 60.9854L122.996 57.8301H123.764L124.435 59.9805Z" fill="#98A9B5"/>
<path d="M126.714 56.8662L126.638 58.0117H126.172V56.5H126.714V56.8662Z" fill="#98A9B5"/>
<path d="M128.817 60.1387C128.817 60.0117 128.765 59.915 128.659 59.8486C128.556 59.7822 128.383 59.7236 128.141 59.6729C127.898 59.6221 127.696 59.5576 127.534 59.4795C127.179 59.3076 127.001 59.0586 127.001 58.7324C127.001 58.459 127.116 58.2305 127.347 58.0469C127.577 57.8633 127.87 57.7715 128.226 57.7715C128.604 57.7715 128.91 57.8652 129.143 58.0527C129.377 58.2402 129.494 58.4834 129.494 58.7822H128.782C128.782 58.6455 128.731 58.5322 128.63 58.4424C128.528 58.3506 128.394 58.3047 128.226 58.3047C128.069 58.3047 127.941 58.3408 127.842 58.4131C127.744 58.4854 127.695 58.582 127.695 58.7031C127.695 58.8125 127.741 58.8975 127.833 58.958C127.925 59.0186 128.11 59.0801 128.39 59.1426C128.669 59.2031 128.888 59.2764 129.046 59.3623C129.206 59.4463 129.324 59.5479 129.4 59.667C129.479 59.7861 129.518 59.9307 129.518 60.1006C129.518 60.3857 129.399 60.6172 129.163 60.7949C128.927 60.9707 128.617 61.0586 128.234 61.0586C127.975 61.0586 127.743 61.0117 127.54 60.918C127.337 60.8242 127.179 60.6953 127.065 60.5312C126.952 60.3672 126.896 60.1904 126.896 60.001H127.587C127.597 60.1689 127.66 60.2988 127.777 60.3906C127.895 60.4805 128.05 60.5254 128.243 60.5254C128.431 60.5254 128.573 60.4902 128.671 60.4199C128.769 60.3477 128.817 60.2539 128.817 60.1387Z" fill="#98A9B5"/>
<path d="M133.411 60.1387C133.411 60.0117 133.358 59.915 133.253 59.8486C133.149 59.7822 132.977 59.7236 132.734 59.6729C132.492 59.6221 132.29 59.5576 132.128 59.4795C131.772 59.3076 131.595 59.0586 131.595 58.7324C131.595 58.459 131.71 58.2305 131.94 58.0469C132.171 57.8633 132.464 57.7715 132.819 57.7715C133.198 57.7715 133.504 57.8652 133.736 58.0527C133.971 58.2402 134.088 58.4834 134.088 58.7822H133.376C133.376 58.6455 133.325 58.5322 133.224 58.4424C133.122 58.3506 132.987 58.3047 132.819 58.3047C132.663 58.3047 132.535 58.3408 132.436 58.4131C132.338 58.4854 132.289 58.582 132.289 58.7031C132.289 58.8125 132.335 58.8975 132.427 58.958C132.519 59.0186 132.704 59.0801 132.983 59.1426C133.263 59.2031 133.481 59.2764 133.64 59.3623C133.8 59.4463 133.918 59.5479 133.994 59.667C134.072 59.7861 134.111 59.9307 134.111 60.1006C134.111 60.3857 133.993 60.6172 133.757 60.7949C133.521 60.9707 133.211 61.0586 132.828 61.0586C132.568 61.0586 132.337 61.0117 132.134 60.918C131.931 60.8242 131.772 60.6953 131.659 60.5312C131.546 60.3672 131.489 60.1904 131.489 60.001H132.181C132.19 60.1689 132.254 60.2988 132.371 60.3906C132.488 60.4805 132.644 60.5254 132.837 60.5254C133.024 60.5254 133.167 60.4902 133.265 60.4199C133.362 60.3477 133.411 60.2539 133.411 60.1387Z" fill="#98A9B5"/>
<path d="M135.626 57.0596V57.8301H136.186V58.3574H135.626V60.127C135.626 60.248 135.649 60.3359 135.696 60.3906C135.745 60.4434 135.831 60.4697 135.954 60.4697C136.036 60.4697 136.119 60.46 136.203 60.4404V60.9912C136.041 61.0361 135.885 61.0586 135.734 61.0586C135.188 61.0586 134.914 60.7568 134.914 60.1533V58.3574H134.393V57.8301H134.914V57.0596H135.626Z" fill="#98A9B5"/>
<path d="M138.626 61C138.595 60.9395 138.567 60.8408 138.544 60.7041C138.317 60.9404 138.04 61.0586 137.712 61.0586C137.394 61.0586 137.134 60.9678 136.933 60.7861C136.731 60.6045 136.631 60.3799 136.631 60.1123C136.631 59.7744 136.756 59.5156 137.006 59.3359C137.258 59.1543 137.617 59.0635 138.084 59.0635H138.521V58.8555C138.521 58.6914 138.475 58.5605 138.383 58.4629C138.291 58.3633 138.151 58.3135 137.964 58.3135C137.802 58.3135 137.669 58.3545 137.565 58.4365C137.462 58.5166 137.41 58.6191 137.41 58.7441H136.698C136.698 58.5703 136.756 58.4082 136.871 58.2578C136.986 58.1055 137.143 57.9863 137.34 57.9004C137.539 57.8145 137.761 57.7715 138.005 57.7715C138.376 57.7715 138.672 57.8652 138.893 58.0527C139.113 58.2383 139.227 58.5 139.232 58.8379V60.2676C139.232 60.5527 139.272 60.7803 139.353 60.9502V61H138.626ZM137.844 60.4873C137.984 60.4873 138.116 60.4531 138.239 60.3848C138.364 60.3164 138.458 60.2246 138.521 60.1094V59.5117H138.137C137.873 59.5117 137.675 59.5576 137.542 59.6494C137.409 59.7412 137.343 59.8711 137.343 60.0391C137.343 60.1758 137.388 60.2852 137.478 60.3672C137.569 60.4473 137.691 60.4873 137.844 60.4873Z" fill="#98A9B5"/>
<path d="M140.639 57.8301L140.659 58.1963C140.894 57.9131 141.201 57.7715 141.582 57.7715C142.242 57.7715 142.578 58.1494 142.59 58.9053V61H141.878V58.9463C141.878 58.7451 141.834 58.5967 141.746 58.501C141.66 58.4033 141.519 58.3545 141.321 58.3545C141.034 58.3545 140.82 58.4844 140.68 58.7441V61H139.968V57.8301H140.639Z" fill="#98A9B5"/>
<path d="M143.185 59.3916C143.185 58.9033 143.298 58.5117 143.524 58.2168C143.751 57.9199 144.055 57.7715 144.436 57.7715C144.771 57.7715 145.043 57.8887 145.25 58.123V56.5H145.962V61H145.317L145.282 60.6719C145.069 60.9297 144.785 61.0586 144.43 61.0586C144.059 61.0586 143.758 60.9092 143.527 60.6104C143.299 60.3115 143.185 59.9053 143.185 59.3916ZM143.896 59.4531C143.896 59.7754 143.958 60.0273 144.081 60.209C144.206 60.3887 144.383 60.4785 144.611 60.4785C144.902 60.4785 145.115 60.3486 145.25 60.0889V58.7354C145.119 58.4814 144.908 58.3545 144.617 58.3545C144.387 58.3545 144.209 58.4463 144.084 58.6299C143.959 58.8115 143.896 59.0859 143.896 59.4531Z" fill="#98A9B5"/>
<path d="M148.599 61C148.567 60.9395 148.54 60.8408 148.517 60.7041C148.29 60.9404 148.013 61.0586 147.685 61.0586C147.366 61.0586 147.106 60.9678 146.905 60.7861C146.704 60.6045 146.604 60.3799 146.604 60.1123C146.604 59.7744 146.729 59.5156 146.979 59.3359C147.23 59.1543 147.59 59.0635 148.057 59.0635H148.493V58.8555C148.493 58.6914 148.447 58.5605 148.355 58.4629C148.264 58.3633 148.124 58.3135 147.937 58.3135C147.774 58.3135 147.642 58.3545 147.538 58.4365C147.435 58.5166 147.383 58.6191 147.383 58.7441H146.671C146.671 58.5703 146.729 58.4082 146.844 58.2578C146.959 58.1055 147.115 57.9863 147.312 57.9004C147.512 57.8145 147.733 57.7715 147.978 57.7715C148.349 57.7715 148.645 57.8652 148.865 58.0527C149.086 58.2383 149.199 58.5 149.205 58.8379V60.2676C149.205 60.5527 149.245 60.7803 149.325 60.9502V61H148.599ZM147.816 60.4873C147.957 60.4873 148.089 60.4531 148.212 60.3848C148.337 60.3164 148.431 60.2246 148.493 60.1094V59.5117H148.109C147.846 59.5117 147.647 59.5576 147.515 59.6494C147.382 59.7412 147.315 59.8711 147.315 60.0391C147.315 60.1758 147.36 60.2852 147.45 60.3672C147.542 60.4473 147.664 60.4873 147.816 60.4873Z" fill="#98A9B5"/>
<path d="M151.61 58.4805C151.517 58.4648 151.42 58.457 151.32 58.457C150.994 58.457 150.774 58.582 150.661 58.832V61H149.949V57.8301H150.629L150.646 58.1846C150.818 57.9092 151.057 57.7715 151.361 57.7715C151.463 57.7715 151.547 57.7852 151.613 57.8125L151.61 58.4805Z" fill="#98A9B5"/>
<path d="M151.868 59.3916C151.868 58.9033 151.981 58.5117 152.208 58.2168C152.435 57.9199 152.738 57.7715 153.119 57.7715C153.455 57.7715 153.727 57.8887 153.934 58.123V56.5H154.646V61H154.001L153.966 60.6719C153.753 60.9297 153.469 61.0586 153.113 61.0586C152.742 61.0586 152.441 60.9092 152.211 60.6104C151.982 60.3115 151.868 59.9053 151.868 59.3916ZM152.58 59.4531C152.58 59.7754 152.642 60.0273 152.765 60.209C152.89 60.3887 153.066 60.4785 153.295 60.4785C153.586 60.4785 153.799 60.3486 153.934 60.0889V58.7354C153.803 58.4814 153.592 58.3545 153.301 58.3545C153.07 58.3545 152.893 58.4463 152.768 58.6299C152.643 58.8115 152.58 59.0859 152.58 59.4531Z" fill="#98A9B5"/>
<path d="M50.2314 68.3916C50.2314 67.9033 50.3447 67.5117 50.5713 67.2168C50.7979 66.9199 51.1016 66.7715 51.4824 66.7715C51.8184 66.7715 52.0898 66.8887 52.2969 67.123V65.5H53.0088V70H52.3643L52.3291 69.6719C52.1162 69.9297 51.832 70.0586 51.4766 70.0586C51.1055 70.0586 50.8047 69.9092 50.5742 69.6104C50.3457 69.3115 50.2314 68.9053 50.2314 68.3916ZM50.9434 68.4531C50.9434 68.7754 51.0049 69.0273 51.1279 69.209C51.2529 69.3887 51.4297 69.4785 51.6582 69.4785C51.9492 69.4785 52.1621 69.3486 52.2969 69.0889V67.7354C52.166 67.4814 51.9551 67.3545 51.6641 67.3545C51.4336 67.3545 51.2559 67.4463 51.1309 67.6299C51.0059 67.8115 50.9434 68.0859 50.9434 68.4531Z" fill="#98A9B5"/>
<path d="M55.6719 69.6895C55.4629 69.9355 55.166 70.0586 54.7812 70.0586C54.4375 70.0586 54.1768 69.958 53.999 69.7568C53.8232 69.5557 53.7354 69.2646 53.7354 68.8838V66.8301H54.4473V68.875C54.4473 69.2773 54.6143 69.4785 54.9482 69.4785C55.2939 69.4785 55.5273 69.3545 55.6484 69.1064V66.8301H56.3604V70H55.6895L55.6719 69.6895Z" fill="#98A9B5"/>
<path d="M57.7549 66.8301L57.7754 67.1611C57.998 66.9014 58.3027 66.7715 58.6895 66.7715C59.1133 66.7715 59.4033 66.9336 59.5596 67.2578C59.79 66.9336 60.1143 66.7715 60.5322 66.7715C60.8818 66.7715 61.1416 66.8682 61.3115 67.0615C61.4834 67.2549 61.5713 67.54 61.5752 67.917V70H60.8633V67.9375C60.8633 67.7363 60.8193 67.5889 60.7314 67.4951C60.6436 67.4014 60.498 67.3545 60.2949 67.3545C60.1328 67.3545 60 67.3984 59.8965 67.4863C59.7949 67.5723 59.7236 67.6855 59.6826 67.8262L59.6855 70H58.9736V67.9141C58.9639 67.541 58.7734 67.3545 58.4023 67.3545C58.1172 67.3545 57.915 67.4707 57.7959 67.7031V70H57.084V66.8301H57.7549Z" fill="#98A9B5"/>
<path d="M62.9756 66.8301L62.9961 67.1611C63.2188 66.9014 63.5234 66.7715 63.9102 66.7715C64.334 66.7715 64.624 66.9336 64.7803 67.2578C65.0107 66.9336 65.335 66.7715 65.7529 66.7715C66.1025 66.7715 66.3623 66.8682 66.5322 67.0615C66.7041 67.2549 66.792 67.54 66.7959 67.917V70H66.084V67.9375C66.084 67.7363 66.04 67.5889 65.9521 67.4951C65.8643 67.4014 65.7188 67.3545 65.5156 67.3545C65.3535 67.3545 65.2207 67.3984 65.1172 67.4863C65.0156 67.5723 64.9443 67.6855 64.9033 67.8262L64.9062 70H64.1943V67.9141C64.1846 67.541 63.9941 67.3545 63.623 67.3545C63.3379 67.3545 63.1357 67.4707 63.0166 67.7031V70H62.3047V66.8301H62.9756Z" fill="#98A9B5"/>
<path d="M68.6357 68.9805L69.2803 66.8301H70.0391L68.7793 70.4805C68.5859 71.0137 68.2578 71.2803 67.7949 71.2803C67.6914 71.2803 67.5771 71.2627 67.4521 71.2275V70.6768L67.5869 70.6855C67.7666 70.6855 67.9014 70.6523 67.9912 70.5859C68.083 70.5215 68.1553 70.4121 68.208 70.2578L68.3105 69.9854L67.1973 66.8301H67.9648L68.6357 68.9805Z" fill="#98A9B5"/>
<path d="M72.8369 66.0596V66.8301H73.3965V67.3574H72.8369V69.127C72.8369 69.248 72.8604 69.3359 72.9072 69.3906C72.9561 69.4434 73.042 69.4697 73.165 69.4697C73.2471 69.4697 73.3301 69.46 73.4141 69.4404V69.9912C73.252 70.0361 73.0957 70.0586 72.9453 70.0586C72.3984 70.0586 72.125 69.7568 72.125 69.1533V67.3574H71.6035V66.8301H72.125V66.0596H72.8369Z" fill="#98A9B5"/>
<path d="M75.3389 70.0586C74.8877 70.0586 74.5215 69.917 74.2402 69.6338C73.9609 69.3486 73.8213 68.9697 73.8213 68.4971V68.4092C73.8213 68.0928 73.8818 67.8105 74.0029 67.5625C74.126 67.3125 74.2979 67.1182 74.5186 66.9795C74.7393 66.8408 74.9854 66.7715 75.2568 66.7715C75.6885 66.7715 76.0215 66.9092 76.2559 67.1846C76.4922 67.46 76.6104 67.8496 76.6104 68.3535V68.6406H74.5391C74.5605 68.9023 74.6475 69.1094 74.7998 69.2617C74.9541 69.4141 75.1475 69.4902 75.3799 69.4902C75.7061 69.4902 75.9717 69.3584 76.1768 69.0947L76.5605 69.4609C76.4336 69.6504 76.2637 69.7979 76.0508 69.9033C75.8398 70.0068 75.6025 70.0586 75.3389 70.0586ZM75.2539 67.3428C75.0586 67.3428 74.9004 67.4111 74.7793 67.5479C74.6602 67.6846 74.584 67.875 74.5508 68.1191H75.9072V68.0664C75.8916 67.8281 75.8281 67.6484 75.7168 67.5273C75.6055 67.4043 75.4512 67.3428 75.2539 67.3428Z" fill="#98A9B5"/>
<path d="M78.3037 67.873L78.9072 66.8301H79.6982L78.7285 68.3916L79.7305 70H78.9453L78.3125 68.916L77.6826 70H76.8916L77.8936 68.3916L76.9268 66.8301H77.7119L78.3037 67.873Z" fill="#98A9B5"/>
<path d="M81.0752 66.0596V66.8301H81.6348V67.3574H81.0752V69.127C81.0752 69.248 81.0986 69.3359 81.1455 69.3906C81.1943 69.4434 81.2803 69.4697 81.4033 69.4697C81.4854 69.4697 81.5684 69.46 81.6523 69.4404V69.9912C81.4902 70.0361 81.334 70.0586 81.1836 70.0586C80.6367 70.0586 80.3633 69.7568 80.3633 69.1533V67.3574H79.8418V66.8301H80.3633V66.0596H81.0752Z" fill="#98A9B5"/>
<path d="M85.0713 70.0586C84.6201 70.0586 84.2539 69.917 83.9727 69.6338C83.6934 69.3486 83.5537 68.9697 83.5537 68.4971V68.4092C83.5537 68.0928 83.6143 67.8105 83.7354 67.5625C83.8584 67.3125 84.0303 67.1182 84.251 66.9795C84.4717 66.8408 84.7178 66.7715 84.9893 66.7715C85.4209 66.7715 85.7539 66.9092 85.9883 67.1846C86.2246 67.46 86.3428 67.8496 86.3428 68.3535V68.6406H84.2715C84.293 68.9023 84.3799 69.1094 84.5322 69.2617C84.6865 69.4141 84.8799 69.4902 85.1123 69.4902C85.4385 69.4902 85.7041 69.3584 85.9092 69.0947L86.293 69.4609C86.166 69.6504 85.9961 69.7979 85.7832 69.9033C85.5723 70.0068 85.335 70.0586 85.0713 70.0586ZM84.9863 67.3428C84.791 67.3428 84.6328 67.4111 84.5117 67.5479C84.3926 67.6846 84.3164 67.875 84.2832 68.1191H85.6396V68.0664C85.624 67.8281 85.5605 67.6484 85.4492 67.5273C85.3379 67.4043 85.1836 67.3428 84.9863 67.3428Z" fill="#98A9B5"/>
<path d="M87.9746 69.0977L88.6455 66.8301H89.3809L88.2822 70H87.6641L86.5566 66.8301H87.2949L87.9746 69.0977Z" fill="#98A9B5"/>
<path d="M91.1826 70.0586C90.7314 70.0586 90.3652 69.917 90.084 69.6338C89.8047 69.3486 89.665 68.9697 89.665 68.4971V68.4092C89.665 68.0928 89.7256 67.8105 89.8467 67.5625C89.9697 67.3125 90.1416 67.1182 90.3623 66.9795C90.583 66.8408 90.8291 66.7715 91.1006 66.7715C91.5322 66.7715 91.8652 66.9092 92.0996 67.1846C92.3359 67.46 92.4541 67.8496 92.4541 68.3535V68.6406H90.3828C90.4043 68.9023 90.4912 69.1094 90.6436 69.2617C90.7979 69.4141 90.9912 69.4902 91.2236 69.4902C91.5498 69.4902 91.8154 69.3584 92.0205 69.0947L92.4043 69.4609C92.2773 69.6504 92.1074 69.7979 91.8945 69.9033C91.6836 70.0068 91.4463 70.0586 91.1826 70.0586ZM91.0977 67.3428C90.9023 67.3428 90.7441 67.4111 90.623 67.5479C90.5039 67.6846 90.4277 67.875 90.3945 68.1191H91.751V68.0664C91.7354 67.8281 91.6719 67.6484 91.5605 67.5273C91.4492 67.4043 91.2949 67.3428 91.0977 67.3428Z" fill="#98A9B5"/>
<path d="M94.6689 67.4805C94.5752 67.4648 94.4785 67.457 94.3789 67.457C94.0527 67.457 93.833 67.582 93.7197 67.832V70H93.0078V66.8301H93.6875L93.7051 67.1846C93.877 66.9092 94.1152 66.7715 94.4199 66.7715C94.5215 66.7715 94.6055 66.7852 94.6719 66.8125L94.6689 67.4805Z" fill="#98A9B5"/>
<path d="M98.3896 69.1387C98.3896 69.0117 98.3369 68.915 98.2314 68.8486C98.1279 68.7822 97.9551 68.7236 97.7129 68.6729C97.4707 68.6221 97.2686 68.5576 97.1064 68.4795C96.751 68.3076 96.5732 68.0586 96.5732 67.7324C96.5732 67.459 96.6885 67.2305 96.9189 67.0469C97.1494 66.8633 97.4424 66.7715 97.7979 66.7715C98.1768 66.7715 98.4824 66.8652 98.7148 67.0527C98.9492 67.2402 99.0664 67.4834 99.0664 67.7822H98.3545C98.3545 67.6455 98.3037 67.5322 98.2021 67.4424C98.1006 67.3506 97.9658 67.3047 97.7979 67.3047C97.6416 67.3047 97.5137 67.3408 97.4141 67.4131C97.3164 67.4854 97.2676 67.582 97.2676 67.7031C97.2676 67.8125 97.3135 67.8975 97.4053 67.958C97.4971 68.0186 97.6826 68.0801 97.9619 68.1426C98.2412 68.2031 98.46 68.2764 98.6182 68.3623C98.7783 68.4463 98.8965 68.5479 98.9727 68.667C99.0508 68.7861 99.0898 68.9307 99.0898 69.1006C99.0898 69.3857 98.9717 69.6172 98.7354 69.7949C98.499 69.9707 98.1895 70.0586 97.8066 70.0586C97.5469 70.0586 97.3154 70.0117 97.1123 69.918C96.9092 69.8242 96.751 69.6953 96.6377 69.5312C96.5244 69.3672 96.4678 69.1904 96.4678 69.001H97.1592C97.1689 69.1689 97.2324 69.2988 97.3496 69.3906C97.4668 69.4805 97.6221 69.5254 97.8154 69.5254C98.0029 69.5254 98.1455 69.4902 98.2432 69.4199C98.3408 69.3477 98.3896 69.2539 98.3896 69.1387Z" fill="#98A9B5"/>
<path d="M100.47 70H99.7578V66.8301H100.47V70ZM99.7139 66.0068C99.7139 65.8975 99.748 65.8066 99.8164 65.7344C99.8867 65.6621 99.9863 65.626 100.115 65.626C100.244 65.626 100.344 65.6621 100.414 65.7344C100.484 65.8066 100.52 65.8975 100.52 66.0068C100.52 66.1143 100.484 66.2041 100.414 66.2764C100.344 66.3467 100.244 66.3818 100.115 66.3818C99.9863 66.3818 99.8867 66.3467 99.8164 66.2764C99.748 66.2041 99.7139 66.1143 99.7139 66.0068Z" fill="#98A9B5"/>
<path d="M101.908 66.8301L101.929 67.1963C102.163 66.9131 102.471 66.7715 102.852 66.7715C103.512 66.7715 103.848 67.1494 103.859 67.9053V70H103.147V67.9463C103.147 67.7451 103.104 67.5967 103.016 67.501C102.93 67.4033 102.788 67.3545 102.591 67.3545C102.304 67.3545 102.09 67.4844 101.949 67.7441V70H101.237V66.8301H101.908Z" fill="#98A9B5"/>
<path d="M105.89 69.4902C106.067 69.4902 106.215 69.4385 106.332 69.335C106.449 69.2314 106.512 69.1035 106.52 68.9512H107.19C107.183 69.1484 107.121 69.333 107.006 69.5049C106.891 69.6748 106.734 69.8096 106.537 69.9092C106.34 70.0088 106.127 70.0586 105.898 70.0586C105.455 70.0586 105.104 69.915 104.844 69.6279C104.584 69.3408 104.454 68.9443 104.454 68.4385V68.3652C104.454 67.8828 104.583 67.4971 104.841 67.208C105.099 66.917 105.45 66.7715 105.896 66.7715C106.272 66.7715 106.579 66.8818 106.815 67.1025C107.054 67.3213 107.179 67.6094 107.19 67.9668H106.52C106.512 67.7852 106.449 67.6357 106.332 67.5186C106.217 67.4014 106.069 67.3428 105.89 67.3428C105.659 67.3428 105.481 67.4268 105.356 67.5947C105.231 67.7607 105.168 68.0137 105.166 68.3535V68.4678C105.166 68.8115 105.228 69.0684 105.351 69.2383C105.476 69.4062 105.655 69.4902 105.89 69.4902Z" fill="#98A9B5"/>
<path d="M109.124 70.0586C108.673 70.0586 108.307 69.917 108.025 69.6338C107.746 69.3486 107.606 68.9697 107.606 68.4971V68.4092C107.606 68.0928 107.667 67.8105 107.788 67.5625C107.911 67.3125 108.083 67.1182 108.304 66.9795C108.524 66.8408 108.771 66.7715 109.042 66.7715C109.474 66.7715 109.807 66.9092 110.041 67.1846C110.277 67.46 110.396 67.8496 110.396 68.3535V68.6406H108.324C108.346 68.9023 108.433 69.1094 108.585 69.2617C108.739 69.4141 108.933 69.4902 109.165 69.4902C109.491 69.4902 109.757 69.3584 109.962 69.0947L110.346 69.4609C110.219 69.6504 110.049 69.7979 109.836 69.9033C109.625 70.0068 109.388 70.0586 109.124 70.0586ZM109.039 67.3428C108.844 67.3428 108.686 67.4111 108.564 67.5479C108.445 67.6846 108.369 67.875 108.336 68.1191H109.692V68.0664C109.677 67.8281 109.613 67.6484 109.502 67.5273C109.391 67.4043 109.236 67.3428 109.039 67.3428Z" fill="#98A9B5"/>
<path d="M113.337 66.0596V66.8301H113.896V67.3574H113.337V69.127C113.337 69.248 113.36 69.3359 113.407 69.3906C113.456 69.4434 113.542 69.4697 113.665 69.4697C113.747 69.4697 113.83 69.46 113.914 69.4404V69.9912C113.752 70.0361 113.596 70.0586 113.445 70.0586C112.898 70.0586 112.625 69.7568 112.625 69.1533V67.3574H112.104V66.8301H112.625V66.0596H113.337Z" fill="#98A9B5"/>
<path d="M115.145 67.1758C115.377 66.9062 115.671 66.7715 116.026 66.7715C116.702 66.7715 117.045 67.1572 117.055 67.9287V70H116.343V67.9551C116.343 67.7363 116.295 67.582 116.199 67.4922C116.105 67.4004 115.967 67.3545 115.783 67.3545C115.498 67.3545 115.285 67.4814 115.145 67.7354V70H114.433V65.5H115.145V67.1758Z" fill="#98A9B5"/>
<path d="M119.173 70.0586C118.722 70.0586 118.355 69.917 118.074 69.6338C117.795 69.3486 117.655 68.9697 117.655 68.4971V68.4092C117.655 68.0928 117.716 67.8105 117.837 67.5625C117.96 67.3125 118.132 67.1182 118.353 66.9795C118.573 66.8408 118.819 66.7715 119.091 66.7715C119.522 66.7715 119.855 66.9092 120.09 67.1846C120.326 67.46 120.444 67.8496 120.444 68.3535V68.6406H118.373C118.395 68.9023 118.481 69.1094 118.634 69.2617C118.788 69.4141 118.981 69.4902 119.214 69.4902C119.54 69.4902 119.806 69.3584 120.011 69.0947L120.395 69.4609C120.268 69.6504 120.098 69.7979 119.885 69.9033C119.674 70.0068 119.437 70.0586 119.173 70.0586ZM119.088 67.3428C118.893 67.3428 118.734 67.4111 118.613 67.5479C118.494 67.6846 118.418 67.875 118.385 68.1191H119.741V68.0664C119.726 67.8281 119.662 67.6484 119.551 67.5273C119.439 67.4043 119.285 67.3428 119.088 67.3428Z" fill="#98A9B5"/>
<path d="M124.376 70H123.667V66.5752L122.621 66.9326V66.332L124.285 65.7197H124.376V70Z" fill="#98A9B5"/>
<path d="M126.049 67.8848L126.28 65.7344H128.571V66.3496H126.872L126.755 67.3691C126.952 67.2559 127.175 67.1992 127.423 67.1992C127.829 67.1992 128.145 67.3291 128.369 67.5889C128.596 67.8486 128.709 68.1982 128.709 68.6377C128.709 69.0713 128.584 69.417 128.334 69.6748C128.084 69.9307 127.741 70.0586 127.306 70.0586C126.915 70.0586 126.591 69.9482 126.333 69.7275C126.077 69.5049 125.938 69.2119 125.917 68.8486H126.605C126.633 69.0557 126.707 69.2148 126.828 69.3262C126.949 69.4355 127.107 69.4902 127.303 69.4902C127.521 69.4902 127.691 69.4121 127.812 69.2559C127.936 69.0996 127.997 68.8867 127.997 68.6172C127.997 68.3574 127.93 68.1523 127.795 68.002C127.66 67.8496 127.475 67.7734 127.238 67.7734C127.109 67.7734 127 67.791 126.91 67.8262C126.82 67.8594 126.723 67.9258 126.617 68.0254L126.049 67.8848Z" fill="#98A9B5"/>
<path d="M132.049 68.2041C132.049 68.8174 131.934 69.2803 131.703 69.5928C131.475 69.9033 131.126 70.0586 130.657 70.0586C130.196 70.0586 129.849 69.9072 129.614 69.6045C129.382 69.2998 129.263 68.8496 129.257 68.2539V67.5156C129.257 66.9023 129.371 66.4424 129.6 66.1357C129.83 65.8291 130.181 65.6758 130.651 65.6758C131.118 65.6758 131.466 65.8252 131.694 66.124C131.925 66.4229 132.043 66.8701 132.049 67.4658V68.2041ZM131.337 67.4072C131.337 67.0068 131.282 66.7139 131.173 66.5283C131.063 66.3408 130.89 66.2471 130.651 66.2471C130.419 66.2471 130.248 66.3359 130.139 66.5137C130.029 66.6895 129.972 66.9648 129.966 67.3398V68.3066C129.966 68.7051 130.021 69.002 130.133 69.1973C130.244 69.3926 130.419 69.4902 130.657 69.4902C130.886 69.4902 131.055 69.4004 131.164 69.2207C131.273 69.0391 131.331 68.7559 131.337 68.3711V67.4072Z" fill="#98A9B5"/>
<path d="M135.459 68.2041C135.459 68.8174 135.344 69.2803 135.113 69.5928C134.885 69.9033 134.536 70.0586 134.067 70.0586C133.606 70.0586 133.259 69.9072 133.024 69.6045C132.792 69.2998 132.673 68.8496 132.667 68.2539V67.5156C132.667 66.9023 132.781 66.4424 133.01 66.1357C133.24 65.8291 133.591 65.6758 134.062 65.6758C134.528 65.6758 134.876 65.8252 135.104 66.124C135.335 66.4229 135.453 66.8701 135.459 67.4658V68.2041ZM134.747 67.4072C134.747 67.0068 134.692 66.7139 134.583 66.5283C134.474 66.3408 134.3 66.2471 134.062 66.2471C133.829 66.2471 133.658 66.3359 133.549 66.5137C133.439 66.6895 133.382 66.9648 133.376 67.3398V68.3066C133.376 68.7051 133.432 69.002 133.543 69.1973C133.654 69.3926 133.829 69.4902 134.067 69.4902C134.296 69.4902 134.465 69.4004 134.574 69.2207C134.684 69.0391 134.741 68.7559 134.747 68.3711V67.4072Z" fill="#98A9B5"/>
<path d="M137.911 69.1387C137.911 69.0117 137.858 68.915 137.753 68.8486C137.649 68.7822 137.477 68.7236 137.234 68.6729C136.992 68.6221 136.79 68.5576 136.628 68.4795C136.272 68.3076 136.095 68.0586 136.095 67.7324C136.095 67.459 136.21 67.2305 136.44 67.0469C136.671 66.8633 136.964 66.7715 137.319 66.7715C137.698 66.7715 138.004 66.8652 138.236 67.0527C138.471 67.2402 138.588 67.4834 138.588 67.7822H137.876C137.876 67.6455 137.825 67.5322 137.724 67.4424C137.622 67.3506 137.487 67.3047 137.319 67.3047C137.163 67.3047 137.035 67.3408 136.936 67.4131C136.838 67.4854 136.789 67.582 136.789 67.7031C136.789 67.8125 136.835 67.8975 136.927 67.958C137.019 68.0186 137.204 68.0801 137.483 68.1426C137.763 68.2031 137.981 68.2764 138.14 68.3623C138.3 68.4463 138.418 68.5479 138.494 68.667C138.572 68.7861 138.611 68.9307 138.611 69.1006C138.611 69.3857 138.493 69.6172 138.257 69.7949C138.021 69.9707 137.711 70.0586 137.328 70.0586C137.068 70.0586 136.837 70.0117 136.634 69.918C136.431 69.8242 136.272 69.6953 136.159 69.5312C136.046 69.3672 135.989 69.1904 135.989 69.001H136.681C136.69 69.1689 136.754 69.2988 136.871 69.3906C136.988 69.4805 137.144 69.5254 137.337 69.5254C137.524 69.5254 137.667 69.4902 137.765 69.4199C137.862 69.3477 137.911 69.2539 137.911 69.1387Z" fill="#98A9B5"/>
</g>
<defs>
<filter id="filter0_d" x="-2" y="-8" width="224" height="172" filterUnits="userSpaceOnUse" color-interpolation-filters="sRGB">
<feFlood flood-opacity="0" result="BackgroundImageFix"/>
<feColorMatrix in="SourceAlpha" type="matrix" values="0 0 0 0 0 0 0 0 0 0 0 0 0 0 0 0 0 0 127 0" result="hardAlpha"/>
<feOffset dy="4"/>
<feGaussianBlur stdDeviation="6"/>
<feComposite in2="hardAlpha" operator="out"/>
<feColorMatrix type="matrix" values="0 0 0 0 0 0 0 0 0 0 0 0 0 0 0 0 0 0 0.08 0"/>
<feBlend mode="normal" in2="BackgroundImageFix" result="effect1_dropShadow"/>
<feBlend mode="normal" in="SourceGraphic" in2="effect1_dropShadow" result="shape"/>
</filter>
<clipPath id="clip0">
<rect width="220" height="148" fill="white"/>
</clipPath>
</defs>
</svg>
