<svg width="220" height="148" viewBox="0 0 220 148" fill="none" xmlns="http://www.w3.org/2000/svg">
<g clip-path="url(#clip0)">
<g filter="url(#filter0_d)">
<rect x="10" width="200" height="148" fill="white"/>
</g>
<g clip-path="url(#clip1)">
<rect x="50" y="9" width="16" height="3" fill="#CFD9E0"/>
<path d="M50 14H170V83H50V14Z" fill="white"/>
<path fill-rule="evenodd" clip-rule="evenodd" d="M49.5 13.5H170.5V83.5H49.5V13.5ZM50.5 14.5V82.5H169.5V14.5H50.5Z" fill="#E2E9EF"/>
<rect x="54" y="37" width="21" height="3" fill="#CFD9E0"/>
<rect x="54" y="54" width="12" height="3" fill="#CFD9E0"/>
<rect x="72" y="54" width="4" height="1" fill="#CFD9E0"/>
<rect x="84" y="54" width="4" height="1" fill="#CFD9E0"/>
<rect x="96" y="54" width="4" height="1" fill="#CFD9E0"/>
<rect x="108" y="54" width="4" height="1" fill="#CFD9E0"/>
<rect x="72" y="61" width="4" height="1" fill="#CFD9E0"/>
<rect x="84" y="61" width="4" height="1" fill="#CFD9E0"/>
<rect x="96" y="61" width="4" height="1" fill="#CFD9E0"/>
<rect x="108" y="61" width="4" height="1" fill="#CFD9E0"/>
<rect x="72" y="68" width="4" height="1" fill="#CFD9E0"/>
<rect x="84" y="68" width="4" height="1" fill="#CFD9E0"/>
<rect x="96" y="68" width="4" height="1" fill="#CFD9E0"/>
<rect x="108" y="68" width="4" height="1" fill="#CFD9E0"/>
<rect x="72" y="75" width="4" height="1" fill="#CFD9E0"/>
<rect x="84" y="75" width="4" height="1" fill="#CFD9E0"/>
<rect x="96" y="75" width="4" height="1" fill="#CFD9E0"/>
<rect x="108" y="75" width="4" height="1" fill="#CFD9E0"/>
<rect x="71" y="45" width="6" height="6" fill="#0066FF"/>
<rect x="83" y="45" width="6" height="6" fill="#CFD9E0"/>
<rect x="95" y="45" width="6" height="6" fill="#CFD9E0"/>
<rect x="107" y="45" width="6" height="6" fill="#CFD9E0"/>
<rect x="54" y="61" width="12" height="3" fill="#CFD9E0"/>
<rect x="54" y="68" width="12" height="3" fill="#CFD9E0"/>
<rect x="54" y="75" width="12" height="3" fill="#CFD9E0"/>
<rect x="81" y="37" width="21" height="3" fill="#CFD9E0"/>
<rect x="108" y="37" width="21" height="3" fill="#CFD9E0"/>
<path d="M64.1875 31H62.2188V25.9453H57.1328V31H55.1562V19.625H57.1328V24.3594H62.2188V19.625H64.1875V31Z" fill="#0B2239"/>
<path d="M71.3672 31H69.4766V21.8672L66.6875 22.8203V21.2188L71.125 19.5859H71.3672V31Z" fill="#0B2239"/>
<path d="M132.375 50.2188H128.828V60H126.867V50.2188H123.352V48.625H132.375V50.2188Z" fill="#0B2239"/>
<path d="M135.562 52.4688C136.182 51.75 136.966 51.3906 137.914 51.3906C139.716 51.3906 140.63 52.4193 140.656 54.4766V60H138.758V54.5469C138.758 53.9635 138.63 53.5521 138.375 53.3125C138.125 53.0677 137.755 52.9453 137.266 52.9453C136.505 52.9453 135.938 53.2839 135.562 53.9609V60H133.664V48H135.562V52.4688Z" fill="#0B2239"/>
<path d="M146.305 60.1562C145.102 60.1562 144.125 59.7786 143.375 59.0234C142.63 58.263 142.258 57.2526 142.258 55.9922V55.7578C142.258 54.9141 142.419 54.1615 142.742 53.5C143.07 52.8333 143.529 52.3151 144.117 51.9453C144.706 51.5755 145.362 51.3906 146.086 51.3906C147.237 51.3906 148.125 51.7578 148.75 52.4922C149.38 53.2266 149.695 54.2656 149.695 55.6094V56.375H144.172C144.229 57.0729 144.461 57.625 144.867 58.0312C145.279 58.4375 145.794 58.6406 146.414 58.6406C147.284 58.6406 147.992 58.2891 148.539 57.5859L149.562 58.5625C149.224 59.0677 148.771 59.4609 148.203 59.7422C147.641 60.0182 147.008 60.1562 146.305 60.1562ZM146.078 52.9141C145.557 52.9141 145.135 53.0964 144.812 53.4609C144.495 53.8255 144.292 54.3333 144.203 54.9844H147.82V54.8438C147.779 54.2083 147.609 53.7292 147.312 53.4062C147.016 53.0781 146.604 52.9141 146.078 52.9141Z" fill="#0B2239"/>
<path d="M123.617 70.7031C123.617 69.3802 123.919 68.3307 124.523 67.5547C125.128 66.7786 125.945 66.3906 126.977 66.3906C127.919 66.3906 128.667 66.7214 129.219 67.3828L129.328 66.5469H131.016V78.25H129.117V74.2812C128.565 74.8646 127.846 75.1562 126.961 75.1562C125.951 75.1562 125.141 74.763 124.531 73.9766C123.922 73.1849 123.617 72.0938 123.617 70.7031ZM125.516 70.8672C125.516 71.7318 125.685 72.4115 126.023 72.9062C126.367 73.3958 126.841 73.6406 127.445 73.6406C128.195 73.6406 128.753 73.3203 129.117 72.6797V68.8359C128.753 68.2214 128.201 67.9141 127.461 67.9141C126.857 67.9141 126.38 68.1562 126.031 68.6406C125.688 69.125 125.516 69.8672 125.516 70.8672Z" fill="#0B2239"/>
<path d="M138.188 74.1719C137.63 74.8281 136.839 75.1562 135.812 75.1562C134.896 75.1562 134.201 74.888 133.727 74.3516C133.258 73.8151 133.023 73.0391 133.023 72.0234V66.5469H134.922V72C134.922 73.0729 135.367 73.6094 136.258 73.6094C137.18 73.6094 137.802 73.2786 138.125 72.6172V66.5469H140.023V75H138.234L138.188 74.1719Z" fill="#0B2239"/>
<path d="M143.977 75H142.078V66.5469H143.977V75ZM141.961 64.3516C141.961 64.0599 142.052 63.8177 142.234 63.625C142.422 63.4323 142.688 63.3359 143.031 63.3359C143.375 63.3359 143.641 63.4323 143.828 63.625C144.016 63.8177 144.109 64.0599 144.109 64.3516C144.109 64.638 144.016 64.8776 143.828 65.0703C143.641 65.2578 143.375 65.3516 143.031 65.3516C142.688 65.3516 142.422 65.2578 142.234 65.0703C142.052 64.8776 141.961 64.638 141.961 64.3516Z" fill="#0B2239"/>
<path d="M149.523 73.6406C149.997 73.6406 150.391 73.5026 150.703 73.2266C151.016 72.9505 151.182 72.6094 151.203 72.2031H152.992C152.971 72.7292 152.807 73.2214 152.5 73.6797C152.193 74.1328 151.776 74.4922 151.25 74.7578C150.724 75.0234 150.156 75.1562 149.547 75.1562C148.365 75.1562 147.427 74.7734 146.734 74.0078C146.042 73.2422 145.695 72.1849 145.695 70.8359V70.6406C145.695 69.3542 146.039 68.3255 146.727 67.5547C147.414 66.7786 148.352 66.3906 149.539 66.3906C150.544 66.3906 151.362 66.6849 151.992 67.2734C152.628 67.8568 152.961 68.625 152.992 69.5781H151.203C151.182 69.0938 151.016 68.6953 150.703 68.3828C150.396 68.0703 150.003 67.9141 149.523 67.9141C148.909 67.9141 148.435 68.138 148.102 68.5859C147.768 69.0286 147.599 69.7031 147.594 70.6094V70.9141C147.594 71.8307 147.758 72.5156 148.086 72.9688C148.419 73.4167 148.898 73.6406 149.523 73.6406Z" fill="#0B2239"/>
<path d="M157.172 71.375L156.328 72.2422V75H154.43V63H156.328V69.9219L156.922 69.1797L159.258 66.5469H161.539L158.398 70.0703L161.875 75H159.68L157.172 71.375Z" fill="#0B2239"/>
<path d="M50 83H170V152H50V83Z" fill="white"/>
<path fill-rule="evenodd" clip-rule="evenodd" d="M49.5 82.5H170.5V152.5H49.5V82.5ZM50.5 83.5V151.5H169.5V83.5H50.5Z" fill="#E2E9EF"/>
<rect x="54" y="106" width="21" height="3" fill="#CFD9E0"/>
<rect x="54" y="123" width="12" height="3" fill="#CFD9E0"/>
<rect x="72" y="123" width="4" height="1" fill="#CFD9E0"/>
<rect x="84" y="123" width="4" height="1" fill="#CFD9E0"/>
<rect x="96" y="123" width="4" height="1" fill="#CFD9E0"/>
<rect x="108" y="123" width="4" height="1" fill="#CFD9E0"/>
<rect x="72" y="130" width="4" height="1" fill="#CFD9E0"/>
<rect x="84" y="130" width="4" height="1" fill="#CFD9E0"/>
<rect x="96" y="130" width="4" height="1" fill="#CFD9E0"/>
<rect x="108" y="130" width="4" height="1" fill="#CFD9E0"/>
<rect x="72" y="137" width="4" height="1" fill="#CFD9E0"/>
<rect x="84" y="137" width="4" height="1" fill="#CFD9E0"/>
<rect x="96" y="137" width="4" height="1" fill="#CFD9E0"/>
<rect x="108" y="137" width="4" height="1" fill="#CFD9E0"/>
<rect x="72" y="144" width="4" height="1" fill="#CFD9E0"/>
<rect x="84" y="144" width="4" height="1" fill="#CFD9E0"/>
<rect x="96" y="144" width="4" height="1" fill="#CFD9E0"/>
<rect x="108" y="144" width="4" height="1" fill="#CFD9E0"/>
<rect x="71" y="114" width="6" height="6" fill="#0066FF"/>
<rect x="83" y="114" width="6" height="6" fill="#CFD9E0"/>
<rect x="95" y="114" width="6" height="6" fill="#CFD9E0"/>
<rect x="107" y="114" width="6" height="6" fill="#CFD9E0"/>
<rect x="54" y="130" width="12" height="3" fill="#CFD9E0"/>
<rect x="54" y="137" width="12" height="3" fill="#CFD9E0"/>
<rect x="54" y="144" width="12" height="3" fill="#CFD9E0"/>
<rect x="81" y="106" width="21" height="3" fill="#CFD9E0"/>
<rect x="108" y="106" width="21" height="3" fill="#CFD9E0"/>
<path d="M61.6406 99H60.1641V95.209H56.3496V99H54.8672V90.4688H56.3496V94.0195H60.1641V90.4688H61.6406V99Z" fill="#0B2239"/>
<path d="M68.9062 99H63.1699V98.0215L66.0117 94.9219C66.4219 94.4648 66.7129 94.084 66.8848 93.7793C67.0605 93.4707 67.1484 93.1621 67.1484 92.8535C67.1484 92.4473 67.0332 92.1191 66.8027 91.8691C66.5762 91.6191 66.2695 91.4941 65.8828 91.4941C65.4219 91.4941 65.0645 91.6348 64.8105 91.916C64.5566 92.1973 64.4297 92.582 64.4297 93.0703H63.0059C63.0059 92.5508 63.123 92.084 63.3574 91.6699C63.5957 91.252 63.9336 90.9277 64.3711 90.6973C64.8125 90.4668 65.3203 90.3516 65.8945 90.3516C66.7227 90.3516 67.375 90.5605 67.8516 90.9785C68.332 91.3926 68.5723 91.9668 68.5723 92.7012C68.5723 93.127 68.4512 93.5742 68.209 94.043C67.9707 94.5078 67.5781 95.0371 67.0312 95.6309L64.9453 97.8633H68.9062V99Z" fill="#0B2239"/>
<path d="M130.031 120.664H127.371V128H125.9V120.664H123.264V119.469H130.031V120.664Z" fill="#0B2239"/>
<path d="M132.422 122.352C132.887 121.812 133.475 121.543 134.186 121.543C135.537 121.543 136.223 122.314 136.242 123.857V128H134.818V123.91C134.818 123.473 134.723 123.164 134.531 122.984C134.344 122.801 134.066 122.709 133.699 122.709C133.129 122.709 132.703 122.963 132.422 123.471V128H130.998V119H132.422V122.352Z" fill="#0B2239"/>
<path d="M140.479 128.117C139.576 128.117 138.844 127.834 138.281 127.268C137.723 126.697 137.443 125.939 137.443 124.994V124.818C137.443 124.186 137.564 123.621 137.807 123.125C138.053 122.625 138.396 122.236 138.838 121.959C139.279 121.682 139.771 121.543 140.314 121.543C141.178 121.543 141.844 121.818 142.312 122.369C142.785 122.92 143.021 123.699 143.021 124.707V125.281H138.879C138.922 125.805 139.096 126.219 139.4 126.523C139.709 126.828 140.096 126.98 140.561 126.98C141.213 126.98 141.744 126.717 142.154 126.189L142.922 126.922C142.668 127.301 142.328 127.596 141.902 127.807C141.48 128.014 141.006 128.117 140.479 128.117ZM140.309 122.686C139.918 122.686 139.602 122.822 139.359 123.096C139.121 123.369 138.969 123.75 138.902 124.238H141.615V124.133C141.584 123.656 141.457 123.297 141.234 123.055C141.012 122.809 140.703 122.686 140.309 122.686Z" fill="#0B2239"/>
<path d="M123.463 137.777C123.463 136.785 123.689 135.998 124.143 135.416C124.596 134.834 125.209 134.543 125.982 134.543C126.689 134.543 127.25 134.791 127.664 135.287L127.746 134.66H129.012V143.438H127.588V140.461C127.174 140.898 126.635 141.117 125.971 141.117C125.213 141.117 124.605 140.822 124.148 140.232C123.691 139.639 123.463 138.82 123.463 137.777ZM124.887 137.9C124.887 138.549 125.014 139.059 125.268 139.43C125.525 139.797 125.881 139.98 126.334 139.98C126.896 139.98 127.314 139.74 127.588 139.26V136.377C127.314 135.916 126.9 135.686 126.346 135.686C125.893 135.686 125.535 135.867 125.273 136.23C125.016 136.594 124.887 137.15 124.887 137.9Z" fill="#0B2239"/>
<path d="M134.391 140.379C133.973 140.871 133.379 141.117 132.609 141.117C131.922 141.117 131.4 140.916 131.045 140.514C130.693 140.111 130.518 139.529 130.518 138.768V134.66H131.941V138.75C131.941 139.555 132.275 139.957 132.943 139.957C133.635 139.957 134.102 139.709 134.344 139.213V134.66H135.768V141H134.426L134.391 140.379Z" fill="#0B2239"/>
<path d="M138.732 141H137.309V134.66H138.732V141ZM137.221 133.014C137.221 132.795 137.289 132.613 137.426 132.469C137.566 132.324 137.766 132.252 138.023 132.252C138.281 132.252 138.48 132.324 138.621 132.469C138.762 132.613 138.832 132.795 138.832 133.014C138.832 133.229 138.762 133.408 138.621 133.553C138.48 133.693 138.281 133.764 138.023 133.764C137.766 133.764 137.566 133.693 137.426 133.553C137.289 133.408 137.221 133.229 137.221 133.014Z" fill="#0B2239"/>
<path d="M142.893 139.98C143.248 139.98 143.543 139.877 143.777 139.67C144.012 139.463 144.137 139.207 144.152 138.902H145.494C145.479 139.297 145.355 139.666 145.125 140.01C144.895 140.35 144.582 140.619 144.188 140.818C143.793 141.018 143.367 141.117 142.91 141.117C142.023 141.117 141.32 140.83 140.801 140.256C140.281 139.682 140.021 138.889 140.021 137.877V137.73C140.021 136.766 140.279 135.994 140.795 135.416C141.311 134.834 142.014 134.543 142.904 134.543C143.658 134.543 144.271 134.764 144.744 135.205C145.221 135.643 145.471 136.219 145.494 136.934H144.152C144.137 136.57 144.012 136.271 143.777 136.037C143.547 135.803 143.252 135.686 142.893 135.686C142.432 135.686 142.076 135.854 141.826 136.189C141.576 136.521 141.449 137.027 141.445 137.707V137.936C141.445 138.623 141.568 139.137 141.814 139.477C142.064 139.812 142.424 139.98 142.893 139.98Z" fill="#0B2239"/>
<path d="M148.629 138.281L147.996 138.932V141H146.572V132H147.996V137.191L148.441 136.635L150.193 134.66H151.904L149.549 137.303L152.156 141H150.51L148.629 138.281Z" fill="#0B2239"/>
</g>
</g>
<defs>
<filter id="filter0_d" x="-2" y="-8" width="224" height="172" filterUnits="userSpaceOnUse" color-interpolation-filters="sRGB">
<feFlood flood-opacity="0" result="BackgroundImageFix"/>
<feColorMatrix in="SourceAlpha" type="matrix" values="0 0 0 0 0 0 0 0 0 0 0 0 0 0 0 0 0 0 127 0" result="hardAlpha"/>
<feOffset dy="4"/>
<feGaussianBlur stdDeviation="6"/>
<feComposite in2="hardAlpha" operator="out"/>
<feColorMatrix type="matrix" values="0 0 0 0 0 0 0 0 0 0 0 0 0 0 0 0 0 0 0.08 0"/>
<feBlend mode="normal" in2="BackgroundImageFix" result="effect1_dropShadow"/>
<feBlend mode="normal" in="SourceGraphic" in2="effect1_dropShadow" result="shape"/>
</filter>
<clipPath id="clip0">
<rect width="220" height="148" fill="white"/>
</clipPath>
<clipPath id="clip1">
<rect width="130" height="148" fill="white" transform="translate(45)"/>
</clipPath>
</defs>
</svg>
