<svg width="168" height="32" viewBox="0 0 168 32" fill="none" xmlns="http://www.w3.org/2000/svg">
<g clip-path="url(#clip0_7:4)">
<path d="M23.7144 21.1143L24.0454 20.8476C24.0411 20.5094 24.0141 20.1718 23.9644 19.8373C23.4485 16.3577 20.5322 13.6936 17.0301 13.5023C16.5282 13.4753 16.0249 13.499 15.5278 13.573C11.4777 14.1759 8.67095 17.9652 9.27236 22.0215C9.87378 26.0778 13.6585 28.888 17.7092 28.2858C17.9291 28.2531 18.1474 28.2107 18.3636 28.1586C20.5697 27.6269 22.4127 26.1187 23.3719 24.0256" fill="white"/>
<path d="M17.0076 13.7753C16.5817 10.7698 16.8386 8.03118 17.959 6.08897C18.5456 5.0724 18.9653 4.3327 19.3851 4.29036C20.3648 4.19036 20.7008 5.52397 20.8856 6.23788L21.0772 6.88711C21.3445 7.91353 21.3117 8.9062 21.2475 9.99465C21.1545 11.5703 20.5103 12.9319 19.7577 14.2772" fill="white"/>
<path d="M11.7793 15.9508C10.6449 14.8746 9.65675 13.3861 9.10221 11.8826C8.72486 10.8598 8.34236 9.95184 8.30048 8.89213V8.51635C8.27032 7.77946 7.91532 6.04241 8.88471 5.85131C9.29893 5.77022 10.3561 6.47304 11.2122 7.27508C12.8341 8.79463 13.6129 11.4256 14.084 14.3942" fill="white"/>
<path d="M26.1585 25.2166L26.0727 25.2308C25.8169 25.2923 25.696 25.2711 25.458 25.2022C24.8522 25.0264 24.4552 24.5389 24.3294 23.8095C24.2522 23.3622 24.3818 22.9995 24.4751 22.5989C24.5413 22.3142 24.5785 22.0192 24.5811 21.7432C24.5818 21.67 24.5963 21.5349 24.5943 21.4717C24.586 21.2165 24.5651 21.1006 24.7577 20.7859C24.9885 20.4085 25.1854 20.2235 25.5582 20.1337L25.5837 20.0001C25.9369 19.9206 26.1718 20.0263 26.3065 20.129C27.0343 20.6837 27.3585 22.3051 27.4307 22.5989C27.6191 23.3665 27.4799 23.8903 27.1448 24.4447C26.8949 24.8584 26.6176 25.1059 26.1585 25.2166Z" fill="white"/>
<path d="M24.0991 24.7502C23.6427 24.5311 23.2564 24.1308 23.1188 23.5926C22.9185 22.8098 23.118 21.7892 23.6038 21.1109C23.7393 20.9215 23.9408 20.7776 24.1566 20.7162" fill="white"/>
<path d="M25.0686 24.617L24.8007 27.9686C24.7988 28.1089 24.7896 28.3419 24.6874 28.4416C24.6177 28.5096 24.6413 28.6485 24.6413 28.6485C24.6413 28.6485 24.4365 28.7218 24.391 28.7213C24.0966 28.7174 24.1365 28.3069 24.1404 28.0121L24.1566 22.3939" fill="white"/>
<path d="M24.521 14.5835C24.5067 14.5974 24.4952 14.614 24.4874 14.6324C24.4795 14.6508 24.4753 14.6705 24.4751 14.6905" fill="white"/>
<path d="M24.1404 22.6871L24.2575 14.7303C24.2594 14.5875 24.2983 14.377 24.4005 14.2774C24.5027 14.1777 24.4916 14.1558 24.6343 14.1578C24.7768 14.1597 24.786 14.2367 24.8855 14.3391C24.9851 14.4414 25.049 14.6077 25.0471 14.7505L25.0485 22.272" fill="white"/>
<path d="M24.949 18.8743C24.9515 19.1341 24.9777 19.3938 25.0276 19.6488C25.5458 19.2896 26.2182 19.1971 26.839 19.3062C27.9449 19.5007 28.9014 20.242 29.9651 20.584C30.5062 20.7581 31.088 20.8398 31.6458 20.7303C31.6255 20.594 31.5014 19.4915 31.4666 19.4896C30.1199 19.4284 28.7907 19.1593 27.5263 18.6918C27.0199 18.5043 26.4979 18.2813 25.9613 18.3416C25.6699 18.3744 25.3951 18.4896 25.1247 18.6035C25.0735 18.6251 25.0197 18.6487 24.9871 18.6938C24.9505 18.7444 24.9483 18.8116 24.949 18.8743Z" fill="#813E85"/>
<path d="M25.068 18.8409C25.5755 18.5409 26.2157 18.5226 26.7923 18.6476C28.3649 18.988 30.0575 20.466 31.7342 20.0656C31.7444 19.812 31.6878 19.5045 31.5683 19.2749C31.4414 19.0312 31.4914 19.0662 31.1776 19.0357C30.9858 19.017 30.7942 18.9995 30.6029 18.9735C29.8651 18.8735 29.1402 18.6943 28.4407 18.4391C27.9132 18.2465 27.4017 18.0105 26.8563 17.8685C26.4151 17.7537 25.7827 17.6423 25.3388 17.826C25.166 17.8974 25.114 17.7626 25.0557 17.9374C25.0229 18.0359 25.114 18.8137 25.068 18.8409Z" fill="#004AA0"/>
<path d="M25.0558 17.9371C27.4015 17.254 29.3476 19.5215 31.6653 19.272C31.6372 18.9451 31.6059 18.6199 31.5858 18.2924C31.5797 18.1938 31.5684 18.0844 31.4915 18.0196C31.4325 17.9698 31.3486 17.959 31.2698 17.951C30.634 17.8868 29.9889 17.868 29.3696 17.7198C28.6363 17.5441 27.9656 17.193 27.2573 16.9426C26.549 16.6921 25.7544 16.5447 25.0368 16.7888L25.0611 17.8837L25.0558 17.9371Z" fill="#309326"/>
<path d="M26.6126 17.0341C27.434 17.2833 28.2167 17.6316 29.0353 17.8879C29.7811 18.1213 30.7776 18.4018 31.5641 18.2382C31.5762 17.9394 31.5516 17.6398 31.4906 17.3474L30.0922 17.1082C29.5022 17.0072 28.9089 16.9055 28.3467 16.7094C27.8253 16.5275 27.3371 16.2665 26.8112 16.0966C26.2852 15.9269 25.6951 15.8543 25.1762 16.0554C25.1182 16.0779 25.058 16.1063 25.0257 16.1577C24.9966 16.2038 24.9947 16.2602 24.9947 16.3136C24.9947 16.464 24.9469 16.7702 25.0291 16.9013C25.1626 17.114 25.1018 16.9738 25.3138 16.9501C25.7827 16.8976 26.1493 16.8936 26.6126 17.0341Z" fill="#FFD53A"/>
<path d="M25.1533 16.1722C25.7643 15.9802 26.4354 16.0525 27.037 16.2555C27.764 16.5008 28.4053 16.974 29.1545 17.1483C29.9356 17.3302 30.732 17.4794 31.547 17.4596L31.4622 16.3629C30.3498 16.3358 29.3021 15.9135 28.2528 15.5707C27.2034 15.228 26.0637 14.9594 24.9871 15.2441L25.0624 16.1613L25.1533 16.1722Z" fill="#FF693B"/>
<path d="M25.1382 15.423C26.0901 15.2171 27.111 15.3375 27.9742 15.7577C29.0865 16.2993 29.9554 16.6844 31.2592 16.653C31.3875 16.6499 31.2812 16.6527 31.4084 16.6338L31.2861 15.8032C30.4086 15.77 29.4956 15.7278 28.729 15.3257C28.3776 15.1413 28.0696 14.8867 27.7096 14.7181C27.0609 14.4142 26.299 14.4139 25.5782 14.5049C25.3763 14.5303 25.1476 14.5799 25.0469 14.7506C24.9171 14.971 24.9799 15.2241 25.1382 15.423Z" fill="#C62C43"/>
<path opacity="0.8" d="M12.7824 24.0603C12.8391 24.4433 13.1927 24.7078 13.5719 24.6516C13.9512 24.5951 14.2127 24.239 14.156 23.8562C14.0993 23.4734 13.7457 23.2087 13.3665 23.265C12.9871 23.3212 12.7255 23.6773 12.7824 24.0603Z" fill="#FF693B"/>
<path opacity="0.8" d="M21.2622 22.8147C21.3106 23.1987 21.0414 23.549 20.6609 23.597C20.2806 23.645 19.9328 23.3726 19.8844 22.9886C19.8359 22.6043 20.105 22.2542 20.4855 22.2062C20.8659 22.1581 21.2136 22.4304 21.262 22.8147H21.2622Z" fill="#FF693B"/>
<path d="M18.312 28.4341C18.0912 28.4874 17.8668 28.531 17.6395 28.5649C13.4762 29.1838 9.58611 26.2956 8.96814 22.1264C8.35016 17.9571 11.2349 14.0627 15.3976 13.4428C15.9086 13.3668 16.426 13.3425 16.9418 13.3702C20.5414 13.5666 23.5388 16.3049 24.0691 19.8812C24.1201 20.2253 24.148 20.5746 24.1522 20.9196L23.7596 20.9243C23.7555 20.5945 23.7291 20.2653 23.6807 19.939C23.1777 16.5466 20.3347 13.9492 16.9206 13.7628C16.4311 13.7364 15.9402 13.7595 15.4554 13.8317C11.5057 14.4189 8.77032 18.1138 9.35673 22.0686C9.94315 26.0233 13.6329 28.763 17.582 28.1758C20.0139 27.8141 22.0766 26.2616 23.103 24.022L23.4599 24.1861C22.4738 26.3375 20.5794 27.8877 18.312 28.4341Z" fill="black"/>
<path d="M20.1011 14.2774L19.7584 14.0852C20.5033 12.7539 20.9456 11.2254 21.0378 9.66496C21.1014 8.5876 20.9997 7.52665 20.7353 6.51179L20.72 6.45242C20.5839 5.92679 20.1697 4.32692 19.498 4.39567C19.3928 4.40552 18.9892 4.54255 18.2392 5.84225C17.1314 7.76243 16.7556 10.4736 17.1812 13.4758L16.7926 13.5311C16.3548 10.4422 16.7478 7.64165 17.8993 5.64553C18.5023 4.60068 19.0267 4.04786 19.4581 4.00442C20.4652 3.9016 20.91 5.61991 21.1 6.35367L21.1153 6.41242C21.3902 7.46743 21.4959 8.56948 21.4299 9.68824C21.3342 11.3076 20.8747 12.8945 20.1011 14.2774Z" fill="black"/>
<path d="M11.3207 15.6386C10.1547 14.5325 9.23721 13.1309 8.6672 11.5856C8.27938 10.5343 8.06078 9.44886 8.01766 8.35963L8.01516 8.29916C7.98407 7.54165 7.90828 5.7696 8.9047 5.57319C9.33049 5.4899 9.99253 5.86553 10.8725 6.68992C12.5396 8.25181 13.7243 10.7923 14.2085 13.8434L13.8207 13.9052C13.3502 10.9401 12.2079 8.47963 10.6043 6.97711C9.50987 5.95179 9.08439 5.93866 8.98017 5.95913C8.97423 5.96022 8.96845 5.96163 8.96267 5.96288C8.3186 6.11804 8.38548 7.74509 8.40751 8.28291L8.41001 8.344C8.45141 9.39198 8.66189 10.4367 9.03533 11.4492C9.58455 12.9383 10.4682 14.2881 11.5907 15.353L11.3207 15.6386Z" fill="black"/>
<path d="M19.0951 21.8717L18.0278 21.0793L20.4258 17.8407L21.493 18.633L19.0951 21.8717Z" fill="black"/>
<path d="M20.9819 21.5912L21.7731 20.5224L18.539 18.1212L17.7478 19.1899L20.9819 21.5912Z" fill="black"/>
<path d="M12.3172 22.8793L11.2499 22.087L13.6479 18.8484L14.7151 19.6407L12.3172 22.8793Z" fill="black"/>
<path d="M14.204 22.5989L14.9952 21.5301L11.7611 19.1288L10.9699 20.1976L14.204 22.5989Z" fill="black"/>
<path d="M14.9282 23.6511C15.0401 24.2686 15.5929 24.7715 16.2307 24.7561C16.9089 24.7395 17.2961 23.9803 17.2342 23.3843L16.8525 23.4764C16.9543 24.0623 17.5182 24.5251 18.1247 24.4214C18.7954 24.3064 19.1444 23.7072 19.1414 23.0595C19.1403 22.8061 18.7476 22.7931 18.7489 23.0465C18.7506 23.4297 18.6272 23.7792 18.2783 23.9733C17.8195 24.2286 17.3131 23.8376 17.2342 23.3843C17.1898 23.1287 16.8271 23.2323 16.8525 23.4764C16.9021 23.9542 16.5064 24.4497 16.006 24.3444C15.6373 24.2667 15.3737 23.9114 15.3099 23.5592C15.2646 23.3093 14.8832 23.4026 14.9282 23.6511Z" fill="black"/>
<path d="M26.1824 25.4363C25.9194 25.4995 25.6515 25.4956 25.4071 25.4247C24.7844 25.2441 24.2985 24.643 24.1693 23.8934C24.0899 23.4336 24.189 23.0076 24.2847 22.5957C24.3529 22.3031 24.4171 22.0267 24.4197 21.7432C24.42 21.6735 24.4187 21.6037 24.416 21.534C24.4074 21.2717 24.3994 21.0239 24.5974 20.7006C24.8347 20.3126 25.2051 20.0259 25.5882 19.9335L25.6071 19.9291C25.9702 19.8474 26.2115 19.956 26.3499 20.0617C27.0981 20.6318 27.5056 22.1668 27.5798 22.4687C27.7734 23.2576 27.6904 24.0061 27.346 24.5758C27.0893 25.0008 26.6541 25.3225 26.1824 25.4363ZM25.6801 20.3156C25.3958 20.384 25.1163 20.6046 24.9321 20.9057C24.7957 21.1287 24.8005 21.2764 24.8083 21.521C24.8105 21.591 24.8129 21.6656 24.8122 21.7467C24.8093 22.0736 24.7369 22.3842 24.6671 22.6847C24.5762 23.0756 24.4904 23.4448 24.5561 23.8262C24.6413 24.3198 24.9712 24.8887 25.5163 25.0469C25.6979 25.0995 25.891 25.1019 26.0905 25.0538C26.4626 24.9641 26.8063 24.7092 27.0101 24.3719C27.4015 23.7242 27.2962 22.96 27.1985 22.5622C26.9941 21.7293 26.579 20.7298 26.1123 20.374C26.009 20.2952 25.864 20.2738 25.6934 20.3123L25.6801 20.3156Z" fill="black"/>
<path d="M23.9155 24.8062C23.4464 24.5809 23.1236 24.1697 22.9822 23.6165C22.7763 22.8118 22.9813 21.7629 23.4807 21.0659C23.6199 20.8712 23.8271 20.7234 24.0488 20.6601L24.1563 21.0384C24.0204 21.0771 23.8871 21.1731 23.7997 21.2949C23.3702 21.8946 23.1863 22.8301 23.3625 23.5189C23.4758 23.962 23.7189 24.2758 24.0852 24.4517L23.9155 24.8062Z" fill="black"/>
<path d="M24.5646 28.9849C24.4832 29.0044 24.3984 29.0051 24.3167 28.9869C24.235 28.9687 24.1585 28.9321 24.0931 28.8799C24.0277 28.8276 23.9751 28.7612 23.9393 28.6855C23.9035 28.6099 23.8854 28.527 23.8864 28.4433L23.9721 20.5854L24.3646 20.5896L24.2791 28.448C24.2787 28.4686 24.2823 28.489 24.2898 28.5082C24.2973 28.5274 24.3085 28.5448 24.3229 28.5596C24.3372 28.5744 24.3543 28.5862 24.3732 28.5943C24.3921 28.6024 24.4124 28.6067 24.433 28.6069C24.4536 28.6073 24.474 28.6035 24.493 28.5959C24.5121 28.5883 24.5295 28.5769 24.5441 28.5625C24.5589 28.5483 24.5706 28.5312 24.5787 28.5123C24.5868 28.4935 24.5911 28.4732 24.5913 28.4527L24.6852 24.9347L25.0777 24.9451L24.9838 28.4605C24.9828 28.5323 24.9677 28.6031 24.9392 28.669C24.9107 28.7348 24.8695 28.7944 24.8179 28.8443C24.7478 28.9132 24.6602 28.9619 24.5646 28.9849Z" fill="black"/>
<path d="M24.3825 20.7859L23.9899 20.7806L24.075 14.4661C24.0758 14.3939 24.0909 14.3226 24.1194 14.2563C24.1479 14.19 24.1892 14.13 24.241 14.0797C24.2924 14.0292 24.3534 13.9894 24.4204 13.9627C24.4874 13.9359 24.559 13.9228 24.6311 13.9241C24.7777 13.926 24.9147 13.985 25.0169 14.0902C25.0674 14.1418 25.1072 14.2029 25.1338 14.27C25.1605 14.3371 25.1736 14.4088 25.1724 14.481L25.0902 20.5821L24.6976 20.5768L24.7797 14.4756C24.7801 14.4551 24.7764 14.4347 24.7688 14.4157C24.7612 14.3966 24.7499 14.3792 24.7355 14.3646C24.7212 14.3498 24.7042 14.338 24.6853 14.3299C24.6665 14.3218 24.6462 14.3176 24.6257 14.3174C24.6051 14.3171 24.5848 14.3208 24.5657 14.3284C24.5466 14.336 24.5292 14.3473 24.5145 14.3616C24.4998 14.3759 24.4881 14.393 24.48 14.4119C24.4719 14.4308 24.4676 14.4511 24.4674 14.4716L24.3825 20.7859Z" fill="black"/>
<path d="M31.5711 20.9465C30.3757 21.2346 29.542 20.7737 28.6617 20.287C28.2726 20.072 27.8702 19.8495 27.4232 19.6884C26.6846 19.422 25.6152 19.5079 24.9871 19.7979L25.0087 19.3702C25.7368 19.0343 26.7129 19.0143 27.5562 19.3184C28.0324 19.4901 28.4487 19.7202 28.8512 19.9427C29.6962 20.4098 30.432 20.8165 31.4822 20.5634L31.5083 20.557C31.4959 20.0757 31.4637 19.5873 31.4326 19.1132C31.4173 18.8787 31.4019 18.6443 31.3886 18.4102C31.3444 17.626 31.2798 16.8438 31.2104 16.0486C30.7537 16.1107 29.9851 15.9769 29.9765 15.9744C29.482 15.8255 28.9974 15.5713 28.5287 15.3255C28.2529 15.181 27.9926 15.0444 27.7307 14.9278C27.0462 14.6232 25.7433 14.3892 25.1205 14.8558L24.8854 14.541C25.6418 13.9744 27.0981 14.216 27.8902 14.5686C28.1637 14.6903 28.4418 14.8363 28.7109 14.9774C29.1634 15.2146 29.6311 15.4599 30.0895 15.598C30.5678 15.7044 31.0723 15.6602 31.5569 15.6622C31.5664 15.6622 31.5769 15.6627 31.584 15.6691C31.5917 15.676 31.5926 15.6875 31.593 15.6979C31.6276 16.5954 31.7295 17.4908 31.7806 18.3882C31.7937 18.621 31.809 18.8541 31.8244 19.0876C31.8592 19.6163 31.8951 20.1632 31.904 20.7029L31.9065 20.8518L31.764 20.8945C31.6987 20.9139 31.6344 20.9312 31.5711 20.9465Z" fill="black"/>
<path d="M12.1447 14.7303C10.9652 12.8488 10.1325 10.7711 9.68612 8.59572L10.0707 8.51634C10.5075 10.6458 11.3226 12.6796 12.4772 14.5214L12.1447 14.7303Z" fill="black"/>
<path d="M18.7409 13.9156L18.5 13.6053C18.7742 13.3917 18.8995 13.0183 18.9953 12.685C19.5339 10.8045 19.6389 8.82624 19.3022 6.89929L19.6889 6.83101C20.0364 8.80556 19.9272 10.8675 19.3726 12.7937C19.2512 13.2155 19.0908 13.6431 18.7409 13.9156Z" fill="black"/>
</g>
<path d="M52.45 25.175C51.3 25.175 50.2667 24.975 49.35 24.575C48.45 24.1583 47.7417 23.5917 47.225 22.875C46.7083 22.1417 46.4417 21.3 46.425 20.35H48.85C48.9333 21.1667 49.2667 21.8583 49.85 22.425C50.45 22.975 51.3167 23.25 52.45 23.25C53.5333 23.25 54.3833 22.9833 55 22.45C55.6333 21.9 55.95 21.2 55.95 20.35C55.95 19.6833 55.7667 19.1417 55.4 18.725C55.0333 18.3083 54.575 17.9917 54.025 17.775C53.475 17.5583 52.7333 17.325 51.8 17.075C50.65 16.775 49.725 16.475 49.025 16.175C48.3417 15.875 47.75 15.4083 47.25 14.775C46.7667 14.125 46.525 13.2583 46.525 12.175C46.525 11.225 46.7667 10.3833 47.25 9.65C47.7333 8.91667 48.4083 8.35 49.275 7.95C50.1583 7.55 51.1667 7.35 52.3 7.35C53.9333 7.35 55.2667 7.75833 56.3 8.575C57.35 9.39167 57.9417 10.475 58.075 11.825H55.575C55.4917 11.1583 55.1417 10.575 54.525 10.075C53.9083 9.55833 53.0917 9.3 52.075 9.3C51.125 9.3 50.35 9.55 49.75 10.05C49.15 10.5333 48.85 11.2167 48.85 12.1C48.85 12.7333 49.025 13.25 49.375 13.65C49.7417 14.05 50.1833 14.3583 50.7 14.575C51.2333 14.775 51.975 15.0083 52.925 15.275C54.075 15.5917 55 15.9083 55.7 16.225C56.4 16.525 57 17 57.5 17.65C58 18.2833 58.25 19.15 58.25 20.25C58.25 21.1 58.025 21.9 57.575 22.65C57.125 23.4 56.4583 24.0083 55.575 24.475C54.6917 24.9417 53.65 25.175 52.45 25.175ZM67.5729 25.225C66.2895 25.225 65.1229 24.9333 64.0729 24.35C63.0395 23.7667 62.2229 22.9417 61.6229 21.875C61.0395 20.7917 60.7479 19.5417 60.7479 18.125C60.7479 16.725 61.0479 15.4917 61.6479 14.425C62.2645 13.3417 63.0979 12.5167 64.1479 11.95C65.1979 11.3667 66.3729 11.075 67.6729 11.075C68.9729 11.075 70.1479 11.3667 71.1979 11.95C72.2479 12.5167 73.0729 13.3333 73.6729 14.4C74.2895 15.4667 74.5979 16.7083 74.5979 18.125C74.5979 19.5417 74.2812 20.7917 73.6479 21.875C73.0312 22.9417 72.1895 23.7667 71.1229 24.35C70.0562 24.9333 68.8729 25.225 67.5729 25.225ZM67.5729 23.225C68.3895 23.225 69.1562 23.0333 69.8729 22.65C70.5895 22.2667 71.1645 21.6917 71.5979 20.925C72.0479 20.1583 72.2729 19.225 72.2729 18.125C72.2729 17.025 72.0562 16.0917 71.6229 15.325C71.1895 14.5583 70.6229 13.9917 69.9229 13.625C69.2229 13.2417 68.4645 13.05 67.6479 13.05C66.8145 13.05 66.0479 13.2417 65.3479 13.625C64.6645 13.9917 64.1145 14.5583 63.6979 15.325C63.2812 16.0917 63.0729 17.025 63.0729 18.125C63.0729 19.2417 63.2729 20.1833 63.6729 20.95C64.0895 21.7167 64.6395 22.2917 65.3229 22.675C66.0062 23.0417 66.7562 23.225 67.5729 23.225ZM79.8641 6.5V25H77.5891V6.5H79.8641ZM92.4664 16.025C93.0997 16.125 93.6747 16.3833 94.1914 16.8C94.7247 17.2167 95.1414 17.7333 95.4414 18.35C95.7581 18.9667 95.9164 19.625 95.9164 20.325C95.9164 21.2083 95.6914 22.0083 95.2414 22.725C94.7914 23.425 94.1331 23.9833 93.2664 24.4C92.4164 24.8 91.4081 25 90.2414 25H83.7414V7.575H89.9914C91.1747 7.575 92.1831 7.775 93.0164 8.175C93.8497 8.55833 94.4747 9.08333 94.8914 9.75C95.3081 10.4167 95.5164 11.1667 95.5164 12C95.5164 13.0333 95.2331 13.8917 94.6664 14.575C94.1164 15.2417 93.3831 15.725 92.4664 16.025ZM86.0164 15.1H89.8414C90.9081 15.1 91.7331 14.85 92.3164 14.35C92.8997 13.85 93.1914 13.1583 93.1914 12.275C93.1914 11.3917 92.8997 10.7 92.3164 10.2C91.7331 9.7 90.8914 9.45 89.7914 9.45H86.0164V15.1ZM90.0414 23.125C91.1747 23.125 92.0581 22.8583 92.6914 22.325C93.3247 21.7917 93.6414 21.05 93.6414 20.1C93.6414 19.1333 93.3081 18.375 92.6414 17.825C91.9747 17.2583 91.0831 16.975 89.9664 16.975H86.0164V23.125H90.0414ZM111.223 11.3V25H108.948V22.975C108.515 23.675 107.907 24.225 107.123 24.625C106.357 25.0083 105.507 25.2 104.573 25.2C103.507 25.2 102.548 24.9833 101.698 24.55C100.848 24.1 100.173 23.4333 99.6734 22.55C99.1901 21.6667 98.9484 20.5917 98.9484 19.325V11.3H101.198V19.025C101.198 20.375 101.54 21.4167 102.223 22.15C102.907 22.8667 103.84 23.225 105.023 23.225C106.24 23.225 107.198 22.85 107.898 22.1C108.598 21.35 108.948 20.2583 108.948 18.825V11.3H111.223ZM121.74 11.05C123.406 11.05 124.756 11.5583 125.79 12.575C126.823 13.575 127.34 15.025 127.34 16.925V25H125.09V17.25C125.09 15.8833 124.748 14.8417 124.065 14.125C123.381 13.3917 122.448 13.025 121.265 13.025C120.065 13.025 119.106 13.4 118.39 14.15C117.69 14.9 117.34 15.9917 117.34 17.425V25H115.065V11.3H117.34V13.25C117.79 12.55 118.398 12.0083 119.165 11.625C119.948 11.2417 120.806 11.05 121.74 11.05ZM137.731 11.05C139.398 11.05 140.748 11.5583 141.781 12.575C142.814 13.575 143.331 15.025 143.331 16.925V25H141.081V17.25C141.081 15.8833 140.739 14.8417 140.056 14.125C139.373 13.3917 138.439 13.025 137.256 13.025C136.056 13.025 135.098 13.4 134.381 14.15C133.681 14.9 133.331 15.9917 133.331 17.425V25H131.056V11.3H133.331V13.25C133.781 12.55 134.389 12.0083 135.156 11.625C135.939 11.2417 136.798 11.05 137.731 11.05ZM158.847 11.3L150.597 31.45H148.247L150.947 24.85L145.422 11.3H147.947L152.247 22.4L156.497 11.3H158.847Z" fill="white"/>
<defs>
<clipPath id="clip0_7:4">
<rect width="26.6244" height="25" fill="white" transform="translate(0 5)"/>
</clipPath>
</defs>
</svg>
