<svg width="195" height="175" viewBox="0 0 195 175" fill="none" xmlns="http://www.w3.org/2000/svg">
<path d="M98 175C130.585 175 157 148.585 157 116C157 83.4152 130.585 57 98 57C65.4152 57 39 83.4152 39 116C39 148.585 65.4152 175 98 175Z" fill="#FF4500"/>
<path d="M137.353 116C137.365 116.808 137.265 117.615 137.052 118.395C136.84 119.176 136.518 119.924 136.096 120.614C135.676 121.304 135.16 121.933 134.564 122.48C133.968 123.027 133.298 123.487 132.574 123.847C132.59 124.062 132.604 124.279 132.611 124.496C132.629 124.929 132.629 125.362 132.611 125.794C132.604 126.011 132.59 126.228 132.574 126.443C132.574 139.659 117.175 150.397 98.177 150.397C79.1789 150.397 63.7799 139.659 63.7799 126.443C63.7637 126.228 63.7504 126.011 63.743 125.794C63.7253 125.362 63.7253 124.929 63.743 124.496C63.7504 124.279 63.7637 124.062 63.7799 123.847C62.6453 123.326 61.6375 122.564 60.8264 121.614C60.0152 120.665 59.42 119.55 59.082 118.348C58.7446 117.146 58.6727 115.884 58.8714 114.651C59.07 113.417 59.5345 112.242 60.2325 111.206C60.93 110.171 61.8444 109.299 62.9124 108.652C63.9803 108.005 65.1763 107.598 66.4172 107.46C67.6583 107.321 68.9148 107.453 70.0996 107.848C71.2845 108.243 72.3693 108.89 73.2789 109.746C74.9676 108.601 76.7368 107.581 78.5727 106.691C80.4091 105.803 82.3074 105.048 84.2529 104.435C86.1985 103.821 88.1868 103.35 90.2002 103.024C92.2135 102.698 94.249 102.52 96.289 102.489L100.655 82.016C100.704 81.7785 100.8 81.5543 100.937 81.3537C101.072 81.1546 101.248 80.9835 101.45 80.8522C101.654 80.721 101.881 80.631 102.12 80.5867C102.357 80.544 102.602 80.5484 102.838 80.6L117.293 83.491C118.752 80.985 121.814 79.9112 124.518 80.9555C127.221 81.9998 128.767 84.8539 128.162 87.6889C127.559 90.5238 124.984 92.5003 122.09 92.3513C119.194 92.2024 116.836 89.9722 116.526 87.09L103.9 84.435L100.065 102.843C102.08 102.886 104.09 103.075 106.079 103.406C110.06 104.07 113.925 105.305 117.554 107.073C119.367 107.955 121.113 108.967 122.78 110.1C123.979 108.949 125.485 108.17 127.117 107.857C128.748 107.542 130.436 107.706 131.977 108.33C133.517 108.953 134.844 110.009 135.798 111.37C136.753 112.731 137.292 114.339 137.353 116V116ZM78.8013 124.158C79.0993 124.874 79.5329 125.524 80.0816 126.071C80.6289 126.62 81.2793 127.054 81.9947 127.352C82.7108 127.648 83.4781 127.8 84.2529 127.8C86.6395 127.8 88.7901 126.362 89.7046 124.158C90.6176 121.953 90.1117 119.416 88.4243 117.729C86.7368 116.041 84.1998 115.535 81.9947 116.448C79.7911 117.363 78.3529 119.514 78.3529 121.9C78.3529 122.674 78.5049 123.441 78.8013 124.158V124.158ZM112.594 138.321C112.896 138.026 113.069 137.624 113.074 137.202C113.08 136.778 112.917 136.371 112.622 136.069C112.327 135.767 111.924 135.594 111.502 135.588C111.079 135.582 110.672 135.746 110.331 136.001C109.444 136.637 108.504 137.197 107.523 137.675C106.541 138.153 105.52 138.547 104.472 138.854C103.425 139.159 102.353 139.376 101.269 139.501C100.183 139.627 99.09 139.659 98 139.6C96.9114 139.649 95.8199 139.605 94.7387 139.469C93.6573 139.334 92.5894 139.107 91.5468 138.79C90.5025 138.475 89.4892 138.071 88.5142 137.584C87.5393 137.097 86.607 136.528 85.7279 135.883C85.4226 135.632 85.0347 135.504 84.6394 135.523C84.2441 135.542 83.8709 135.709 83.5907 135.988C83.3119 136.268 83.1452 136.641 83.126 137.037C83.1069 137.432 83.2352 137.82 83.4859 138.125C84.5229 138.907 85.6247 139.597 86.7796 140.19C87.9346 140.783 89.1396 141.274 90.3786 141.661C91.6176 142.047 92.8876 142.326 94.1753 142.496C95.463 142.664 96.7624 142.721 98.059 142.668C99.3555 142.721 100.655 142.664 101.943 142.496C104.522 142.156 107.023 141.376 109.338 140.19C110.493 139.597 111.595 138.907 112.632 138.125L112.594 138.321ZM111.511 128.272C112.31 128.281 113.104 128.126 113.843 127.819C114.582 127.511 115.25 127.057 115.808 126.483C116.365 125.909 116.799 125.228 117.085 124.48C117.371 123.733 117.502 122.935 117.47 122.136C117.47 119.75 116.032 117.599 113.828 116.684C111.623 115.771 109.086 116.277 107.399 117.965C105.711 119.652 105.205 122.189 106.118 124.394C107.033 126.598 109.183 128.036 111.57 128.036L111.511 128.272Z" fill="white"/>
</svg>
