<svg width="32" height="32" viewBox="0 0 32 32" fill="none" xmlns="http://www.w3.org/2000/svg">
<path d="M16 0C7.16338 0 0 7.27716 0 16.2539C0 23.8343 5.10827 30.2023 12.0185 32C12.0139 30.1216 12.0078 27.8176 12.0043 27.0997C7.38702 28.1198 6.4128 25.1104 6.4128 25.1104C5.65796 23.1616 4.56996 22.6432 4.56996 22.6432C3.06382 21.5968 4.68338 21.6181 4.68338 21.6181C6.34987 21.7369 7.22773 23.3557 7.22773 23.3557C8.70791 25.9332 11.1104 25.1879 12.0576 24.7573C12.2066 23.6679 12.6364 22.9237 13.1115 22.5028C9.42507 22.0764 5.54951 20.6308 5.54951 14.1703C5.54951 12.3296 6.19804 10.8256 7.25973 9.6448C7.08729 9.21991 6.51911 7.50507 7.42044 5.18258C7.42044 5.18258 8.81422 4.7296 11.9858 6.91093C13.3099 6.53724 14.7296 6.34987 16.1401 6.34347C17.5506 6.34987 18.9714 6.53724 20.298 6.91093C23.466 4.7296 24.8576 5.18258 24.8576 5.18258C25.7611 7.50507 25.1929 9.21991 25.0204 9.6448C26.0846 10.8256 26.7285 12.3296 26.7285 14.1703C26.7285 20.6464 22.8459 22.0718 19.1499 22.4896C19.7451 23.013 20.2756 24.0388 20.2756 25.6117C20.2756 26.8608 20.2699 29.7365 20.2645 31.9193C27.0297 30.0228 32 23.7298 32 16.2539C32 7.27716 24.8366 0 16 0Z" fill="black"/>
</svg>
