<svg width="544" height="683" viewBox="0 0 544 683" fill="none" xmlns="http://www.w3.org/2000/svg">
<g clip-path="url(#clip0_63_5)">
<path d="M387.497 22.5537C376.406 11.1004 360.71 4.89429 343.294 4.89429C325.879 4.89429 310.192 11.1004 299.091 22.5537C288.687 33.2923 282.264 48.6719 282.264 67.8512C282.408 88.3392 289.062 108.251 301.262 124.711C312.209 139.186 327.019 148.793 343.276 148.793C359.533 148.793 374.343 139.158 385.299 124.711C397.5 108.251 404.153 88.3392 404.298 67.8512C404.298 48.6357 397.91 33.2561 387.506 22.5175L387.497 22.5537Z" fill="#E30D0D"/>
<path d="M383.2 23.1781C373.185 13.3532 359.018 8.02466 343.294 8.02466C327.571 8.02466 313.439 13.3532 303.397 23.1781C294.007 32.3968 288.244 45.5962 288.244 62.0795C288.411 79.7871 294.433 96.9416 305.37 110.869C315.258 123.272 328.62 131.541 343.294 131.541C357.968 131.541 371.34 123.272 381.219 110.869C392.158 96.9425 398.183 79.788 398.354 62.0795C398.354 45.5871 392.591 32.3878 383.2 23.1781Z" fill="#FF4747"/>
<path d="M448.962 141.185L449.08 141.239C450.084 141.692 451.106 142.144 452.156 142.479C453.223 142.859 454.3 143.184 455.376 143.474C470.349 147.463 486.724 142.795 501.199 132.916C517.534 121.5 529.947 105.321 536.744 86.5873C543.385 67.8694 542.173 50.7347 535.433 36.893C528.693 23.0514 516.181 12.4485 500.294 6.81232C483.874 0.995202 467.002 1.60134 452.717 8.68501C439.318 15.3344 428.163 27.6834 421.731 45.777C415.011 65.1312 414.619 86.1203 420.609 105.712C425.712 121.761 435.337 135.015 448.962 141.167V141.185Z" fill="#FFA621"/>
<path d="M455.395 128.691L455.503 128.736C456.408 129.144 457.312 129.505 458.217 129.84C459.167 130.175 460.117 130.464 461.076 130.745C474.357 134.246 488.922 130.13 501.742 121.345C516.26 111.203 527.291 96.8232 533.325 80.173C539.223 63.5359 538.192 48.3101 532.158 35.9973C526.123 23.6846 515.077 14.2849 500.955 9.27297C486.371 4.10723 471.38 4.65004 458.679 10.9466C446.773 16.8452 436.857 27.828 431.149 43.9224C425.172 61.1222 424.82 79.7772 430.145 97.1901C434.668 111.457 443.235 123.227 455.34 128.7L455.395 128.691Z" fill="#FFD22E"/>
<path d="M448.673 144.188L442.819 149.182L448.98 151.372L455.15 153.561L453.757 145.998C452.925 145.763 452.092 145.491 451.269 145.202L451.07 145.138C450.247 144.84 449.433 144.523 448.637 144.179L448.673 144.188Z" fill="#FFA621"/>
<path d="M340.58 151.616L336.735 158.32H349.862L346.017 151.661C345.113 151.715 344.208 151.752 343.303 151.752C342.399 151.752 341.494 151.752 340.589 151.661L340.58 151.616Z" fill="#E30D0D"/>
<path d="M290.822 337.791C291.615 338.004 292.438 338.08 293.256 338.017C294.449 338.017 295.593 337.545 296.44 336.705C296.612 336.506 296.755 336.283 296.865 336.045C297.03 335.703 297.323 335.44 297.681 335.315C298.039 335.189 298.432 335.211 298.774 335.375C299.116 335.54 299.379 335.833 299.504 336.191C299.63 336.549 299.608 336.942 299.444 337.284C299.223 337.747 298.943 338.178 298.611 338.569C297.946 339.284 297.143 339.857 296.251 340.253C295.358 340.65 294.395 340.861 293.419 340.876C292.797 340.908 292.174 340.89 291.555 340.821C291.547 341.429 291.487 342.034 291.374 342.631C291.239 343.598 290.91 344.528 290.406 345.364C289.902 346.201 289.234 346.926 288.443 347.498C288.011 347.774 287.546 347.993 287.059 348.149C286.88 348.209 286.692 348.233 286.505 348.219C286.317 348.206 286.135 348.156 285.967 348.072C285.799 347.988 285.649 347.872 285.526 347.73C285.403 347.588 285.309 347.423 285.249 347.245C285.19 347.066 285.166 346.878 285.179 346.691C285.193 346.504 285.243 346.321 285.327 346.153C285.411 345.985 285.527 345.835 285.669 345.712C285.811 345.589 285.976 345.495 286.154 345.435C286.403 345.347 286.64 345.229 286.86 345.083C287.326 344.722 287.716 344.273 288.006 343.76C288.297 343.248 288.482 342.682 288.551 342.097C288.72 341.294 288.75 340.468 288.642 339.654C287.448 338.406 283.793 334.181 282.146 332.281C279.097 333.837 274.556 333.394 274.538 333.394C274.16 333.356 273.813 333.169 273.572 332.874C273.332 332.58 273.219 332.202 273.258 331.824C273.296 331.446 273.483 331.099 273.777 330.859C274.072 330.619 274.449 330.506 274.827 330.544C274.827 330.544 279.541 331.015 281.459 329.323C283.376 327.631 283.503 322.909 283.503 322.891C283.513 322.512 283.673 322.152 283.947 321.89C284.222 321.629 284.59 321.488 284.969 321.497C285.348 321.507 285.708 321.667 285.969 321.942C286.23 322.217 286.372 322.584 286.362 322.963C286.362 322.963 286.235 327.541 284.308 330.372C286 332.254 289.736 336.425 290.813 337.736L290.822 337.791Z" fill="#999999"/>
<path d="M312.173 429.01C303.931 439.866 298.241 443.186 283.006 452.215L279.097 454.531C273.597 457.797 271.986 462.8 272.982 467.812C273.68 470.982 275.122 473.94 277.188 476.443C279.411 479.226 282.183 481.524 285.331 483.191C292.65 487.045 302.086 487.326 310.608 479.898C316.434 474.832 321.618 467.432 325.987 459.76C329.623 453.274 332.847 446.567 335.641 439.676C326.521 439.522 319.808 436.501 314.932 431.941C313.962 431.03 313.056 430.053 312.218 429.019L312.173 429.01Z" fill="#999999"/>
<path d="M312.173 429.01C310.539 431.171 308.794 433.246 306.944 435.225C311.35 439.197 316.606 443.159 316.606 447.122C316.606 452.505 314.236 472.742 295.074 473.168C275.913 473.593 274.945 458.213 274.945 458.177C273.947 459.549 273.255 461.119 272.917 462.781C272.578 464.443 272.6 466.159 272.982 467.812C273.68 470.982 275.122 473.94 277.188 476.443C279.411 479.226 282.183 481.524 285.331 483.191C292.65 487.045 302.086 487.326 310.608 479.898C316.434 474.832 321.618 467.432 325.987 459.76C329.623 453.274 332.847 446.567 335.641 439.676C326.521 439.522 319.808 436.501 314.932 431.941C313.962 431.03 313.056 430.053 312.218 429.019L312.173 429.01Z" fill="#666666"/>
<path d="M236.305 314.007C233.438 315.445 231.209 317.899 230.054 320.891C228.317 325.071 228.154 330.255 229.068 335.113C230.117 340.695 232.524 346.928 235.102 353.623C240.196 366.831 245.958 381.777 243.751 397.599C244.411 397.419 245.063 397.229 245.705 397.02C245.796 396.785 245.877 396.541 245.967 396.288C246.118 395.859 246.272 395.398 246.429 394.904C253.395 372.748 247.596 356.762 242.855 343.671C241.288 339.632 239.974 335.498 238.92 331.295C238.498 329.518 238.309 327.693 238.359 325.867C238.398 324.518 238.661 323.185 239.137 321.923C238.059 319.346 237.114 316.716 236.305 314.043V314.007Z" fill="#666666"/>
<path d="M228.887 422.768C229.792 421.718 230.597 420.669 231.366 419.647C232.008 418.742 232.614 417.919 233.175 417.059C232.716 414.908 232.6 412.697 232.831 410.509C233.392 405.497 235.916 401.055 240.63 398.748C243.344 383.097 237.527 367.989 232.397 354.681C229.764 347.86 227.313 341.491 226.218 335.683C225.214 330.327 225.404 324.564 227.367 319.833C228.851 316.01 231.774 312.921 235.509 311.229C234.995 308.971 234.74 306.661 234.749 304.345C228.777 304.781 223.162 307.357 218.935 311.6C214.242 316.335 211.476 322.645 211.173 329.305C210.712 336.063 211.978 343.409 213.381 351.605C216.357 369.011 219.976 390.163 209.671 418.389C206.957 425.771 206.252 430.566 206.957 433.298C207.027 433.811 207.243 434.293 207.578 434.687C207.913 435.081 208.353 435.372 208.848 435.524C210.397 435.743 211.976 435.481 213.371 434.773C217.795 432.963 223.468 428.567 228.941 422.804L228.887 422.768Z" fill="#999999"/>
<path d="M305.56 286.939C305.351 286.531 305.134 286.133 304.917 285.744C304.619 285.211 304.293 284.668 303.949 284.125C301.691 280.408 298.408 277.421 294.495 275.521C292.951 274.808 291.278 274.413 289.578 274.36C287.877 274.308 286.184 274.598 284.598 275.214C287.185 276.499 289.736 277.928 292.297 279.439C294.387 280.642 296.476 281.845 298.63 282.976C301.09 284.252 303.397 285.572 305.532 286.939H305.56Z" fill="#666666"/>
<path d="M308.997 292.837C308.809 292.79 308.632 292.705 308.477 292.589C308.322 292.472 308.191 292.326 308.093 292.159C304.69 289.661 301.093 287.441 297.336 285.518C295.192 284.414 293.021 283.166 290.867 281.899C287.763 280.038 284.562 278.344 281.278 276.824C281.005 276.873 280.724 276.842 280.468 276.735C280.213 276.627 279.994 276.448 279.839 276.218C271 272.681 261.465 272.427 249.432 283.039C237.843 293.253 236.55 302.436 238.576 311.329C238.612 311.393 238.642 311.459 238.667 311.528C238.72 311.685 238.748 311.85 238.748 312.016C239.591 315.136 240.652 318.192 241.924 321.163C242.003 321.288 242.061 321.426 242.095 321.57C242.43 322.393 242.783 323.216 243.127 324.04C244.077 326.328 245.036 328.608 245.886 330.906C248.6 338.316 251.83 344.404 255.53 349C259.529 354.003 264.098 357.323 269.263 358.798C274.429 360.272 280.21 359.901 286.652 357.531C287.249 357.314 287.855 357.07 288.461 356.816C288.608 356.627 288.8 356.478 289.02 356.383C289.24 356.288 289.48 356.251 289.718 356.273C295.286 353.643 300.506 350.334 305.261 346.422C309.35 342.544 313.006 338.234 316.163 333.566C316.187 333.52 316.218 333.478 316.253 333.439C317.158 332.037 317.972 330.662 318.678 329.305C321.835 323.216 322.921 317.544 322.106 312.206C321.292 306.869 318.569 301.956 314.109 297.361C312.517 295.731 310.809 294.219 308.997 292.837Z" fill="#666666"/>
<path d="M297.345 285.518C295.201 284.414 293.03 283.166 290.876 281.899C279.884 275.567 269.435 270.428 256.797 277.675C255.084 278.816 253.455 280.076 251.92 281.447C241.182 290.91 239.988 299.405 241.896 307.683L241.978 307.864C242.028 308.012 242.053 308.168 242.05 308.325C242.818 311.199 243.791 314.014 244.963 316.748C245.028 316.866 245.079 316.99 245.117 317.119C245.425 317.888 245.75 318.648 246.067 319.417C246.972 321.525 247.876 323.651 248.627 325.749C251.151 332.607 254.128 338.243 257.566 342.54C261.257 347.163 265.5 350.239 270.277 351.587C275.053 352.935 280.418 352.619 286.38 350.42C286.932 350.212 287.493 349.995 288.054 349.76C288.189 349.583 288.368 349.444 288.572 349.356C288.776 349.267 288.999 349.232 289.221 349.253C294.378 346.832 299.213 343.778 303.614 340.161C307.403 336.572 310.789 332.58 313.711 328.255L313.792 328.138C314.631 326.841 315.378 325.566 316.036 324.311C318.967 318.675 319.971 313.391 319.22 308.47C318.542 304.47 316.844 300.712 314.29 297.56L314.109 297.379C309.585 292.738 302.963 288.449 297.345 285.527V285.518Z" fill="#999999"/>
<path d="M324.35 322.556C324.884 323.524 325.436 324.492 326.015 325.46C326.395 326.102 326.793 326.754 327.209 327.405C334.112 323.237 340.491 318.256 346.207 312.568C338.165 304.001 332.637 295.28 327.616 287.445C323.156 280.443 319.157 274.155 314.272 269.451C311.763 267.002 308.801 265.066 305.55 263.751C300.636 261.821 295.244 261.461 290.116 262.72C285.671 263.731 281.597 265.965 278.355 269.17C277.54 270.008 276.824 270.937 276.22 271.939C277.924 272.392 279.593 272.967 281.214 273.658L281.377 273.567C283.53 272.319 285.952 271.606 288.438 271.49C290.924 271.373 293.402 271.856 295.662 272.898C300.088 275.026 303.805 278.387 306.365 282.578C306.727 283.148 307.079 283.736 307.423 284.387C308.02 285.464 308.581 286.531 309.106 287.608C309.558 288.513 310.011 289.417 310.409 290.322C312.453 291.869 314.379 293.565 316.172 295.397C321.057 300.418 324.042 305.892 324.956 311.808C325.483 315.4 325.28 319.062 324.359 322.574L324.35 322.556Z" fill="#999999"/>
<path d="M324.35 322.556C324.884 323.524 325.436 324.492 326.015 325.46C326.395 326.102 326.793 326.754 327.209 327.405C334.112 323.237 340.491 318.256 346.207 312.568L344.76 311.003C328.937 319.245 321.012 297.433 314.661 285.853C307.016 271.966 298.376 270.781 288.832 268.094C286.863 267.583 285.043 266.613 283.521 265.262C281.61 266.302 279.863 267.619 278.337 269.171C277.522 270.008 276.805 270.937 276.202 271.939C277.906 272.392 279.575 272.967 281.196 273.658L281.359 273.567C283.512 272.319 285.934 271.606 288.42 271.49C290.906 271.373 293.384 271.856 295.644 272.898C300.07 275.026 303.787 278.387 306.347 282.578C306.708 283.148 307.061 283.736 307.405 284.387C308.002 285.464 308.563 286.531 309.088 287.608C309.54 288.513 309.993 289.417 310.391 290.322C312.435 291.869 314.361 293.565 316.153 295.397C321.039 300.418 324.024 305.892 324.938 311.808C325.465 315.401 325.262 319.062 324.341 322.574L324.35 322.556Z" fill="#666666"/>
<path d="M324.784 328.871C324.386 328.237 323.988 327.586 323.59 326.926L323.21 326.274C322.645 327.762 321.992 329.215 321.256 330.626L321.111 330.897C322.188 330.327 323.418 329.658 324.784 328.871Z" fill="#999999"/>
<path d="M363.957 350.619H364.003C370.697 351.108 376.831 350.773 381.309 349.714C383.888 349.081 385.833 348.213 386.928 347.127C387.346 346.745 387.626 346.236 387.726 345.678C387.826 345.121 387.739 344.546 387.479 344.042C386.376 341.527 382.612 338.325 375.248 334.453C374.524 334.082 373.837 333.702 373.176 333.34L371.964 332.661C365.256 338.502 357.696 343.286 349.546 346.847C351.127 347.516 352.743 348.102 354.386 348.602H354.503C357.594 349.533 360.756 350.208 363.957 350.619Z" fill="#999999"/>
<path d="M363.957 350.619H364.003C370.697 351.108 376.831 350.773 381.309 349.714C383.888 349.081 385.833 348.213 386.928 347.127C387.346 346.745 387.626 346.236 387.726 345.678C387.826 345.121 387.739 344.546 387.479 344.042C387.416 343.906 387.353 343.771 387.271 343.626C382.612 347.408 371.231 347.118 371.503 343.038C371.629 341.129 373.493 337.908 375.7 334.697L375.248 334.453C374.524 334.082 373.837 333.702 373.176 333.34L371.964 332.661C365.256 338.502 357.696 343.286 349.546 346.847C351.127 347.516 352.743 348.102 354.386 348.602H354.503C357.594 349.533 360.756 350.208 363.957 350.619Z" fill="#666666"/>
<path d="M377.654 398.676C382.721 398.269 385.724 396.369 387.244 393.827C388.114 392.326 388.572 390.622 388.574 388.887C388.583 387.017 388.255 385.159 387.606 383.405C386.14 379.37 383.273 376.032 380.368 375.616C378.592 375.365 376.781 375.649 375.166 376.43C373.556 377.236 372.125 378.359 370.96 379.732C372.38 381.959 373.591 384.312 374.578 386.761C375.728 389.715 376.618 392.763 377.238 395.871C377.419 396.776 377.573 397.726 377.709 398.676H377.654Z" fill="#666666"/>
<path d="M373.972 275.585L374.09 275.44C374.966 274.345 376.04 273.425 377.256 272.726C376.089 272.715 374.925 272.83 373.782 273.07C373.484 273.133 373.185 273.205 372.878 273.287C373.23 274.056 373.592 274.816 373.954 275.576L373.972 275.585Z" fill="#999999"/>
<path d="M383.137 304.435C381.062 303.648 379.169 302.448 377.573 300.907C374.88 298.331 372.853 295.139 371.665 291.607C370.531 288.176 370.415 284.49 371.331 280.995C371.561 280.141 371.864 279.309 372.235 278.507C371.566 277.15 370.905 275.793 370.263 274.4C368.898 275.171 367.74 276.263 366.89 277.58C366.039 278.897 365.52 280.401 365.378 281.963C362.51 305.81 339.874 325.614 318.334 335.439C315.094 340.172 311.364 344.551 307.206 348.502C307.149 348.561 307.085 348.612 307.016 348.656C301.974 352.815 296.423 356.314 290.496 359.069C285.345 369.092 278.487 378.141 270.231 385.811C263.648 391.905 255.868 396.564 247.388 399.49C247.292 399.534 247.192 399.568 247.089 399.59C246.185 399.888 245.208 400.178 244.24 400.44C243.76 400.567 243.288 400.724 242.828 400.911C242.631 401.065 242.397 401.165 242.15 401.2C238.26 403.009 236.179 406.692 235.717 410.817C235.506 412.805 235.629 414.813 236.079 416.761C236.142 416.901 236.179 417.051 236.188 417.204C236.233 417.412 236.287 417.602 236.342 417.801C237.024 420.206 238.14 422.465 239.635 424.469C243.652 429.815 250.6 433.298 259.918 431.172C266.115 429.761 274.465 424.306 282.472 415.729C290.094 407.509 296.218 398.017 300.566 387.684C299.647 384.064 298.39 380.538 296.811 377.154C296.727 376.986 296.677 376.803 296.664 376.615C296.651 376.428 296.675 376.24 296.735 376.062C296.794 375.883 296.889 375.719 297.012 375.577C297.135 375.435 297.285 375.319 297.454 375.236C297.62 375.15 297.802 375.099 297.989 375.085C298.175 375.071 298.363 375.094 298.541 375.153C298.718 375.212 298.882 375.305 299.023 375.428C299.165 375.551 299.28 375.701 299.362 375.869C299.362 375.869 304.881 386.671 306.41 404.593C306.597 406.845 306.92 409.083 307.378 411.296C308.807 418.163 311.684 424.993 316.859 429.842C322.034 434.692 329.525 437.559 340.254 436.646C342.222 436.471 344.179 436.193 346.117 435.813C348.279 430.041 349.329 424.369 349.998 415.377C350.024 414.997 350.2 414.644 350.487 414.395C350.774 414.146 351.148 414.02 351.527 414.047C351.906 414.073 352.259 414.249 352.509 414.536C352.758 414.822 352.883 415.196 352.857 415.576C352.16 425.002 351.047 430.892 348.786 436.908C348.804 437.125 348.773 437.344 348.694 437.548C348.616 437.751 348.493 437.935 348.333 438.084C346.289 443.168 343.376 448.506 339.133 456.295L336.97 460.285C333.922 465.921 335.089 471.042 338.508 474.832C340.732 477.198 343.486 479.002 346.542 480.098C349.888 481.345 353.452 481.896 357.018 481.717C365.278 481.274 373.529 476.687 377.048 465.948C383.833 445.258 376.84 411.613 375.51 405.687C375.358 405.453 375.277 405.18 375.275 404.9V404.575C375.271 404.508 375.271 404.442 375.275 404.376C375.275 403.29 375.194 402.204 375.094 401.128C374.876 400.875 374.752 400.556 374.741 400.223C374.733 399.974 374.792 399.727 374.913 399.508C374.777 398.468 374.606 397.446 374.407 396.432C373.823 393.487 372.981 390.599 371.892 387.802C370.855 385.215 369.561 382.738 368.028 380.41C365.001 375.848 361.518 371.604 357.634 367.745C350.396 360.426 342.028 354.175 335.432 351.008C335.156 350.892 334.922 350.692 334.766 350.435C334.609 350.179 334.538 349.88 334.561 349.581C334.584 349.281 334.7 348.997 334.894 348.768C335.088 348.538 335.349 348.376 335.641 348.303H335.758C337.758 347.878 339.712 347.353 341.63 346.756C341.892 346.564 342.209 346.462 342.534 346.467C343.349 346.204 344.163 345.924 344.968 345.625C345.205 345.436 345.497 345.325 345.8 345.309C355.155 341.617 363.772 336.276 371.24 329.54C376.887 324.521 381.941 318.872 386.303 312.704C385.097 309.875 384.051 307.119 383.164 304.435H383.137Z" fill="#999999"/>
<path d="M383.137 304.435C381.062 303.648 379.169 302.448 377.573 300.907C375.683 299.106 374.119 296.991 372.95 294.656C374.85 300.717 376.867 312.324 369.621 323.072C359.208 338.515 335.749 348.249 335.749 348.249C337.748 347.824 339.703 347.299 341.621 346.702C341.883 346.51 342.2 346.408 342.525 346.412C343.339 346.15 344.154 345.87 344.959 345.571C345.196 345.381 345.487 345.271 345.791 345.254C355.146 341.563 363.763 336.222 371.231 329.486C376.878 324.484 381.934 318.853 386.303 312.704C385.097 309.875 384.051 307.119 383.164 304.435H383.137ZM236.125 408.808C235.958 409.469 235.837 410.14 235.763 410.817C235.552 412.804 235.674 414.813 236.125 416.761C236.187 416.901 236.224 417.051 236.233 417.204C236.278 417.412 236.333 417.602 236.387 417.801C237.069 420.206 238.185 422.465 239.68 424.469C243.697 429.815 250.645 433.298 259.963 431.172C266.16 429.761 274.511 424.306 282.517 415.729C290.139 407.509 296.263 398.017 300.611 387.684C299.827 384.725 298.848 381.82 297.68 378.99C293.455 384.617 270.539 414.345 256.498 417.466C244.194 420.18 238.124 412.219 236.152 408.808H236.125ZM300.285 377.868C303.672 386.415 305.743 395.425 306.428 404.593C306.615 406.845 306.938 409.083 307.396 411.296C308.825 418.163 311.702 424.993 316.877 429.842C322.052 434.691 329.543 437.559 340.273 436.646C342.24 436.471 344.197 436.193 346.135 435.813C348.026 430.774 349.066 425.798 349.754 418.624C347.528 420.488 342.715 423.211 333.596 423.148C319.772 423.093 310.617 413.567 308.147 400.006C305.677 386.445 300.294 377.841 300.294 377.841L300.285 377.868ZM335.84 470.372C335.903 470.553 335.966 470.734 336.039 470.915C335.982 470.731 335.916 470.549 335.84 470.372ZM336.69 472.272C337.189 473.195 337.796 474.054 338.499 474.832C340.723 477.198 343.477 479.002 346.533 480.098C349.879 481.345 353.443 481.896 357.009 481.717C365.269 481.274 373.52 476.687 377.039 465.948C383.824 445.258 376.831 411.613 375.501 405.687C375.349 405.453 375.268 405.18 375.266 404.9V404.575C375.262 404.508 375.262 404.442 375.266 404.376C375.266 403.29 375.185 402.204 375.085 401.128C374.867 400.875 374.743 400.556 374.732 400.223C374.724 399.974 374.783 399.727 374.904 399.508C374.768 398.468 374.597 397.446 374.398 396.432C373.814 393.487 372.972 390.599 371.882 387.802C370.846 385.215 369.552 382.738 368.019 380.41C364.992 375.848 361.509 371.604 357.625 367.745C350.731 360.779 342.824 354.781 336.391 351.461C336.391 351.461 358.258 368.849 364.455 384.129C370.652 399.409 368.87 404.475 368.87 404.475C368.87 404.475 377.455 440.662 371.448 461.732C365.767 481.635 341.593 480.143 336.645 472.272H336.69Z" fill="#666666"/>
<path d="M388.113 305.132C387.562 305.177 387.008 305.177 386.457 305.132C387.009 306.688 387.597 308.262 388.266 309.863C388.809 309.031 389.316 308.208 389.795 307.403C389.234 306.652 388.674 305.892 388.131 305.123L388.113 305.132Z" fill="#666666"/>
<path d="M391.505 304.272L391.098 304.435L391.279 304.688L391.505 304.272Z" fill="#666666"/>
<path d="M385.399 274.572C384.026 274.192 382.589 274.109 381.183 274.327C380.894 274.556 380.528 274.666 380.16 274.635H380.007C378.548 275.144 377.265 276.057 376.306 277.268C375.259 278.602 374.506 280.144 374.099 281.791C373.324 284.741 373.421 287.852 374.379 290.747C375.418 293.837 377.187 296.63 379.536 298.889C380.885 300.194 382.49 301.204 384.25 301.857C384.527 301.856 384.798 301.937 385.028 302.092C386.58 302.501 388.217 302.45 389.741 301.947C391.323 301.389 392.747 300.458 393.894 299.233C394.328 298.141 394.697 297.023 394.997 295.886C397.322 286.975 393.984 280.425 388.791 276.643C387.731 275.842 386.595 275.148 385.399 274.572Z" fill="#999999"/>
<path d="M374.099 281.737C373.324 284.686 373.421 287.798 374.379 290.693C375.418 293.783 377.187 296.576 379.536 298.835C380.885 300.139 382.49 301.15 384.25 301.802C384.527 301.801 384.798 301.883 385.028 302.038C386.58 302.446 388.217 302.396 389.741 301.893C391.323 301.335 392.747 300.404 393.894 299.179C394.328 298.086 394.697 296.968 394.997 295.832C396.217 291.74 395.99 287.354 394.355 283.41C394.029 287.237 391.641 292.511 385.661 292.177C378.016 291.742 374.099 281.782 374.099 281.782V281.737Z" fill="#666666"/>
<path d="M49.8394 568.34C49.7795 568.716 49.5728 569.052 49.2648 569.275C48.9569 569.498 48.5729 569.59 48.1974 569.53C47.8219 569.47 47.4856 569.263 47.2625 568.955C47.0394 568.647 46.9478 568.264 47.0078 567.888C49.0524 555.222 60.5781 546.845 72.5924 538.115C85.7195 528.552 99.3984 518.592 100.638 502.57C100.652 502.382 100.702 502.199 100.786 502.031C100.871 501.863 100.988 501.713 101.13 501.59C101.272 501.467 101.438 501.373 101.616 501.314C101.795 501.254 101.984 501.231 102.171 501.245C102.359 501.258 102.542 501.309 102.71 501.393C102.879 501.478 103.029 501.594 103.152 501.737C103.275 501.879 103.368 502.044 103.428 502.223C103.487 502.402 103.51 502.59 103.497 502.778C102.203 520.112 87.9722 530.479 74.3114 540.431C62.8127 548.799 51.6941 556.878 49.8847 568.34H49.8394Z" fill="#999999"/>
<path d="M78.1834 485.462C70.0412 492.085 59.5649 495.133 48.9529 498.245C29.6648 503.909 9.75257 509.735 3.09404 538.287C8.44981 540.458 16.2573 540.901 25.1052 539.68C35.0722 538.201 44.7534 535.202 53.811 530.787C56.697 528.806 59.6373 526.924 62.5685 525.051C71.7239 519.198 80.6623 513.471 86.6333 505.302C83.3688 501.069 80.9151 496.269 79.3957 491.144C78.8595 489.289 78.4663 487.395 78.2196 485.48L78.1834 485.462Z" fill="#999999"/>
<path d="M78.1834 485.462C75.4325 487.655 72.4432 489.53 69.2722 491.053C65.8253 501.005 59.4473 511.472 46.2207 518.194C32.3246 525.214 16.9449 525.893 7.64464 525.431C5.63008 529.515 4.11147 533.824 3.12119 538.269C8.47696 540.44 16.2844 540.883 25.1323 539.662C35.0994 538.183 44.7805 535.183 53.8382 530.769C56.7241 528.788 59.6644 526.906 62.5956 525.033C71.7511 519.18 80.6894 513.453 86.6604 505.284C83.396 501.051 80.9422 496.251 79.4229 491.126C78.8866 489.271 78.4935 487.377 78.2468 485.462H78.1834Z" fill="#666666"/>
<path d="M157.416 536.64L158.402 539.481C159.162 541.679 159.931 543.896 160.691 546.112C172.097 547.712 183.686 547.446 195.006 545.325C206.984 543.073 216.52 538.992 221.052 534.731C225.784 530.28 227.512 525.341 227.277 520.736C227.082 517.645 226.108 514.654 224.445 512.042C222.862 509.492 220.729 507.329 218.203 505.709C214.882 503.628 211.137 502.805 207.844 503.9C202.904 510.802 194.273 518.764 183.254 525.413C175.194 530.317 166.501 534.094 157.416 536.64Z" fill="#666666"/>
<path d="M84.8148 606.554C80.8432 600.963 79.5133 593.889 79.7214 586.651C77.9978 586.279 76.2176 586.252 74.4833 586.57C72.7238 586.921 71.1083 587.787 69.8422 589.058C67.6619 591.256 67.291 596.069 68.5575 600.484C69.0525 602.279 69.8711 603.968 70.9731 605.469C71.9506 606.824 73.2846 607.883 74.827 608.526C77.3964 609.54 80.7256 609.196 84.7786 606.572L84.8148 606.554Z" fill="#666666"/>
<path d="M92.6042 543.914L92.6856 543.796C98.4545 536.143 102.531 527.352 104.646 518.004C105.599 513.546 106.003 508.989 105.849 504.434C105.843 504.246 105.874 504.059 105.94 503.883C106.007 503.707 106.107 503.547 106.236 503.41C106.364 503.273 106.518 503.162 106.69 503.085C106.861 503.008 107.045 502.965 107.233 502.959C107.421 502.953 107.608 502.984 107.784 503.05C107.959 503.117 108.12 503.217 108.257 503.346C108.394 503.474 108.504 503.628 108.582 503.8C108.659 503.971 108.702 504.155 108.708 504.343C108.857 508.667 108.527 512.993 107.722 517.244C117.329 519.958 127.625 517.859 136.771 513.489C140.467 511.726 143.993 509.624 147.302 507.211L147.501 507.066C154.847 501.71 160.664 495.305 163.622 489.751C166.428 484.778 167.926 479.175 167.974 473.466C167.49 474.185 166.968 474.876 166.409 475.538C166.299 475.707 166.155 475.851 165.986 475.96C165.816 476.069 165.626 476.141 165.427 476.172C165.228 476.202 165.024 476.19 164.83 476.136C164.636 476.083 164.455 475.989 164.3 475.86C164.145 475.732 164.018 475.572 163.929 475.392C163.84 475.211 163.79 475.014 163.782 474.813C163.775 474.611 163.81 474.411 163.885 474.224C163.96 474.037 164.074 473.868 164.22 473.729C165.47 472.183 166.572 470.523 167.513 468.771C167.03 465.904 165.958 463.169 164.364 460.737C164.281 460.615 164.217 460.481 164.174 460.339C164.129 460.222 164.084 460.104 164.03 459.986C163.477 460.38 162.867 460.685 162.22 460.891C160.282 461.467 158.257 461.693 156.24 461.561C156.043 461.55 155.851 461.499 155.675 461.412C155.498 461.324 155.342 461.2 155.215 461.05C155.088 460.899 154.994 460.724 154.938 460.535C154.881 460.346 154.865 460.148 154.888 459.952C154.912 459.756 154.975 459.568 155.075 459.398C155.174 459.228 155.308 459.08 155.467 458.963C155.626 458.847 155.807 458.765 155.999 458.721C156.191 458.678 156.39 458.674 156.584 458.711C158.19 458.811 159.801 458.627 161.343 458.168C161.659 458.067 161.962 457.93 162.247 457.761L162.148 457.661L162.066 457.571C160.308 456.172 158.381 454.999 156.331 454.079C151.759 452.005 147.064 450.217 142.272 448.723L139.259 447.71C130.574 444.752 119.437 440.952 105.225 445.068C101.92 446.124 98.8494 447.804 96.1777 450.017C90.6025 454.514 86.2472 460.341 83.5121 466.962C80.3967 474.367 79.902 482.614 82.1098 490.339C83.4442 494.809 85.5474 499.012 88.325 502.76C89.6579 500.586 90.7528 498.275 91.591 495.866C91.7109 495.506 91.969 495.209 92.3083 495.039C92.6476 494.869 93.0404 494.842 93.4003 494.962C93.7602 495.081 94.0578 495.34 94.2274 495.679C94.3971 496.018 94.425 496.411 94.305 496.771C93.2202 499.883 91.7426 502.844 89.9082 505.583C89.862 505.938 89.6806 506.262 89.4016 506.487L89.2569 506.587C83.0416 515.353 73.6781 521.333 64.1155 527.449C61.5643 529.077 59.004 530.715 56.4889 532.425C56.3486 532.648 56.1478 532.827 55.9099 532.94L55.2676 533.257C41.1544 542.982 28.7873 555.132 28.9501 579.83C30.4628 580.046 31.9922 580.122 33.5188 580.056C44.8003 579.667 60.6596 573.099 74.6823 562.152C81.4513 556.912 87.4773 550.776 92.5952 543.914H92.6042Z" fill="#999999"/>
<path d="M91.8714 454.006C88.3364 457.784 85.5136 462.17 83.5392 466.953C80.4128 474.357 79.9085 482.608 82.1098 490.339C83.4442 494.809 85.5474 499.012 88.325 502.76C89.2476 501.25 90.058 499.675 90.7496 498.046C79.5767 482.766 87.6375 459.652 91.8714 454.006Z" fill="#666666"/>
<path d="M108.653 509.635C108.519 512.183 108.216 514.718 107.749 517.226C117.357 519.94 127.652 517.841 136.798 513.471C140.495 511.707 144.02 509.605 147.329 507.193L147.528 507.048C154.874 501.692 160.691 495.287 163.65 489.732C165.749 485.922 167.14 481.762 167.757 477.456C166.735 486.503 143.403 519.524 108.681 509.635H108.653Z" fill="#666666"/>
<path d="M92.6042 543.914L92.6856 543.796C98.4545 536.143 102.531 527.351 104.646 518.004C105.232 515.256 105.613 512.467 105.786 509.663C103.976 507.075 99.118 513.037 98.4214 514.602C97.5167 516.538 92.179 522.998 89.9263 525.685C85.5067 530.539 80.3906 534.709 74.7456 538.061C68.1776 541.833 53.6482 555.611 50.3189 561.419C47.8129 565.78 47.4873 573.569 47.4782 577.188C57.312 573.685 66.5049 568.594 74.6913 562.116C81.4604 556.876 87.4864 550.74 92.6042 543.878V543.914Z" fill="#666666"/>
<path d="M125.752 620.224C125.949 627.353 126.614 634.461 127.742 641.502C129.018 649.092 131.017 656.52 134.075 662.491C139.277 672.515 148.17 675.717 156.394 674.822C159.939 674.426 163.366 673.308 166.463 671.538C169.306 669.969 171.735 667.745 173.547 665.051C176.315 660.754 176.641 655.507 172.724 650.449C171.168 648.432 169.946 646.831 168.806 645.401C158.583 632.302 154.874 627.543 151.246 614.307C144.678 617.79 136.219 619.88 125.725 620.224H125.752Z" fill="#999999"/>
<path d="M125.752 620.224C125.949 627.353 126.614 634.461 127.742 641.502C129.018 649.092 131.017 656.52 134.075 662.491C139.277 672.515 148.17 675.717 156.394 674.822C159.939 674.426 163.366 673.308 166.463 671.538C169.306 669.969 171.735 667.746 173.547 665.051C144.805 679.019 133.514 642.253 135.885 633.107C137.459 627.009 146.641 621.681 152.585 618.804C152.133 617.41 151.681 615.927 151.246 614.28C144.678 617.763 136.219 619.853 125.725 620.197L125.752 620.224Z" fill="#666666"/>
<path d="M119.419 618.234L119.474 618.134C120.559 615.963 121.717 613.819 122.966 611.666C123.06 611.503 123.186 611.36 123.335 611.246C123.485 611.132 123.655 611.048 123.837 611C124.019 610.952 124.209 610.94 124.395 610.965C124.582 610.99 124.762 611.051 124.924 611.145C125.087 611.24 125.23 611.366 125.344 611.515C125.458 611.665 125.542 611.835 125.59 612.017C125.638 612.199 125.65 612.389 125.625 612.575C125.6 612.762 125.539 612.941 125.445 613.104C124.612 614.534 123.816 615.969 123.056 617.41H124.142C138.617 617.184 149.138 613.602 155.996 607.667C162.853 601.732 166.056 593.581 166.183 584.009C166.183 583.575 166.183 583.141 166.183 582.707C165.984 569.914 160.755 554.815 155.743 540.422L154.702 537.382C150.614 538.375 146.46 539.076 142.272 539.481C141.894 539.517 141.517 539.401 141.224 539.16C140.932 538.918 140.747 538.57 140.711 538.192C140.675 537.814 140.791 537.437 141.033 537.144C141.274 536.852 141.622 536.667 142 536.631C146.463 536.203 150.886 535.425 155.227 534.306H155.326C164.664 531.842 173.595 528.039 181.843 523.016C196.019 514.457 206.034 503.818 208.938 496.4C212.286 487.814 209.735 480.921 205.021 476.56C203.004 474.708 200.631 473.286 198.046 472.381C195.639 471.504 193.072 471.156 190.519 471.358C186.095 471.774 182.313 474.235 181.11 479.193C172.868 513.308 134.564 524.219 134.455 524.246C134.269 524.331 134.067 524.375 133.863 524.375C133.658 524.375 133.456 524.331 133.27 524.247C133.084 524.162 132.918 524.038 132.783 523.884C132.649 523.73 132.55 523.548 132.492 523.352C132.433 523.156 132.418 522.95 132.446 522.747C132.475 522.545 132.546 522.351 132.656 522.178C132.766 522.006 132.911 521.859 133.083 521.747C133.254 521.636 133.448 521.562 133.65 521.532C138.639 519.946 143.451 517.848 148.008 515.272C147.781 514.231 147.573 513.218 147.401 512.241C147.32 511.77 147.239 511.336 147.166 510.83C144.262 512.812 141.21 514.569 138.038 516.086C128.349 520.7 117.465 522.889 107.161 520.057C104.836 529.245 100.699 537.876 94.9926 545.443C94.3231 546.673 83.5664 566.82 82.535 585.195C82.5848 585.415 82.5848 585.644 82.535 585.864C82.5387 585.897 82.5387 585.931 82.535 585.964C82.1369 595.68 84.5525 604.817 92.749 610.272C99.0275 603.415 103.922 598.973 103.958 598.937C104.239 598.684 104.608 598.552 104.985 598.568C105.363 598.585 105.719 598.75 105.976 599.027C106.103 599.165 106.202 599.327 106.266 599.503C106.331 599.68 106.36 599.867 106.351 600.055C106.343 600.242 106.297 600.427 106.217 600.596C106.137 600.766 106.024 600.919 105.885 601.045C105.804 601.126 76.6183 627.615 69.9598 650.576C66.8024 661.432 71.0364 669.873 77.6135 674.903C80.4571 677.045 83.7079 678.584 87.167 679.426C90.3093 680.25 93.6024 680.315 96.7748 679.616C101.742 678.404 105.596 674.831 106.256 668.462C107.192 657.968 109.081 647.582 111.901 637.431C113.818 630.816 116.334 624.391 119.419 618.234Z" fill="#999999"/>
<path d="M101.461 605.297C93.0204 613.701 74.9989 633.161 69.9507 650.531C66.7934 661.387 71.0273 669.828 77.6044 674.858C80.448 677 83.6989 678.539 87.158 679.381C90.3003 680.205 93.5934 680.27 96.7658 679.571C101.733 678.359 105.587 674.785 106.247 668.416L106.328 667.638C98.6837 672.017 82.0374 669.52 80.6713 655.534C79.0338 638.851 101.479 605.251 101.479 605.206L101.461 605.297Z" fill="#666666"/>
<path d="M144.751 536.296C148.283 535.836 151.785 535.162 155.236 534.279H155.335C164.668 531.822 173.596 528.029 181.843 523.016C196.019 514.457 206.034 503.818 208.938 496.4C212.286 487.814 209.735 480.921 205.021 476.56C203.004 474.708 200.631 473.286 198.046 472.381C224.544 496.246 166.463 530.615 144.751 536.296Z" fill="#666666"/>
<path d="M132.664 523.35V523.278C132.604 523.096 132.582 522.903 132.599 522.712C132.616 522.521 132.671 522.336 132.762 522.167C132.852 521.998 132.976 521.849 133.125 521.729C133.275 521.609 133.447 521.52 133.632 521.469C138.621 519.883 143.432 517.785 147.989 515.208C147.763 514.168 147.555 513.155 147.383 512.178C147.302 511.707 147.22 511.273 147.148 510.766C144.244 512.749 141.192 514.506 138.02 516.023C128.33 520.636 117.447 522.826 107.143 519.994C104.831 529.203 100.7 537.855 94.9926 545.443C94.3231 546.673 83.5664 566.82 82.535 585.195C82.5848 585.415 82.5848 585.644 82.535 585.864C82.5388 585.897 82.5388 585.931 82.535 585.964C82.137 595.68 84.5525 604.817 92.749 610.272C95.463 607.296 97.9419 604.781 99.8598 602.872C96.8035 599.899 94.8237 595.994 94.2327 591.772C92.2695 577.107 99.1271 552.753 105.505 539.246C111.331 526.915 120.885 526.58 132.646 523.35H132.664Z" fill="#666666"/>
<path d="M125.571 612.779C125.542 612.893 125.496 613.003 125.435 613.104C124.603 614.534 123.807 615.969 123.047 617.411H124.133C138.608 617.184 149.129 613.602 155.987 607.667C162.844 601.732 166.047 593.581 166.174 584.01C166.174 583.575 166.174 583.141 166.174 582.707C166.096 579.652 165.794 576.607 165.269 573.597C165.269 573.986 167.666 598.928 148.867 608.463C142.19 611.847 133.768 613.249 125.535 612.788L125.571 612.779Z" fill="#666666"/>
<path fill-rule="evenodd" clip-rule="evenodd" d="M248.998 326.989C250.509 325.65 253.476 326.537 255.621 328.97C257.765 331.404 258.271 334.453 256.76 335.791C255.25 337.13 252.237 336.235 250.129 333.81C248.021 331.386 247.478 328.319 248.998 326.989Z" fill="#1A1A1A"/>
<path fill-rule="evenodd" clip-rule="evenodd" d="M282.101 297.804C283.621 296.465 286.579 297.351 288.723 299.785C290.867 302.219 291.374 305.267 289.863 306.606C288.352 307.945 285.34 307.05 283.232 304.625C281.124 302.201 280.581 299.143 282.101 297.804Z" fill="#1A1A1A"/>
<path fill-rule="evenodd" clip-rule="evenodd" d="M132.32 465.179C133.831 463.84 136.844 464.727 138.942 467.161C141.041 469.594 141.593 472.643 140.073 473.982C138.553 475.321 135.55 474.425 133.451 472.001C131.352 469.576 130.8 466.518 132.32 465.179Z" fill="#1A1A1A"/>
<path d="M153.798 612.824C157.345 626.078 160.909 630.646 171.051 643.638C172.335 645.293 173.765 647.066 174.986 648.695C179.772 654.883 179.356 661.36 175.954 666.599C173.888 669.674 171.123 672.217 167.884 674.017C164.438 675.977 160.626 677.209 156.684 677.636C147.402 678.649 137.378 675.057 131.525 663.776C128.277 657.516 126.196 649.799 124.884 641.946C123.73 634.761 123.053 627.508 122.858 620.234H121.582C118.739 626.023 116.408 632.05 114.616 638.246C111.844 648.234 109.988 658.454 109.07 668.779C108.274 676.559 103.534 680.929 97.4269 682.412C93.8117 683.22 90.056 683.155 86.4711 682.222C82.6205 681.276 79.0054 679.548 75.85 677.147C68.4225 671.475 63.6457 661.958 67.183 649.753C71.0189 636.626 81.8752 622.423 90.8045 612.471C89.2814 611.427 87.8822 610.213 86.6339 608.853C81.5314 612.2 77.2161 612.58 73.7873 611.232C71.7484 610.398 69.9817 609.014 68.6848 607.233C67.3693 605.447 66.3912 603.436 65.7989 601.299C64.2699 595.988 64.8942 590.008 67.8163 587.077C69.4755 585.402 71.6 584.264 73.9139 583.811C75.8835 583.435 77.9063 583.435 79.8759 583.811C80.7263 572.955 84.5712 561.863 87.81 554.155C84.2879 557.875 80.4895 561.323 76.4471 564.469C61.972 575.786 45.4614 582.562 33.619 582.979C31.4964 583.074 29.3701 582.913 27.2861 582.499C26.9706 582.43 26.6875 582.257 26.4824 582.008C26.2773 581.758 26.162 581.447 26.1553 581.124C25.6667 559.701 33.8723 547.162 44.7648 537.699C38.5367 539.965 32.0912 541.58 25.531 542.521C15.5794 543.905 6.7225 543.227 0.851056 540.431C0.541659 540.302 0.287317 540.068 0.132026 539.771C-0.0232655 539.473 -0.0697385 539.131 0.000645861 538.803C6.74964 507.618 27.7747 501.458 48.1212 495.496C59.1313 492.275 69.9333 489.109 77.8674 481.926C77.7404 476.434 78.7731 470.978 80.8982 465.913C83.8258 458.835 88.4936 452.611 94.4685 447.819C97.4248 445.385 100.822 443.542 104.474 442.391C119.565 438.021 131.172 441.975 140.219 445.06C141.241 445.403 142.236 445.747 143.204 446.055C148.114 447.562 152.924 449.375 157.607 451.483C159.896 452.519 162.043 453.845 163.994 455.427C164.087 455.486 164.172 455.556 164.247 455.635L164.365 455.762C165.461 456.705 166.317 457.896 166.862 459.236C167.92 460.801 175.719 473.295 166.192 491.144C163.135 496.88 157.245 503.457 149.809 509.003C149.926 509.907 150.071 510.812 150.243 511.789C150.36 512.459 150.487 513.137 150.632 513.807C161.407 507.293 174.099 496.165 178.342 478.596C179.871 472.263 184.675 469.106 190.275 468.581C193.236 468.342 196.214 468.743 199.006 469.757C201.959 470.787 204.669 472.413 206.967 474.534C212.477 479.628 215.471 487.625 211.617 497.513C211.177 498.605 210.663 499.666 210.079 500.689C213.528 500.531 216.936 501.482 219.805 503.403C222.704 505.247 225.15 507.72 226.961 510.64C228.887 513.664 230.008 517.13 230.217 520.709C230.489 526.092 228.517 531.828 223.098 536.93C218.194 541.544 208.134 545.887 195.613 548.248C184.44 550.302 173.016 550.604 161.75 549.143C165.595 560.696 168.87 572.312 169.033 582.617C169.033 583.078 169.033 583.521 169.033 583.983C168.897 594.387 165.306 603.343 157.86 609.784C156.587 610.88 155.236 611.881 153.816 612.779L153.798 612.824ZM119.42 618.252L119.474 618.153C120.56 615.982 121.718 613.837 122.966 611.684C123.061 611.521 123.186 611.379 123.336 611.265C123.485 611.151 123.656 611.067 123.838 611.018C124.02 610.97 124.209 610.958 124.396 610.983C124.582 611.008 124.762 611.07 124.925 611.164C125.088 611.258 125.23 611.384 125.345 611.534C125.459 611.683 125.542 611.854 125.591 612.036C125.639 612.218 125.651 612.407 125.626 612.594C125.601 612.78 125.54 612.96 125.445 613.123C124.613 614.552 123.817 615.988 123.057 617.429H124.142C138.617 617.203 149.139 613.62 155.997 607.686C162.854 601.751 166.057 593.6 166.183 584.028C166.183 583.594 166.183 583.16 166.183 582.725C165.984 569.933 160.755 554.834 155.743 540.44L154.703 537.383C150.614 538.375 146.46 539.077 142.272 539.481C141.895 539.517 141.518 539.402 141.225 539.16C140.932 538.918 140.748 538.57 140.712 538.192C140.676 537.814 140.791 537.438 141.033 537.145C141.275 536.852 141.623 536.668 142.001 536.632C146.464 536.203 150.886 535.426 155.228 534.307H155.327C164.664 531.842 173.596 528.039 181.844 523.016C196.02 514.458 206.035 503.819 208.939 496.4C212.286 487.815 209.735 480.921 205.022 476.561C203.004 474.709 200.631 473.287 198.047 472.381C195.64 471.505 193.073 471.156 190.52 471.359C186.096 471.775 182.314 474.236 181.111 479.193C172.869 513.309 134.564 524.219 134.456 524.247C134.27 524.331 134.068 524.375 133.863 524.376C133.659 524.376 133.456 524.332 133.27 524.247C133.084 524.162 132.918 524.039 132.784 523.884C132.65 523.73 132.55 523.549 132.492 523.353C132.434 523.157 132.419 522.95 132.447 522.748C132.475 522.545 132.547 522.351 132.657 522.179C132.767 522.006 132.912 521.859 133.084 521.748C133.255 521.636 133.448 521.563 133.651 521.533C138.64 519.947 143.451 517.849 148.008 515.272C147.782 514.232 147.574 513.219 147.402 512.241C147.321 511.771 147.239 511.337 147.167 510.83C144.263 512.813 141.211 514.57 138.038 516.086C128.349 520.7 117.466 522.89 107.161 520.058C104.836 529.246 100.699 537.876 94.9933 545.443C94.3238 546.674 83.567 566.821 82.5357 585.195C82.5854 585.415 82.5854 585.644 82.5357 585.865C82.5394 585.898 82.5394 585.931 82.5357 585.964C82.1376 595.68 84.5531 604.818 92.7496 610.273C99.0282 603.415 103.923 598.973 103.959 598.937C104.24 598.684 104.609 598.552 104.986 598.569C105.364 598.586 105.719 598.751 105.976 599.028C106.104 599.166 106.203 599.328 106.267 599.504C106.332 599.68 106.36 599.868 106.352 600.055C106.344 600.243 106.298 600.427 106.218 600.597C106.138 600.767 106.025 600.919 105.886 601.045C105.804 601.127 76.619 627.616 69.9604 650.577C66.8031 661.433 71.037 669.874 77.6141 674.904C80.4577 677.046 83.7086 678.585 87.1677 679.427C90.31 680.251 93.6031 680.316 96.7755 679.617C101.742 678.405 105.596 674.831 106.257 668.462C107.192 657.969 109.082 647.582 111.902 637.432C113.818 630.817 116.335 624.391 119.42 618.234V618.252ZM125.753 620.243C125.95 627.371 126.615 634.479 127.743 641.521C129.019 649.111 131.018 656.538 134.076 662.509C139.278 672.533 148.171 675.736 156.395 674.84C159.941 674.439 163.368 673.315 166.464 671.538C169.307 669.97 171.735 667.746 173.548 665.052C176.316 660.754 176.642 655.507 172.724 650.45C171.168 648.432 169.947 646.831 168.807 645.402C158.584 632.302 154.875 627.543 151.247 614.308C144.679 617.791 136.22 619.881 125.726 620.224L125.753 620.243ZM92.623 543.932L92.7044 543.815C98.4732 536.162 102.55 527.37 104.664 518.022C105.618 513.565 106.022 509.008 105.868 504.452C105.862 504.264 105.893 504.077 105.959 503.902C106.025 503.726 106.126 503.565 106.254 503.428C106.383 503.291 106.537 503.181 106.708 503.104C106.879 503.026 107.064 502.983 107.252 502.977C107.44 502.971 107.627 503.003 107.802 503.069C107.978 503.135 108.139 503.236 108.276 503.364C108.413 503.493 108.523 503.647 108.6 503.818C108.678 503.989 108.721 504.174 108.726 504.362C108.876 508.685 108.545 513.012 107.74 517.262C117.348 519.977 127.644 517.878 136.79 513.508C140.486 511.744 144.011 509.642 147.321 507.229L147.52 507.085C154.866 501.729 160.683 495.324 163.641 489.769C166.447 484.797 167.944 479.194 167.993 473.485C167.509 474.203 166.987 474.895 166.428 475.556C166.318 475.725 166.174 475.869 166.004 475.978C165.835 476.087 165.645 476.16 165.445 476.19C165.246 476.221 165.043 476.209 164.849 476.155C164.655 476.101 164.474 476.007 164.319 475.879C164.164 475.751 164.037 475.591 163.948 475.41C163.859 475.23 163.809 475.032 163.801 474.831C163.793 474.63 163.828 474.429 163.904 474.242C163.979 474.056 164.093 473.887 164.238 473.747C165.489 472.201 166.591 470.541 167.531 468.789C167.049 465.923 165.977 463.187 164.383 460.756C164.3 460.633 164.236 460.499 164.193 460.358C164.148 460.24 164.103 460.123 164.048 460.005C163.496 460.399 162.885 460.704 162.239 460.91C160.301 461.485 158.276 461.712 156.259 461.579C156.062 461.569 155.87 461.518 155.693 461.43C155.517 461.342 155.361 461.219 155.234 461.068C155.107 460.917 155.013 460.742 154.956 460.553C154.9 460.364 154.883 460.166 154.907 459.97C154.931 459.775 154.994 459.586 155.094 459.416C155.193 459.246 155.327 459.098 155.486 458.982C155.645 458.866 155.826 458.783 156.018 458.74C156.21 458.696 156.409 458.693 156.603 458.729C158.209 458.83 159.819 458.646 161.361 458.187C161.677 458.086 161.981 457.949 162.266 457.779L162.167 457.68L162.085 457.589C160.326 456.191 158.4 455.018 156.349 454.097C151.773 452.017 147.071 450.222 142.272 448.724L139.26 447.71C130.575 444.752 119.438 440.952 105.225 445.069C101.921 446.125 98.8501 447.805 96.1784 450.017C90.6032 454.515 86.2478 460.342 83.5127 466.962C80.3974 474.367 79.9027 482.614 82.1105 490.339C83.4448 494.809 85.548 499.012 88.3257 502.76C89.6585 500.586 90.7535 498.275 91.5916 495.867C91.7116 495.507 91.9696 495.209 92.3089 495.04C92.6483 494.87 93.0411 494.842 93.401 494.962C93.7609 495.082 94.0584 495.34 94.2281 495.679C94.3977 496.019 94.4257 496.411 94.3057 496.771C93.2208 499.884 91.7433 502.845 89.9089 505.583C89.8627 505.938 89.6812 506.262 89.4023 506.488L89.2575 506.587C83.0423 515.354 73.6787 521.333 64.1161 527.449C61.5649 529.078 59.0046 530.715 56.4896 532.425C56.3493 532.648 56.1485 532.827 55.9106 532.941L55.2683 533.257C41.1551 542.983 28.7879 555.132 28.9508 579.83C30.4634 580.046 31.9929 580.122 33.5195 580.057C44.801 579.667 60.6602 573.099 74.6829 562.153C81.452 556.912 87.478 550.777 92.5958 543.914L92.623 543.932ZM84.8336 606.573C80.862 600.982 79.5321 593.907 79.7402 586.67C78.0165 586.298 76.2364 586.27 74.502 586.588C72.7425 586.939 71.127 587.805 69.8609 589.076C67.6806 591.275 67.3097 596.088 68.5763 600.502C69.0712 602.297 69.8898 603.987 70.9918 605.487C71.9693 606.843 73.3033 607.901 74.8458 608.545C77.4151 609.558 80.7444 609.214 84.7974 606.591L84.8336 606.573ZM157.417 536.641L158.403 539.481C159.163 541.68 159.932 543.896 160.692 546.113C172.097 547.712 183.687 547.447 195.007 545.326C206.985 543.073 216.52 538.993 221.053 534.732C225.785 530.281 227.512 525.341 227.277 520.736C227.083 517.646 226.109 514.655 224.446 512.042C222.863 509.493 220.73 507.329 218.203 505.71C214.883 503.629 211.138 502.806 207.844 503.9C202.905 510.803 194.274 518.764 183.255 525.414C175.195 530.318 166.502 534.095 157.417 536.641ZM78.1841 485.463C70.0419 492.085 59.5655 495.134 48.9535 498.246C29.6655 503.909 9.75322 509.735 3.09469 538.287C8.45047 540.458 16.258 540.902 25.1058 539.68C35.0729 538.201 44.754 535.202 53.8117 530.787C56.6977 528.806 59.6379 526.924 62.5691 525.052C71.7246 519.198 80.6629 513.472 86.6339 505.302C83.3695 501.069 80.9157 496.269 79.3964 491.144C78.8602 489.289 78.467 487.396 78.2203 485.481L78.1841 485.463ZM49.8401 568.341C49.7801 568.716 49.5734 569.053 49.2655 569.276C48.9575 569.499 48.5736 569.591 48.1981 569.531C47.8226 569.471 47.4863 569.264 47.2632 568.956C47.0401 568.648 46.9484 568.264 47.0084 567.888C49.053 555.223 60.5788 546.846 72.5931 538.115C85.7202 528.553 99.3991 518.592 100.639 502.57C100.652 502.383 100.703 502.199 100.787 502.031C100.872 501.863 100.988 501.713 101.131 501.59C101.273 501.467 101.438 501.373 101.617 501.314C101.796 501.255 101.984 501.231 102.172 501.245C102.36 501.259 102.543 501.309 102.711 501.394C102.879 501.478 103.029 501.595 103.152 501.737C103.275 501.88 103.369 502.045 103.428 502.224C103.488 502.402 103.511 502.591 103.497 502.778C102.204 520.112 87.9728 530.48 74.312 540.431C62.8134 548.8 51.6947 556.878 49.8853 568.341H49.8401ZM386.385 271.885L386.512 271.939C387.895 272.568 389.21 273.334 390.438 274.228C396.509 278.634 400.39 286.233 397.748 296.502C397.397 297.806 396.965 299.087 396.455 300.337C396.434 300.426 396.401 300.512 396.355 300.591C395.416 302.854 394.338 305.057 393.125 307.186C397.226 312.576 401.684 317.683 406.47 322.475C412.666 328.682 419.426 334.3 426.662 339.257C426.975 339.472 427.19 339.802 427.26 340.175C427.329 340.548 427.248 340.934 427.033 341.247C426.818 341.56 426.488 341.775 426.115 341.845C425.742 341.914 425.356 341.833 425.043 341.618C417.673 336.575 410.789 330.857 404.479 324.538C399.876 319.928 395.567 315.033 391.578 309.882C390.936 310.922 390.257 311.981 389.525 313.048C390.791 315.952 392.239 318.929 393.831 322.005C397.838 329.583 402.31 336.907 407.22 343.934C407.337 344.088 407.422 344.264 407.469 344.452C407.516 344.639 407.524 344.834 407.493 345.025C407.463 345.216 407.394 345.399 407.29 345.562C407.187 345.725 407.052 345.866 406.892 345.976C406.733 346.085 406.553 346.162 406.364 346.2C406.174 346.238 405.979 346.237 405.79 346.198C405.601 346.158 405.422 346.081 405.263 345.97C405.105 345.859 404.97 345.718 404.868 345.553C399.891 338.431 395.359 331.007 391.298 323.325C389.947 320.744 388.716 318.226 387.607 315.771C383.647 321.16 379.169 326.148 374.235 330.662L374.561 330.843L376.578 331.929C384.576 336.127 388.756 339.818 390.104 342.912C390.626 343.936 390.796 345.104 390.586 346.234C390.377 347.364 389.8 348.394 388.946 349.163C387.48 350.629 385.064 351.751 381.998 352.501C377.275 353.659 370.816 354.021 363.804 353.506H363.497C356.4 352.971 349.389 351.611 342.607 349.453C341.748 349.724 340.87 349.977 339.993 350.222C347.166 354.514 353.761 359.707 359.616 365.674C363.188 369.241 366.439 373.116 369.332 377.254C370.646 375.849 372.203 374.693 373.928 373.843C376.05 372.812 378.433 372.443 380.767 372.784C384.739 373.345 388.493 377.48 390.294 382.428C391.066 384.509 391.452 386.714 391.434 388.933C391.415 391.158 390.82 393.34 389.706 395.266C387.742 398.532 384.042 400.974 377.945 401.481C378.017 402.386 378.062 403.29 378.08 404.195C378.65 406.647 387.181 444.001 379.727 466.772C375.773 478.85 366.455 484.015 357.11 484.513C353.152 484.708 349.196 484.092 345.484 482.704C342.014 481.476 338.886 479.442 336.356 476.769C332.14 472.101 330.693 465.813 334.42 458.937C335.686 456.603 335.216 457.49 336.6 454.948C340.219 448.253 342.879 443.413 344.815 438.971C343.313 439.215 341.856 439.396 340.463 439.514C339.866 439.568 339.278 439.604 338.699 439.641C335.758 447.037 332.34 454.236 328.467 461.19C323.989 469.115 318.606 476.778 312.517 482.088C302.946 490.43 292.297 490.095 284.02 485.707C280.524 483.851 277.445 481.298 274.973 478.207C272.624 475.343 270.987 471.964 270.196 468.346C268.965 462.185 270.947 456.042 277.669 452.062L281.577 449.746C296.767 440.753 302.24 437.506 310.427 426.595C307.566 422.105 305.58 417.114 304.574 411.885C304.09 409.556 303.749 407.199 303.552 404.828C303.192 400.599 302.566 396.396 301.679 392.244C297.341 401.562 291.575 410.145 284.589 417.684C276.194 426.676 267.292 432.439 260.579 433.968C249.967 436.393 242.015 432.349 237.374 426.179C236.166 424.572 235.175 422.814 234.424 420.95C233.348 422.216 232.244 423.438 231.131 424.569C231.094 424.618 231.051 424.663 231.005 424.704C225.242 430.748 219.244 435.38 214.467 437.37C212.505 438.333 210.287 438.65 208.134 438.275C207.13 438.007 206.224 437.458 205.524 436.692C204.823 435.925 204.357 434.974 204.18 433.95C203.375 430.702 204.099 425.347 207.003 417.385C217.054 389.874 213.499 369.13 210.577 352.058C209.147 343.69 207.863 336.181 208.342 329.088C208.7 321.735 211.784 314.778 216.991 309.574C222.419 304.237 229.367 301.586 235.021 301.432C235.827 294.955 239.31 288.187 247.569 280.905C257.476 272.175 265.763 270.166 273.317 271.333C274.101 269.809 275.111 268.413 276.312 267.19C279.941 263.591 284.508 261.083 289.493 259.952C295.203 258.547 301.209 258.949 306.682 261.101C310.281 262.564 313.56 264.715 316.335 267.434C321.456 272.365 325.545 278.788 330.114 285.953C335.008 293.634 340.454 302.183 348.262 310.533C355.345 302.789 361.208 293.127 362.583 281.674C362.764 279.617 363.457 277.639 364.598 275.918C365.738 274.198 367.291 272.789 369.115 271.822C361.528 254.645 355.637 236.768 351.528 218.445C347.262 199.593 344.284 180.472 342.616 161.215H334.329C333.948 161.215 333.582 161.064 333.312 160.794C333.042 160.524 332.891 160.158 332.891 159.777C332.892 159.479 332.983 159.189 333.153 158.944C334.61 156.42 336.075 153.905 337.523 151.381C322.623 149.391 309.224 139.937 299.065 126.53C286.452 109.553 279.575 89.0002 279.433 67.8518C279.433 47.8402 286.127 31.7821 297.038 20.5278C308.69 8.50454 325.083 1.98177 343.295 1.98177C361.506 1.98177 377.908 8.50454 389.552 20.5278C400.462 31.8182 407.157 47.8764 407.157 67.8518C407.018 88.9586 400.168 109.474 387.598 126.43C377.438 139.837 364.076 149.291 349.139 151.282L353.581 158.962C353.704 159.18 353.768 159.426 353.766 159.676C353.765 159.926 353.698 160.172 353.573 160.388C353.448 160.605 353.269 160.785 353.053 160.911C352.837 161.037 352.592 161.104 352.342 161.107H345.43C347.082 180.148 350.029 199.054 354.251 217.695C358.32 235.866 364.159 253.595 371.684 270.628C372.173 270.474 372.679 270.338 373.186 270.23C375.167 269.821 377.199 269.718 379.211 269.922C382.197 247.784 396.102 230.812 410.957 212.674C424.853 195.702 439.608 177.689 446.773 153.58L439.536 151.01C439.177 150.889 438.881 150.63 438.712 150.292C438.542 149.953 438.514 149.561 438.631 149.201C438.726 148.95 438.885 148.729 439.093 148.559L445.805 142.832C432.434 135.974 422.962 122.594 417.869 106.563C411.694 86.3806 412.097 64.7575 419.018 44.8185C425.703 25.9559 437.383 13.0551 451.433 6.09808C466.423 -1.33842 484.083 -1.98979 501.191 4.08969C517.792 9.97013 530.792 21.0706 537.921 35.5998C545.05 50.129 546.271 67.9604 539.396 87.4111C539.382 87.4765 539.361 87.5402 539.333 87.601C532.321 106.868 519.543 123.506 502.738 135.251C488.335 145.121 471.978 149.952 456.798 146.74L458.408 155.47C458.455 155.717 458.436 155.972 458.353 156.209C458.269 156.446 458.125 156.656 457.933 156.819C457.742 156.982 457.511 157.091 457.264 157.135C457.017 157.18 456.762 157.158 456.526 157.072L449.433 154.557C442.078 179.164 427.178 197.357 413.137 214.51C398.526 232.341 384.875 249.015 381.998 270.401C383.499 270.741 384.963 271.228 386.367 271.858L386.385 271.885ZM385.381 274.599C384.009 274.22 382.572 274.137 381.165 274.355C380.876 274.584 380.51 274.694 380.143 274.662H379.989C378.531 275.171 377.248 276.084 376.289 277.295C375.241 278.63 374.489 280.171 374.082 281.819C373.306 284.768 373.404 287.879 374.362 290.775C375.4 293.865 377.169 296.658 379.519 298.917C380.868 300.221 382.473 301.232 384.232 301.884C384.509 301.883 384.78 301.965 385.01 302.12C386.562 302.528 388.2 302.478 389.724 301.975C391.306 301.417 392.73 300.486 393.876 299.261C394.311 298.168 394.679 297.05 394.98 295.913C397.305 287.002 393.967 280.452 388.774 276.671C387.721 275.862 386.591 275.159 385.399 274.572L385.381 274.599ZM391.479 304.3L391.072 304.463L391.253 304.716L391.479 304.3ZM388.041 305.159C387.49 305.205 386.936 305.205 386.385 305.159C386.937 306.715 387.525 308.29 388.195 309.891C388.738 309.059 389.244 308.235 389.724 307.43C389.163 306.679 388.602 305.919 388.059 305.15L388.041 305.159ZM383.11 304.463C381.036 303.676 379.143 302.476 377.547 300.934C374.854 298.358 372.826 295.167 371.639 291.634C370.505 288.204 370.389 284.518 371.304 281.022C371.535 280.169 371.837 279.337 372.209 278.535C371.539 277.177 370.879 275.82 370.237 274.427C368.871 275.199 367.714 276.29 366.863 277.608C366.012 278.925 365.493 280.429 365.351 281.99C362.483 305.838 339.848 325.641 318.307 335.466C315.068 340.2 311.338 344.579 307.18 348.53C307.122 348.588 307.059 348.64 306.99 348.684C301.955 352.831 296.413 356.321 290.497 359.069C285.346 369.092 278.488 378.142 270.232 385.812C263.648 391.906 255.869 396.564 247.389 399.491C247.293 399.535 247.193 399.568 247.09 399.59C246.185 399.889 245.208 400.178 244.24 400.441C243.76 400.568 243.289 400.725 242.829 400.911C242.632 401.065 242.398 401.165 242.15 401.201C238.26 403.01 236.179 406.692 235.718 410.817C235.507 412.805 235.629 414.814 236.08 416.761C236.142 416.901 236.179 417.051 236.188 417.204C236.234 417.413 236.288 417.602 236.342 417.802C237.024 420.206 238.14 422.466 239.635 424.469C243.652 429.816 250.6 433.299 259.919 431.173C266.116 429.761 274.466 424.306 282.473 415.73C290.094 407.509 296.218 398.017 300.566 387.685C299.648 384.064 298.391 380.539 296.812 377.154C296.728 376.986 296.678 376.803 296.665 376.616C296.652 376.428 296.676 376.24 296.735 376.062C296.795 375.884 296.889 375.719 297.013 375.578C297.136 375.436 297.286 375.32 297.454 375.236C297.621 375.151 297.803 375.1 297.989 375.085C298.176 375.071 298.364 375.094 298.541 375.153C298.719 375.212 298.883 375.306 299.024 375.429C299.165 375.552 299.28 375.702 299.363 375.869C299.363 375.869 304.882 386.671 306.411 404.593C306.598 406.845 306.921 409.084 307.379 411.297C308.808 418.163 311.685 424.994 316.86 429.843C322.035 434.692 329.526 437.56 340.255 436.646C342.223 436.472 344.179 436.194 346.118 435.814C348.28 430.042 349.329 424.37 349.999 415.377C350.025 414.998 350.201 414.645 350.488 414.395C350.774 414.146 351.148 414.021 351.528 414.047C351.907 414.073 352.26 414.249 352.509 414.536C352.759 414.823 352.884 415.197 352.857 415.576C352.161 425.003 351.048 430.892 348.786 436.908C348.805 437.126 348.773 437.345 348.695 437.548C348.617 437.752 348.493 437.935 348.334 438.085C346.289 443.169 343.376 448.506 339.133 456.296L336.971 460.285C333.922 465.922 335.089 471.042 338.509 474.833C340.733 477.198 343.486 479.003 346.543 480.098C349.888 481.345 353.453 481.896 357.019 481.717C365.279 481.274 373.53 476.687 377.049 465.949C383.834 445.259 376.841 411.613 375.511 405.688C375.359 405.453 375.278 405.18 375.276 404.901V404.575C375.271 404.509 375.271 404.442 375.276 404.376C375.276 403.29 375.194 402.205 375.095 401.128C374.877 400.876 374.753 400.557 374.742 400.224C374.733 399.974 374.793 399.727 374.914 399.509C374.778 398.468 374.606 397.446 374.407 396.433C373.823 393.488 372.982 390.6 371.892 387.802C370.856 385.215 369.562 382.739 368.029 380.411C365.002 375.848 361.519 371.605 357.634 367.745C350.397 360.426 342.028 354.175 335.433 351.009C335.156 350.892 334.923 350.692 334.767 350.436C334.61 350.18 334.538 349.88 334.561 349.581C334.584 349.282 334.701 348.997 334.895 348.768C335.089 348.539 335.35 348.376 335.641 348.304H335.759C337.758 347.879 339.712 347.354 341.63 346.757C341.892 346.564 342.21 346.463 342.535 346.467C343.349 346.205 344.163 345.924 344.969 345.626C345.206 345.436 345.497 345.325 345.801 345.309C355.156 341.618 363.773 336.277 371.241 329.541C376.887 324.521 381.941 318.872 386.304 312.704C385.098 309.876 384.051 307.12 383.165 304.436L383.11 304.463ZM373.946 275.612L374.063 275.468C374.94 274.373 376.014 273.452 377.23 272.754C376.063 272.743 374.898 272.858 373.756 273.097C373.457 273.161 373.159 273.233 372.851 273.314C373.204 274.083 373.566 274.843 373.928 275.603L373.946 275.612ZM377.628 398.704C382.694 398.297 385.698 396.397 387.218 393.855C388.087 392.353 388.546 390.65 388.548 388.915C388.557 387.044 388.229 385.187 387.58 383.433C386.114 379.398 383.246 376.059 380.342 375.643C378.566 375.393 376.755 375.676 375.14 376.457C373.53 377.263 372.099 378.387 370.933 379.76C372.353 381.986 373.565 384.34 374.552 386.789C375.701 389.743 376.591 392.791 377.212 395.899C377.393 396.804 377.547 397.754 377.682 398.704H377.628ZM363.958 350.62H364.003C370.698 351.108 376.832 350.773 381.31 349.715C383.888 349.082 385.833 348.213 386.928 347.128C387.346 346.745 387.627 346.236 387.727 345.679C387.826 345.121 387.74 344.546 387.48 344.043C386.376 341.528 382.613 338.325 375.249 334.453C374.525 334.082 373.837 333.702 373.177 333.34L371.965 332.662C365.257 338.503 357.697 343.286 349.546 346.847C351.128 347.516 352.743 348.102 354.386 348.602H354.504C357.594 349.534 360.757 350.209 363.958 350.62ZM324.749 328.907C324.351 328.274 323.953 327.623 323.555 326.962L323.175 326.311C322.609 327.798 321.957 329.251 321.22 330.662L321.076 330.934C322.152 330.364 323.383 329.694 324.749 328.907ZM324.351 322.574C324.884 323.543 325.436 324.511 326.015 325.479C326.395 326.121 326.793 326.772 327.209 327.424C334.113 323.256 340.491 318.274 346.208 312.587C338.165 304.019 332.638 295.298 327.617 287.464C323.156 280.461 319.158 274.174 314.272 269.47C311.764 267.021 308.801 265.085 305.551 263.77C300.637 261.84 295.245 261.479 290.117 262.739C285.672 263.749 281.598 265.984 278.356 269.189C277.541 270.027 276.824 270.956 276.221 271.957C277.925 272.411 279.593 272.985 281.215 273.676L281.378 273.586C283.531 272.337 285.953 271.625 288.439 271.508C290.925 271.392 293.402 271.875 295.663 272.916C300.089 275.044 303.805 278.406 306.365 282.597C306.727 283.166 307.08 283.755 307.424 284.406C308.021 285.482 308.582 286.55 309.107 287.627C309.559 288.531 310.011 289.436 310.409 290.341C312.453 291.887 314.38 293.584 316.172 295.416C321.058 300.437 324.043 305.91 324.957 311.827C325.483 315.419 325.28 319.081 324.36 322.593L324.351 322.574ZM297.346 285.519C295.202 284.415 293.03 283.167 290.877 281.9C276.031 273.36 265.066 269.234 249.442 283.04C237.853 293.254 236.559 302.436 238.586 311.329C238.621 311.393 238.652 311.46 238.676 311.528C238.73 311.686 238.757 311.851 238.758 312.017C239.598 315.136 240.656 318.192 241.924 321.163C242.004 321.289 242.062 321.426 242.096 321.57C242.431 322.394 242.784 323.217 243.127 324.04C244.077 326.329 245.036 328.609 245.887 330.907C248.601 338.316 251.831 344.405 255.531 349C259.53 354.003 264.098 357.323 269.264 358.798C274.43 360.273 280.211 359.902 286.652 357.531C287.249 357.314 287.855 357.07 288.462 356.817C288.608 356.628 288.801 356.479 289.021 356.384C289.24 356.289 289.481 356.251 289.719 356.274C295.287 353.644 300.507 350.335 305.262 346.422C309.351 342.545 313.006 338.234 316.163 333.566C316.188 333.521 316.219 333.478 316.254 333.44C317.158 332.038 317.973 330.662 318.678 329.305C321.836 323.217 322.921 317.544 322.107 312.207C321.293 306.869 318.57 301.957 314.11 297.361C309.649 292.765 302.964 288.432 297.346 285.51V285.519ZM305.56 286.939C305.352 286.532 305.135 286.134 304.918 285.745C304.619 285.211 304.294 284.668 303.95 284.125C301.691 280.408 298.409 277.421 294.496 275.522C292.951 274.809 291.279 274.414 289.578 274.361C287.878 274.308 286.184 274.598 284.599 275.214C287.186 276.499 289.737 277.928 292.297 279.439C294.387 280.642 296.477 281.846 298.63 282.977C301.091 284.252 303.398 285.573 305.533 286.939H305.56ZM228.888 422.768C229.792 421.719 230.597 420.669 231.366 419.647C232.009 418.742 232.615 417.919 233.176 417.06C232.717 414.908 232.601 412.698 232.832 410.51C233.393 405.498 235.917 401.056 240.631 398.749C243.345 383.098 237.527 367.99 232.398 354.682C229.765 347.86 227.313 341.491 226.219 335.683C225.215 330.328 225.405 324.565 227.368 319.833C228.851 316.011 231.775 312.922 235.51 311.23C234.995 308.971 234.74 306.661 234.75 304.345C228.777 304.782 223.162 307.358 218.936 311.601C214.243 316.336 211.477 322.646 211.174 329.305C210.712 336.063 211.979 343.409 213.381 351.606C216.358 369.012 219.976 390.163 209.672 418.39C206.958 425.772 206.252 430.567 206.958 433.299C207.028 433.811 207.243 434.293 207.578 434.687C207.913 435.082 208.354 435.372 208.849 435.524C210.398 435.744 211.977 435.482 213.372 434.773C217.796 432.964 223.468 428.567 228.942 422.804L228.888 422.768ZM236.288 314.007C233.421 315.445 231.192 317.9 230.037 320.892C228.3 325.071 228.137 330.255 229.05 335.113C230.1 340.695 232.506 346.929 235.085 353.623C240.178 366.832 245.941 381.777 243.734 397.6C244.394 397.419 245.045 397.229 245.688 397.021C245.778 396.786 245.86 396.541 245.95 396.288C246.101 395.86 246.255 395.399 246.411 394.904C253.378 372.748 247.579 356.763 242.838 343.672C241.271 339.632 239.956 335.499 238.903 331.296C238.481 329.518 238.292 327.694 238.342 325.868C238.38 324.519 238.643 323.186 239.12 321.923C238.041 319.347 237.096 316.717 236.288 314.043V314.007ZM286.363 360.671C279.822 362.86 273.86 363.104 268.459 361.575C262.714 359.938 257.657 356.292 253.287 350.81C249.37 345.915 246.004 339.555 243.173 331.893C242.558 330.21 241.879 328.536 241.191 326.881C241.232 328.164 241.402 329.44 241.698 330.69C242.728 334.772 244.009 338.788 245.534 342.713C250.428 356.22 256.39 372.712 249.153 395.772V395.827C256.219 392.98 262.711 388.876 268.314 383.713C275.527 377.046 281.635 369.274 286.408 360.689L286.363 360.671ZM312.155 429.011C303.914 439.867 298.223 443.187 282.988 452.216L279.08 454.532C273.579 457.798 271.969 462.8 272.964 467.812C273.662 470.982 275.104 473.941 277.171 476.443C279.394 479.227 282.165 481.524 285.313 483.192C292.632 487.046 302.068 487.326 310.59 479.899C316.417 474.833 321.6 467.432 325.97 459.761C329.612 453.275 332.842 446.567 335.641 439.677C326.522 439.523 319.809 436.501 314.933 431.942C313.963 431.03 313.056 430.054 312.219 429.02L312.155 429.011ZM290.805 337.791C291.597 338.004 292.42 338.081 293.238 338.017C294.431 338.017 295.576 337.546 296.423 336.706C296.594 336.506 296.737 336.284 296.848 336.045C297.012 335.703 297.306 335.441 297.664 335.315C298.022 335.19 298.415 335.211 298.757 335.376C299.099 335.54 299.361 335.834 299.487 336.192C299.613 336.55 299.591 336.943 299.426 337.285C299.206 337.747 298.926 338.179 298.594 338.569C297.929 339.284 297.126 339.857 296.234 340.254C295.341 340.65 294.378 340.862 293.401 340.876C292.779 340.909 292.156 340.891 291.538 340.822C291.53 341.429 291.469 342.035 291.357 342.631C291.222 343.598 290.892 344.528 290.389 345.365C289.885 346.201 289.217 346.927 288.425 347.499C287.994 347.774 287.529 347.993 287.041 348.15C286.681 348.27 286.288 348.242 285.949 348.072C285.61 347.903 285.352 347.605 285.232 347.245C285.112 346.885 285.14 346.492 285.309 346.153C285.479 345.814 285.777 345.556 286.136 345.436C286.385 345.348 286.622 345.229 286.842 345.083C287.308 344.723 287.698 344.273 287.989 343.761C288.279 343.248 288.464 342.683 288.534 342.098C288.702 341.294 288.733 340.468 288.624 339.655C287.43 338.406 283.775 334.182 282.129 332.282C279.08 333.838 274.538 333.395 274.52 333.395C274.333 333.375 274.152 333.32 273.986 333.231C273.82 333.141 273.674 333.021 273.555 332.875C273.436 332.729 273.347 332.561 273.293 332.381C273.239 332.201 273.221 332.012 273.24 331.825C273.259 331.638 273.315 331.456 273.404 331.291C273.493 331.125 273.614 330.979 273.76 330.86C273.906 330.741 274.073 330.652 274.253 330.598C274.434 330.544 274.623 330.526 274.81 330.545C274.81 330.545 279.523 331.015 281.441 329.323C283.359 327.632 283.486 322.909 283.486 322.891C283.495 322.512 283.655 322.152 283.93 321.891C284.205 321.63 284.572 321.488 284.951 321.498C285.33 321.508 285.69 321.667 285.951 321.942C286.213 322.217 286.354 322.584 286.345 322.964C286.345 322.964 286.218 327.541 284.291 330.373C285.983 332.255 289.719 336.425 290.796 337.737L290.805 337.791ZM340.563 151.616L336.736 158.32H349.863L346.018 151.662C345.113 151.716 344.209 151.752 343.304 151.752C342.399 151.752 341.495 151.752 340.59 151.662L340.563 151.616ZM387.498 22.5543C376.407 11.101 360.71 4.89485 343.295 4.89485C325.88 4.89485 310.192 11.101 299.092 22.5543C288.688 33.2929 282.264 48.6725 282.264 67.8518C282.409 88.3397 289.062 108.251 301.263 124.711C312.21 139.186 327.02 148.794 343.277 148.794C359.534 148.794 374.344 139.159 385.3 124.711C397.5 108.251 404.154 88.3397 404.298 67.8518C404.298 48.6363 397.911 33.2567 387.507 22.5181L387.498 22.5543ZM448.963 141.185L449.08 141.24C450.085 141.692 451.107 142.144 452.156 142.479C453.224 142.859 454.301 143.185 455.377 143.474C470.35 147.464 486.725 142.796 501.2 132.917C517.535 121.501 529.948 105.321 536.745 86.5878C543.385 67.8699 542.173 50.7352 535.433 36.8935C528.693 23.0519 516.181 12.449 500.295 6.81278C483.875 0.995668 467.002 1.60181 452.717 8.68548C439.319 15.3349 428.164 27.6838 421.732 45.7775C415.012 65.1316 414.619 86.1208 420.61 105.713C425.712 121.762 435.338 135.016 448.963 141.167V141.185ZM448.673 144.189L442.82 149.183L448.981 151.372L455.151 153.562L453.758 145.998C452.925 145.763 452.093 145.492 451.27 145.202L451.071 145.139C450.248 144.84 449.433 144.524 448.637 144.18L448.673 144.189Z" fill="#1A1A1A"/>
<path d="M447.687 57.5016L460.488 61.817L476.021 51.8655L462.659 48.5905L447.732 57.5469L447.687 57.5016ZM468.494 63.9158L490.858 69.3982L482.562 54.9233L468.494 63.9701V63.9158ZM498.983 71.2619L512.3 73.3426L503.207 58.4968L489.827 55.1856L498.992 71.2347L498.983 71.2619ZM520.903 75.6677C521.136 76.0125 521.296 76.401 521.374 76.8097C521.452 77.2183 521.446 77.6386 521.356 78.0448C521.266 78.451 521.095 78.8347 520.852 79.1726C520.61 79.5105 520.301 79.7954 519.944 80.0102L470.521 114.261C470.399 114.36 470.269 114.448 470.132 114.524H470.087L469.779 114.669L469.571 114.732H469.263L468.757 114.786H468.63H468.386H468.268H468.205C467.713 114.703 467.248 114.505 466.848 114.207C466.472 113.94 466.163 113.59 465.943 113.185L437.699 59.7091C437.519 59.3589 437.406 58.9786 437.364 58.5873C437.337 58.285 437.353 57.9806 437.409 57.6826V57.6102C437.425 57.5334 437.446 57.4578 437.473 57.384C437.523 57.208 437.593 57.0381 437.681 56.8774V56.8231V56.7688C437.94 56.323 438.307 55.9496 438.748 55.6832L460.461 42.6648C460.842 42.4362 461.269 42.2934 461.711 42.2465C462.153 42.1997 462.6 42.2498 463.021 42.3934L484.091 47.5501H484.236H484.309C484.374 47.5598 484.438 47.578 484.498 47.6044L505.804 52.8244C506.195 52.917 506.563 53.0863 506.887 53.3223C507.212 53.5584 507.486 53.8565 507.695 54.1995L520.84 75.6405L520.903 75.6677ZM510.336 79.2321L498.404 77.4228L482.472 98.5924L510.336 79.2774V79.2321ZM491.827 75.921L464.631 69.2716L470.44 104.319L491.808 75.921H491.827ZM458.136 67.5074L446.709 63.6444L462.469 93.6166L458.136 67.5074Z" fill="#FFE688"/>
<path d="M188.673 592.423C190.908 600.755 201.782 636.418 226.879 646.794C243.733 645.193 256.082 634.826 259.972 631.153C253.739 627.425 231.845 612.787 225.82 587.655C211.788 591.898 194.328 592.387 188.673 592.423ZM226.173 649.563C196.083 637.44 185.516 591.428 185.462 591.301L185.046 589.492H186.855C186.927 589.492 209.744 589.872 226.435 584.389L227.955 583.892L228.281 585.466C234.387 614.506 262.912 629.47 262.994 629.515L264.64 630.42L263.365 631.777C263.319 631.822 248.573 647.735 226.788 649.635H226.453L226.173 649.563Z" fill="#1A1A1A"/>
<path fill-rule="evenodd" clip-rule="evenodd" d="M227.295 306.054C227.21 307.888 226.784 309.689 226.037 311.365C222.418 319.507 216.348 326.22 222.156 347.308C227.964 368.396 247.885 413.576 211.128 435.442C211.883 435.271 212.621 435.035 213.335 434.737C217.759 432.927 223.432 428.531 228.905 422.768C229.81 421.718 230.615 420.669 231.384 419.647C232.026 418.742 232.632 417.919 233.193 417.059C232.734 414.908 232.618 412.697 232.849 410.509C233.41 405.497 235.934 401.055 240.648 398.748C243.362 383.097 237.545 367.989 232.415 354.681C229.783 347.86 227.331 341.491 226.236 335.683C225.232 330.327 225.422 324.564 227.385 319.833C228.869 316.01 231.792 312.921 235.527 311.229C235.013 308.971 234.758 306.661 234.767 304.345C232.177 304.479 229.632 305.074 227.249 306.1L227.295 306.054Z" fill="#666666"/>
<path d="M188.673 592.423C190.908 600.755 201.782 636.418 226.879 646.795C243.733 645.193 256.082 634.826 259.972 631.153C253.739 627.425 231.845 612.788 225.82 587.655C211.788 591.898 194.328 592.387 188.673 592.423Z" fill="white"/>
<path d="M188.673 592.423C190.908 600.755 201.782 636.418 226.879 646.795C243 645.257 255.005 635.703 259.447 631.668C223.712 628.818 205.012 606.726 196.472 592.188C193.106 592.36 190.383 592.414 188.701 592.423H188.673Z" fill="#E6E6E6"/>
<path fill-rule="evenodd" clip-rule="evenodd" d="M133.894 465.912C134.41 465.487 135.469 465.912 136.274 466.817C137.079 467.721 137.314 468.888 136.807 469.314C136.301 469.739 135.233 469.314 134.428 468.409C133.623 467.504 133.388 466.346 133.894 465.912Z" fill="white"/>
<path fill-rule="evenodd" clip-rule="evenodd" d="M283.693 298.319C284.173 297.858 285.267 298.211 286.127 299.097C286.986 299.984 287.303 301.097 286.823 301.558C286.344 302.02 285.249 301.667 284.39 300.771C283.53 299.875 283.214 298.781 283.693 298.319Z" fill="white"/>
<path fill-rule="evenodd" clip-rule="evenodd" d="M251.016 327.387C251.558 326.998 252.59 327.496 253.314 328.5C254.037 329.504 254.218 330.644 253.666 331.033C253.115 331.422 252.092 330.924 251.369 329.92C250.645 328.916 250.464 327.785 251.016 327.387Z" fill="white"/>
<path d="M206.532 624.983C206.242 624.187 205.971 623.381 205.691 622.585C205.41 621.789 204.786 619.98 204.026 617.447C203.972 617.302 203.926 617.148 203.872 617.003C203.856 616.956 203.856 616.905 203.872 616.859C204.885 616.859 205.908 616.859 206.921 616.859C206.921 616.859 207.057 616.994 207.247 617.257C207.437 617.519 207.654 617.872 207.934 618.279L208.513 619.111C208.948 619.726 209.373 620.342 209.816 620.921C209.572 620.26 209.337 619.591 209.092 618.912C209.038 618.74 208.92 618.424 208.767 617.953L208.387 616.868C208.387 616.768 208.568 616.696 209.047 616.65H209.662L210.142 616.605H210.476C210.522 616.605 210.549 616.605 210.558 616.605C210.92 617.552 211.423 618.897 212.069 620.64C212.494 621.798 212.973 622.947 213.362 624.105C213.362 624.196 213.281 624.259 213.118 624.295H213.001L212.322 624.431L211.644 624.566L210.332 624.766C210.142 624.583 209.978 624.376 209.843 624.15C209.536 623.734 209.092 623.101 208.513 622.269L207.536 620.857L207.862 621.762C208.007 622.169 208.106 622.477 208.179 622.667C208.251 622.857 208.323 623.047 208.432 623.354C208.54 623.662 208.631 623.888 208.685 624.033C208.739 624.178 208.839 624.476 208.92 624.693C209.002 624.91 208.92 624.937 208.83 624.956L206.785 625.118L206.55 624.992L206.532 624.983Z" fill="#1A1A1A"/>
<path d="M212.648 620.215C212.488 619.801 212.376 619.37 212.313 618.93C212.263 618.585 212.263 618.235 212.313 617.89C212.364 617.607 212.462 617.335 212.602 617.085C212.725 616.85 212.887 616.639 213.082 616.461C213.273 616.29 213.483 616.142 213.706 616.017C213.925 615.891 214.156 615.785 214.394 615.701C214.615 615.619 214.842 615.553 215.072 615.502L215.588 615.402H216.185C216.402 615.379 216.62 615.379 216.836 615.402C217.055 615.438 217.27 615.493 217.479 615.565C217.699 615.643 217.906 615.752 218.094 615.891C218.297 616.043 218.472 616.229 218.61 616.442C218.762 616.676 218.895 616.921 219.008 617.175C219.008 617.266 218.962 617.347 218.782 617.41C218.601 617.474 218.148 617.609 217.651 617.745L216.538 618.035C216.516 618.034 216.494 618.029 216.473 618.02C216.453 618.01 216.435 617.997 216.42 617.98C216.385 617.949 216.354 617.912 216.33 617.872L216.239 617.736L216.122 617.619C216.072 617.579 216.013 617.553 215.95 617.546C215.863 617.533 215.774 617.533 215.687 617.546C215.575 617.573 215.469 617.626 215.38 617.7C215.307 617.762 215.248 617.839 215.208 617.926C215.169 618.027 215.15 618.135 215.154 618.243C215.154 618.369 215.154 618.487 215.154 618.587C215.176 618.715 215.206 618.842 215.244 618.966L215.353 619.319C215.353 619.401 215.425 619.518 215.479 619.654L215.552 619.808L215.597 619.935C215.597 619.935 215.597 620.025 215.66 620.079L215.76 620.333L215.887 620.586C215.935 620.674 215.989 620.759 216.049 620.839L216.239 621.038C216.316 621.101 216.401 621.153 216.493 621.192C216.59 621.222 216.69 621.24 216.791 621.246C216.913 621.249 217.035 621.233 217.153 621.201C217.433 621.126 217.698 621.007 217.94 620.848C217.859 620.658 217.786 620.468 217.705 620.269L217.506 620.333L217.18 620.432H217.054L216.909 620.486L216.665 620.333L216.149 619.012C216.125 618.903 216.144 618.789 216.203 618.695L216.529 618.605L217.352 618.397L218.094 618.179L218.456 618.062L218.863 617.935C218.975 617.905 219.091 617.887 219.207 617.881C219.301 617.85 219.402 617.85 219.496 617.881C219.659 618.279 219.885 618.876 220.184 619.69C220.482 620.504 220.709 621.02 220.844 621.364V621.409C220.858 621.443 220.873 621.476 220.889 621.509C220.835 621.671 220.546 621.898 219.985 622.196C219.548 622.451 219.087 622.663 218.61 622.83H218.501L218.13 622.965L217.768 623.11C217.25 623.297 216.698 623.369 216.15 623.321C215.601 623.272 215.07 623.105 214.593 622.83C213.615 622.187 212.888 621.229 212.53 620.115L212.648 620.215Z" fill="#1A1A1A"/>
<path d="M230.289 615.275L230.407 615.492L230.552 615.773L230.705 616.071C230.755 616.174 230.797 616.28 230.832 616.388C230.868 616.481 230.892 616.579 230.904 616.678C230.927 616.757 230.927 616.842 230.904 616.922C230.894 616.958 230.877 616.992 230.854 617.022C230.831 617.051 230.802 617.076 230.769 617.094C230.072 617.519 229.385 617.935 228.688 618.333C228.498 618.333 228.254 617.962 227.946 617.302L227.548 616.397L227.222 615.655L227.087 615.357L227.014 615.212C226.984 615.161 226.959 615.106 226.942 615.049C227.005 615.529 227.114 616.189 227.286 617.049C227.458 617.908 227.557 618.478 227.602 618.767C227.602 618.858 227.494 618.976 227.24 619.111L225.63 619.934C225.431 620.034 225.286 620.052 225.214 619.934C224.798 619.401 224.4 618.849 223.993 618.306L223.604 617.781C223.477 617.6 223.323 617.392 223.142 617.157L222.762 616.632C223.124 617.6 223.423 618.333 223.667 618.831C223.775 619.084 223.884 619.346 224.002 619.6C224.119 619.853 224.264 620.206 224.345 620.378C224.427 620.55 224.345 620.495 224.291 620.513L223.866 620.712C223.685 620.794 223.423 620.921 223.079 621.065L222.301 621.391C222.138 621.463 222.038 621.463 222.02 621.391C221.55 620.278 221.116 619.147 220.618 618.017C220.12 616.886 219.713 615.746 219.225 614.588C219.218 614.575 219.215 614.561 219.215 614.547C219.215 614.533 219.218 614.519 219.225 614.506C219.225 614.506 219.225 614.506 219.27 614.443L219.342 614.389L219.433 614.344H219.541H219.641H219.722L220.256 614.163C221.116 613.846 221.722 613.629 222.066 613.511C222.409 613.394 222.699 613.294 222.889 613.213C223.133 613.584 223.495 614.117 223.984 614.832C224.345 615.366 224.716 615.891 225.087 616.415C224.816 615.122 224.544 613.837 224.282 612.543H224.373C224.698 612.389 225.187 612.163 225.811 611.847C226.435 611.53 226.915 611.268 227.24 611.096C227.566 610.924 227.684 610.851 227.91 610.743C228 610.743 228.073 610.743 228.145 610.906C229.439 613.556 230.172 614.995 230.325 615.302L230.289 615.275Z" fill="#1A1A1A"/>
<path d="M231.818 616.397C231.456 615.619 231.23 615.031 231.058 614.66C230.552 613.511 230.018 612.353 229.484 611.159C229.385 610.933 229.285 610.77 229.231 610.652L229.176 610.535L229.023 610.245C229.008 610.216 229 610.183 229 610.15C229 610.117 229.008 610.085 229.023 610.055C229.529 609.802 230.298 609.359 231.33 608.725C231.501 608.62 231.668 608.505 231.827 608.382C232.316 609.386 232.795 610.399 233.293 611.403C233.79 612.407 234.27 613.366 234.767 614.343C233.772 615.049 232.786 615.746 231.8 616.397H231.818Z" fill="#1A1A1A"/>
<path d="M308.59 59.7543L322.034 60.5052L334.338 46.7269L320.586 47.134L308.59 59.7543ZM330.366 60.3695L353.382 59.7091L341.512 47.9482L330.366 60.3695ZM361.705 59.311L375.094 57.7549L362.365 45.8764L348.596 46.2926L361.705 59.311ZM384.014 57.7097C384.609 58.2161 384.985 58.9323 385.064 59.7091C385.115 60.1552 385.069 60.6072 384.929 61.0337C384.788 61.4602 384.556 61.8509 384.25 62.1789L345.755 108.39C345.66 108.514 345.557 108.632 345.447 108.743C345.367 108.817 345.282 108.887 345.194 108.951L345.013 109.069H344.968H344.877C344.726 109.142 344.569 109.203 344.407 109.25H344.353H344.289L344.054 109.304H343.937H343.873C343.379 109.362 342.879 109.296 342.417 109.114C341.993 108.948 341.61 108.692 341.295 108.363L299.561 64.5401C299.29 64.2564 299.077 63.9211 298.937 63.554C298.828 63.2635 298.761 62.9588 298.738 62.6493V62.5769C298.734 62.4986 298.734 62.42 298.738 62.3417C298.745 62.1564 298.767 61.9719 298.801 61.7898V61.7175V61.6541C298.931 61.1529 299.19 60.6944 299.552 60.3242L316.968 41.9863C317.275 41.6677 317.648 41.4188 318.06 41.2565C318.472 41.0942 318.914 41.0222 319.356 41.0454L341.069 40.3941H341.485L363.424 39.7336C363.823 39.7202 364.222 39.786 364.596 39.9273C364.97 40.0686 365.313 40.2826 365.604 40.5569L384.005 57.7459L384.014 57.7097ZM374.768 63.9611L362.781 65.3543L353.074 90.016L374.787 63.9611H374.768ZM356.05 65.7162L328.068 66.5666L343.032 98.7824L356.05 65.7162ZM321.337 66.6208L309.287 65.9514L332.483 90.6221L321.337 66.6028V66.6208Z" fill="#FF7272"/>
</g>
<defs>
<clipPath id="clip0_63_5">
<rect width="544" height="683" fill="white"/>
</clipPath>
</defs>
</svg>
