<svg width="195" height="175" viewBox="0 0 195 175" fill="none" xmlns="http://www.w3.org/2000/svg">
<path d="M139.997 48H55.0029C47.8354 48 42 53.842 42 61.081V146.933C42 154.172 47.8354 160.014 55.0029 160.014H126.931L123.569 148.266L131.688 155.823L139.363 162.935L153 175V61.081C153 53.842 147.165 48 139.997 48ZM115.514 130.931C115.514 130.931 113.23 128.2 111.327 125.787C119.637 123.438 122.808 118.231 122.808 118.231C120.207 119.945 117.734 121.152 115.514 121.977C112.342 123.311 109.298 124.2 106.317 124.708C100.227 125.851 94.6457 125.533 89.8886 124.644C86.2731 123.946 83.1651 122.93 80.5646 121.914C79.1057 121.342 77.52 120.644 75.9343 119.755C75.744 119.628 75.5537 119.564 75.3634 119.437C75.2366 119.374 75.1731 119.31 75.1097 119.247C73.968 118.612 73.3337 118.167 73.3337 118.167C73.3337 118.167 76.3783 123.247 84.4337 125.66C82.5309 128.073 80.184 130.931 80.184 130.931C66.1663 130.486 60.8383 121.279 60.8383 121.279C60.8383 100.832 69.972 84.2585 69.972 84.2585C79.1057 77.4005 87.7954 77.591 87.7954 77.591L88.4297 78.353C77.0126 81.655 71.748 86.6715 71.748 86.6715C71.748 86.6715 73.1434 85.9095 75.4903 84.83C82.2771 81.8455 87.6686 81.02 89.8886 80.8295C90.2691 80.766 90.5863 80.7025 90.9669 80.7025C94.836 80.1945 99.2126 80.0675 103.779 80.5755C109.805 81.274 116.275 83.052 122.871 86.6715C122.871 86.6715 117.861 81.909 107.078 78.607L107.966 77.591C107.966 77.591 116.655 77.4005 125.789 84.2585C125.789 84.2585 134.923 100.832 134.923 121.279C134.923 121.279 129.531 130.486 115.514 130.931ZM86.0194 101.276C82.404 101.276 79.5497 104.451 79.5497 108.325C79.5497 112.198 82.4674 115.373 86.0194 115.373C89.6349 115.373 92.4891 112.198 92.4891 108.325C92.5526 104.451 89.6349 101.276 86.0194 101.276ZM109.171 101.276C105.555 101.276 102.701 104.451 102.701 108.325C102.701 112.198 105.619 115.373 109.171 115.373C112.786 115.373 115.641 112.198 115.641 108.325C115.641 104.451 112.786 101.276 109.171 101.276Z" fill="#7289DA"/>
</svg>
