<svg width="450" height="450" fill="none" xmlns="http://www.w3.org/2000/svg">
  <g clip-path="url(#a)">
    <path fill-rule="evenodd" clip-rule="evenodd" d="M450 225.006c0 124.395-100.707 225.231-224.927 225.231C100.852 450.237.14 349.395.14 225.006.14 100.612 100.846-.225 225.067-.225 349.287-.225 450 100.612 450 225.006Z" fill="url(#b)"/>
    <path d="M160.986 324.395c1.658-4.925 4.409-9.444 8.277-12.922a26.365 26.365 0 0 1 8.338-5.078c-.279-.267-.558-.535-.832-.802-8.55-8.429-14.344-19.363-17.575-31.379a173.697 173.697 0 0 0-1.238 8.106c-.717 5.601-1.027 10.521-.735 14.096l.261 3.509c.534 7.322 1.275 17.441 3.504 24.47Z" fill="#666"/>
    <path d="M182.168 310.281c-3.789.906-6.959 2.651-9.522 4.956-3.607 3.241-6.049 7.614-7.367 12.363-1.33 4.81-1.494 10.003-.534 14.832.899 4.506 2.775 8.653 5.599 11.803 1.725 1.922 3.784 3.77 6.091 5.522 8.709 6.598 20.855 11.706 32.223 13.901 11.01 2.128 21.127 1.557 26.253-3.059.486-.438.929-.912 1.318-1.429 4.506-5.959 4.141-13.913.905-21.995-3.893-9.724-11.855-19.545-20.715-26.605-4.093 1.028-8.733 1.04-13.84-.328-7.828-2.104-14.617-5.528-20.411-9.961Z" fill="#999"/>
    <path d="M164.289 339.361c.104 1.034.256 2.061.456 3.065.899 4.506 2.775 8.653 5.599 11.803 1.725 1.922 3.784 3.77 6.091 5.522 8.709 6.598 20.854 11.706 32.223 13.901 11.01 2.128 21.127 1.557 26.253-3.059.486-.438.929-.912 1.318-1.429 4.506-5.959 4.141-13.913.905-21.995-3.893-9.724-11.855-19.545-20.715-26.605-4.093 1.028-8.733 1.04-13.84-.328l-.79-.219c3.274 3.886 8.351 9.73 13.428 14.819 8.514 8.526 12.461 26.484-13.683 24.051-26.113-2.432-37.226-19.496-37.245-19.526Z" fill="#666"/>
    <path d="M302.83 350.076a24.4 24.4 0 0 1-2.393-3.163c-3.237-5.059-4.779-15.537-.486-21.07-.133 5.016 1.087 12.63 4.737 18.34 2.436 3.807 6 6.726 11.029 7.249 4.828.504 11.326-5.048 17.392-13.214 6.82-9.183 12.82-21.527 15.377-32.632 1.925-8.361-1.221-15.452-6.565-20.262-2.672-2.408-5.885-4.25-9.297-5.418-3.413-1.168-7.009-1.654-10.428-1.344-6.273.572-12.036 3.874-15.072 10.679a61.104 61.104 0 0 1-5.77 11.213 71.554 71.554 0 0 1-1.318 1.928c-1.736 2.444-3.607 4.427-5.568 5.996a46.828 46.828 0 0 1-1.355 8.264c-2.987 11.548-10.123 19.855-18.795 25.151-.814.499-1.646.967-2.484 1.411 7.603 2.025 20.277 5.193 30.996 6.872Z" fill="#999"/>
    <path d="M302.83 350.076a24.459 24.459 0 0 1-2.393-3.162c-3.237-5.06-4.779-15.538-.486-21.071-.133 5.016 1.087 12.63 4.737 18.34 2.436 3.807 6 6.726 11.029 7.249 4.828.504 11.326-5.048 17.392-13.214 4.64-6.246 8.897-13.95 11.952-21.74-8.089 16.06-17.909 28.404-30.741 24.452-12.832-3.959 1.233-60.537 1.245-60.574-3.529 1.703-6.522 4.597-8.441 8.885a61.104 61.104 0 0 1-5.77 11.213 71.554 71.554 0 0 1-1.318 1.928c-1.736 2.444-3.607 4.427-5.568 5.996a46.813 46.813 0 0 1-1.355 8.264c-2.987 11.548-10.123 19.855-18.795 25.151-.814.499-1.646.967-2.484 1.411 7.603 2.025 20.277 5.193 30.996 6.872ZM153.862 314.933c-.728-5.126-1.111-10.344-1.421-14.655-.085-1.144-.164-2.214-.261-3.467-.206-2.584-.139-5.783.158-9.389-2.028-1.009-4.397-1.818-6.868-1.976-2.272-.146-4.658.261-6.966 1.593-3.431 1.977-5.344 7.681-5.156 13.585.085 2.597.589 5.2 1.567 7.523.935 2.219 2.314 4.177 4.172 5.594 3.213 2.445 8.034 3.308 14.775 1.192Z" fill="#666"/>
    <path d="M185.047 187.547c-.407.358-.832.766-1.264 1.21-9.103 9.261-15.643 21.788-19.287 35.416-3.692 13.792-4.415 28.672-1.846 42.434 2.55 13.652 8.332 26.179 17.666 35.38 6.225 6.135 14.046 10.806 23.575 13.36 8.599 2.304 15.492-.146 20.162-4.719 2.38-2.335 4.208-5.218 5.405-8.301 1.202-3.095 1.773-6.391 1.645-9.541-.23-5.649-2.739-10.824-7.955-13.421a82.105 82.105 0 0 1-6.055-3.339c-14.01-8.556-23.635-20.542-27.996-33.969-4.378-13.481-3.449-28.374 3.65-42.683a68.243 68.243 0 0 1 2.842-5.15 24.19 24.19 0 0 0 .826-1.46 69.927 69.927 0 0 1-2.648-.961c-3.188-1.246-6.091-2.663-8.72-4.256Z" fill="#999"/>
    <path d="M185.047 187.547c-.407.358-.832.766-1.264 1.21-9.103 9.261-15.643 21.788-19.287 35.416-3.692 13.792-4.415 28.672-1.846 42.434 2.55 13.652 8.332 26.179 17.666 35.38 6.225 6.135 14.046 10.806 23.575 13.36 8.599 2.304 15.492-.146 20.162-4.719 2.38-2.335 4.208-5.218 5.405-8.301 1.202-3.095 1.773-6.391 1.645-9.541-.115-2.895-.832-5.674-2.21-8.033-13.859 28.064-59.867 10.952-60.942-29.171-.844-31.391 13.956-56.585 20.502-66.138a53.696 53.696 0 0 1-3.406-1.897Z" fill="#666"/>
    <path d="M185.047 187.547c-.407.358-.832.766-1.264 1.21a63.819 63.819 0 0 0-4.469 5.059c3.364 2.348 7.257 4.385 11.69 6.106.413.158.832.316 1.257.474a68.243 68.243 0 0 1 3.34-6.178 24.19 24.19 0 0 0 .826-1.46 69.927 69.927 0 0 1-2.648-.961c-3.2-1.24-6.103-2.657-8.732-4.25ZM225.553 74.256c-31.913 0-38.15 18.468-44.466 37.186-1.117 3.308-2.235 6.628-3.498 9.894-3.996 10.338-6.267 19.751-6.668 28.094-.431 8.94 1.288 16.638 5.314 22.932 4.032 6.294 10.427 11.262 19.36 14.722 7.956 3.09 17.909 4.987 29.964 5.577 12.054-.59 22.002-2.487 29.963-5.577 8.927-3.466 15.328-8.428 19.355-14.722 4.026-6.288 5.745-13.992 5.313-22.932-.668-13.822-5.86-25.224-10.166-37.988-6.322-18.718-12.552-37.186-44.471-37.186Z" fill="#666"/>
    <path d="M225.553 75.892c-27.589 0-32.976 15.963-38.436 32.138-.965 2.865-1.931 5.729-3.024 8.55-3.455 8.933-5.417 17.07-5.763 24.288-.37 7.723 1.111 14.382 4.591 19.818 3.486 5.443 9.012 9.736 16.731 12.728 6.88 2.67 15.48 4.312 25.901 4.822 10.421-.51 19.02-2.152 25.9-4.822 7.719-2.992 13.245-7.285 16.731-12.728 3.48-5.436 4.968-12.095 4.591-19.818-.577-11.943-5.064-21.8-8.787-32.838-5.46-16.175-10.846-32.138-38.435-32.138ZM263.727 188.878c2.933 5.23 5.514 13.786 8.18 22.622 1.342 4.445 2.702 8.964 4.123 13.105-.212-2.524-.649-4.938-1.378-7.218 7.597 2.371 5.799 22.536 4.433 29.481-2.344 11.925-7.166 24.026-13.33 34.06-3.972 6.464-3.109 13.336.298 18.541a19.806 19.806 0 0 0 5.471 5.546h.012c2.15 1.453 4.567 2.457 7.075 2.876 5.782.955 12.213-1.24 17.314-8.44a70.84 70.84 0 0 0 1.203-1.77c12.443-19.04 11.307-42.713 4.062-63.784-7.245-21.065-20.508-39.442-32.465-48.083a47.463 47.463 0 0 1-4.998 3.064Z" fill="#999"/>
    <path d="M264.662 282.977c-2.672 5.844-1.664 11.84 1.391 16.492a19.806 19.806 0 0 0 5.471 5.546h.012c2.15 1.453 4.567 2.457 7.075 2.876 5.782.955 12.213-1.24 17.314-8.44a70.84 70.84 0 0 0 1.203-1.77c12.443-19.04 11.307-42.713 4.062-63.784-6.583-19.144-18.133-36.061-29.162-45.475 22.604 25.723 28.919 61.036 28.008 76.561-.91 15.525-8.052 28.466-22.949 26.635-8.253-1.015-11.326-5.15-12.425-8.641Z" fill="#666"/>
    <path d="M263.727 188.878c1.19 2.123 2.32 4.792 3.425 7.802 2.982-1.623 5.635-3.429 7.974-5.424-2.15-2.092-4.3-3.916-6.407-5.442a46.761 46.761 0 0 1-4.992 3.064Z" fill="#666"/>
    <path d="M266.259 89.143c7.676-2.573 14.587-1.046 20.362 2.827 5.952 3.99 10.634 10.508 13.64 17.532.122.274.255.596.395.93 3.158 7.796 5.101 17.277 7.184 27.444 6.043 29.457 13.318 64.91 55.798 77.978l-.006.012c7.542 1.837 14.702 2.822 20.623 2.84 4.615.018 8.362-.553 10.779-1.751 1.719-.852 2.606-2.08 2.357-3.71-.565-3.648-4.956-9.042-14.703-16.461-33.898-25.802-45.759-53.812-55.518-76.859-4.567-10.788-8.666-20.457-14.332-28.1-2.963-3.996-6.279-7.115-9.777-9.481-6.923-4.682-14.539-6.403-21.474-6.172-6.893.225-13.063 2.36-17.162 5.406-.789.59-1.5 1.21-2.113 1.855a44.276 44.276 0 0 1 3.947 5.71Z" fill="#999"/>
    <path d="M329.903 202.05c-17.654-17.574-22.64-41.862-27.006-63.158-2.029-9.9-3.923-19.125-6.929-26.55l-.347-.845c-2.653-6.203-6.71-11.907-11.805-15.319-4.318-2.894-9.45-4.11-15.152-2.469 1.306 2.749 2.447 5.62 3.516 8.544 1.877.833 3.717 2.171 5.429 4.19 1.737 2.056 3.346 4.835 4.695 8.526v.012c1.955 5.357 3.315 11.341 4.779 17.799 4.33 19.125 9.625 42.477 34.67 63.408 2.484 2.073 5.229 4.032 8.15 5.862Z" fill="#666"/>
    <path d="M228.097 155.621c.031 3.667.073 10.666.006 13.196 1.318 2.189 5.46 5.759 8.636 3.46-.395 5.467-7.251 4.634-11.18 1.235-3.929 3.405-10.786 4.232-11.18-1.235 3.176 2.299 7.323-1.271 8.635-3.46-.067-2.53-.024-9.523.006-13.196-4.846-.876-11.222-4.026-5.277-9.566.012.013 4.409 4.744 7.804 4.744 3.388 0 7.791-4.731 7.803-4.744 5.946 5.534-.407 8.69-5.253 9.566ZM256.713 119.931c2.854 0 5.168 3.716 5.168 8.295s-2.314 8.294-5.168 8.294c-2.855 0-5.168-3.715-5.168-8.294 0-4.579 2.313-8.295 5.168-8.295ZM194.393 119.931c2.854 0 5.168 3.716 5.168 8.295s-2.314 8.294-5.168 8.294-5.168-3.715-5.168-8.294c0-4.579 2.314-8.295 5.168-8.295Z" fill="#fff"/>
    <path d="M121.202 202.05c2.922-1.824 5.666-3.782 8.162-5.868 25.045-20.931 30.334-44.289 34.67-63.408 1.464-6.452 2.818-12.442 4.78-17.799v-.012c1.348-3.691 2.951-6.47 4.694-8.526 1.707-2.019 3.547-3.357 5.429-4.19 1.069-2.925 2.211-5.795 3.516-8.544-5.702-1.642-10.834-.425-15.151 2.47-5.096 3.41-9.152 9.121-11.806 15.318l-.352.845c-3.006 7.425-4.901 16.65-6.929 26.55-4.373 21.302-9.359 45.59-27.013 63.164Z" fill="#666"/>
    <path d="M188.788 83.445a16.79 16.79 0 0 0-2.114-1.855c-4.099-3.047-10.275-5.181-17.162-5.406-6.935-.231-14.55 1.49-21.473 6.172-3.492 2.366-6.814 5.48-9.778 9.48-5.672 7.644-9.765 17.319-14.332 28.101-9.759 23.047-21.619 51.057-55.518 76.859-9.74 7.413-14.138 12.813-14.703 16.461-.248 1.624.638 2.852 2.35 3.71 2.418 1.198 6.17 1.763 10.78 1.751 5.921-.018 13.081-1.003 20.624-2.84l-.007-.012c42.48-13.074 49.756-48.521 55.798-77.978 2.083-10.167 4.032-19.647 7.184-27.443l.389-.937c3.012-7.017 7.688-13.536 13.646-17.532 5.781-3.873 12.686-5.4 20.368-2.827a44.657 44.657 0 0 1 3.948-5.704Z" fill="#999"/>
    <path d="M188.787 83.445a16.708 16.708 0 0 0-2.113-1.855c-2.836-2.11-6.662-3.776-11.034-4.683-1.385 2.141-3.857 4.203-7.992 5.893-16.415 6.695-28.877 19.484-33.741 52.054-4.864 32.57-30.607 80.818-80.205 79.376.17 1.156 1.003 2.068 2.363 2.737 2.417 1.198 6.17 1.763 10.78 1.751 5.92-.018 13.08-1.003 20.623-2.84l-.006-.012c42.479-13.074 49.755-48.521 55.797-77.977 2.083-10.168 4.033-19.648 7.184-27.444l.389-.937c3.012-7.017 7.688-13.536 13.646-17.532 5.781-3.873 12.686-5.4 20.368-2.827a44.105 44.105 0 0 1 3.941-5.704Z" fill="#666"/>
    <path d="M240.844 343.016a36.53 36.53 0 0 0 5.891.778c8.15.426 17.235-1.612 24.947-6.318 7.64-4.664 13.919-11.962 16.543-22.099.309-1.204.571-2.451.777-3.74-3.71 1.533-7.549 1.855-11.21 1.253-3.262-.541-6.365-1.824-9.092-3.667a25.082 25.082 0 0 1-6.886-6.975c-4.403-6.726-5.514-15.61-.377-23.972 5.867-9.547 10.446-21.052 12.674-32.375.589-3.004 1.106-5.996 1.476-8.927-3.182-6.27-5.897-15.288-8.532-24.027-2.66-8.817-5.229-17.337-7.901-21.885-.595.255-1.203.498-1.822.735-8.49 3.29-19.008 5.309-31.664 5.917h-.237c-9.14-.444-17.162-1.617-24.109-3.472l-.146.304h-.012a27.988 27.988 0 0 1-1.263 2.305 65.967 65.967 0 0 0-2.624 4.749c-6.486 13.068-7.348 26.635-3.37 38.876 3.99 12.296 12.862 23.309 25.816 31.215a76.355 76.355 0 0 0 5.654 3.125c7.068 3.515 10.469 10.356 10.767 17.763.158 3.837-.535 7.833-1.986 11.566-1.452 3.746-3.674 7.243-6.577 10.089a25.155 25.155 0 0 1-5.769 4.25c7.913 6.805 14.945 15.611 19.032 24.532Z" fill="#999"/>
    <path d="M206.32 195.422a88.497 88.497 0 0 1-4.992-1.18l-.146.304h-.012a27.694 27.694 0 0 1-1.263 2.305 65.967 65.967 0 0 0-2.624 4.749c-6.485 13.068-7.348 26.635-3.37 38.876 2.077 6.404 5.478 12.46 10.093 17.909-17.86-31.348-4.943-53.915 2.314-62.963ZM240.844 343.016a36.53 36.53 0 0 0 5.891.778c8.15.426 17.235-1.612 24.947-6.318 7.64-4.665 13.919-11.962 16.543-22.099.309-1.204.571-2.451.777-3.74-3.71 1.533-7.549 1.855-11.21 1.253-3.262-.541-6.365-1.824-9.092-3.667a25.082 25.082 0 0 1-6.886-6.975 23.244 23.244 0 0 1-3.073-6.86c-1.451 2.737-4.245 5.972-9.474 6.732-6.71.979-11.569-.979-13.809-2.189a29.62 29.62 0 0 1-1.288 4.214c-1.451 3.746-3.674 7.243-6.577 10.089a25.134 25.134 0 0 1-5.769 4.25c7.901 6.805 14.933 15.611 19.02 24.532Z" fill="#666"/>
    <path d="M262.585 198.906c-1.136-3.162-2.271-5.88-3.431-7.844-.595.255-1.203.498-1.822.735-8.49 3.29-19.008 5.309-31.664 5.917h-.237c-9.139-.444-17.162-1.617-24.109-3.472l-.146.304h-.012a27.988 27.988 0 0 1-1.263 2.305 65.967 65.967 0 0 0-2.624 4.749l-.188.383c8.016 2.354 17.478 3.831 28.458 4.366 13.9-.681 25.378-2.87 34.554-6.433a44.337 44.337 0 0 0 2.484-1.01Z" fill="#666"/>
    <path d="M160.986 324.395c1.658-4.925 4.409-9.444 8.277-12.922a26.365 26.365 0 0 1 8.338-5.078c-.279-.267-.558-.535-.832-.802-8.55-8.429-14.344-19.363-17.575-31.379a173.697 173.697 0 0 0-1.238 8.106c-.717 5.601-1.027 10.52-.735 14.096l.261 3.509c.534 7.322 1.275 17.44 3.504 24.47Zm21.182-14.114c-3.789.906-6.959 2.651-9.522 4.956-3.607 3.241-6.049 7.614-7.367 12.363-1.33 4.81-1.494 10.003-.534 14.832.899 4.506 2.775 8.653 5.599 11.803 1.725 1.922 3.784 3.77 6.091 5.522 8.709 6.598 20.855 11.706 32.223 13.901 11.01 2.128 21.127 1.557 26.253-3.059.486-.438.929-.912 1.318-1.429 4.506-5.959 4.141-13.913.905-21.995-3.893-9.724-11.855-19.545-20.715-26.605-4.093 1.028-8.733 1.04-13.84-.328-7.828-2.104-14.617-5.528-20.411-9.961Zm120.662 39.795a24.4 24.4 0 0 1-2.393-3.163c-3.237-5.059-4.779-15.537-.486-21.07-.133 5.016 1.087 12.63 4.737 18.34 2.436 3.807 6 6.726 11.029 7.249 4.828.504 11.326-5.048 17.392-13.215 6.82-9.182 12.82-21.526 15.377-32.631 1.925-8.361-1.221-15.452-6.565-20.262-2.672-2.408-5.885-4.25-9.297-5.418-3.413-1.168-7.009-1.654-10.428-1.344-6.273.572-12.036 3.874-15.072 10.679a61.104 61.104 0 0 1-5.77 11.213 71.554 71.554 0 0 1-1.318 1.928c-1.736 2.444-3.607 4.427-5.568 5.996a46.828 46.828 0 0 1-1.355 8.264c-2.987 11.548-10.123 19.855-18.795 25.151-.814.499-1.646.967-2.484 1.411 7.603 2.025 20.277 5.193 30.996 6.872Zm-148.968-35.143c-.728-5.126-1.111-10.344-1.421-14.655-.085-1.144-.164-2.214-.261-3.467-.206-2.584-.139-5.783.158-9.389-2.028-1.009-4.397-1.818-6.868-1.976-2.272-.146-4.658.261-6.966 1.593-3.431 1.977-5.344 7.681-5.156 13.585.085 2.597.589 5.2 1.567 7.523.935 2.219 2.314 4.177 4.172 5.594 3.213 2.445 8.034 3.308 14.775 1.192Zm31.185-127.386c-.407.358-.832.766-1.264 1.21-9.103 9.261-15.643 21.788-19.287 35.416-3.692 13.792-4.415 28.672-1.846 42.434 2.55 13.652 8.332 26.179 17.666 35.379 6.225 6.136 14.046 10.807 23.575 13.361 8.599 2.304 15.492-.146 20.162-4.719 2.38-2.335 4.208-5.218 5.405-8.301 1.202-3.095 1.773-6.391 1.645-9.541-.231-5.65-2.739-10.825-7.955-13.421a82.105 82.105 0 0 1-6.055-3.339c-14.01-8.556-23.635-20.542-27.996-33.969-4.378-13.481-3.449-28.374 3.65-42.683a68.243 68.243 0 0 1 2.842-5.15 24.19 24.19 0 0 0 .826-1.46 69.927 69.927 0 0 1-2.648-.961c-3.188-1.246-6.091-2.663-8.72-4.256Zm40.506-113.29c-31.913 0-38.15 18.467-44.466 37.185-1.117 3.308-2.235 6.628-3.498 9.894-3.996 10.338-6.267 19.751-6.668 28.094-.431 8.94 1.288 16.638 5.314 22.932 4.032 6.294 10.427 11.262 19.36 14.722 7.956 3.09 17.909 4.987 29.964 5.577 12.054-.59 22.002-2.487 29.963-5.577 8.927-3.466 15.328-8.428 19.355-14.722 4.026-6.288 5.745-13.992 5.313-22.932-.668-13.822-5.86-25.224-10.166-37.988-6.322-18.718-12.552-37.186-44.471-37.186Zm38.174 114.621c2.933 5.23 5.514 13.786 8.18 22.622 1.342 4.445 2.702 8.963 4.123 13.105-.212-2.524-.649-4.938-1.378-7.219 7.597 2.372 5.799 22.537 4.433 29.482-2.344 11.925-7.166 24.026-13.33 34.06-3.972 6.464-3.109 13.335.298 18.541a19.82 19.82 0 0 0 5.471 5.546h.012c2.15 1.453 4.567 2.457 7.075 2.876 5.782.955 12.213-1.24 17.314-8.44a70.84 70.84 0 0 0 1.203-1.77c12.443-19.04 11.307-42.713 4.062-63.784-7.245-21.065-20.508-39.442-32.465-48.084a47.302 47.302 0 0 1-4.998 3.065Zm2.532-99.735c7.676-2.573 14.587-1.046 20.362 2.827 5.952 3.99 10.634 10.508 13.64 17.532.122.274.255.596.395.93 3.158 7.796 5.101 17.277 7.184 27.444 6.043 29.457 13.318 64.91 55.798 77.978l-.006.012c7.542 1.837 14.702 2.822 20.623 2.84 4.615.018 8.362-.553 10.779-1.751 1.719-.852 2.606-2.08 2.357-3.71-.565-3.648-4.956-9.042-14.703-16.461-33.899-25.802-45.759-53.812-55.518-76.859-4.567-10.788-8.666-20.457-14.332-28.1-2.963-3.996-6.279-7.116-9.777-9.481-6.923-4.682-14.539-6.403-21.474-6.172-6.893.225-13.063 2.36-17.162 5.406-.789.59-1.5 1.21-2.113 1.854a44.276 44.276 0 0 1 3.947 5.71Zm63.644 112.907c-17.654-17.574-22.64-41.862-27.006-63.158-2.029-9.9-3.923-19.125-6.929-26.55l-.347-.845c-2.653-6.203-6.71-11.907-11.805-15.319-4.318-2.894-9.45-4.11-15.152-2.469 1.306 2.75 2.447 5.62 3.516 8.544 1.877.833 3.717 2.171 5.429 4.19 1.737 2.056 3.346 4.835 4.695 8.526v.012c1.955 5.357 3.315 11.341 4.779 17.799 4.33 19.125 9.626 42.477 34.67 63.408 2.484 2.073 5.229 4.032 8.15 5.862Zm-101.806-46.429c.031 3.667.073 10.666.006 13.196 1.318 2.189 5.46 5.759 8.636 3.46-.395 5.467-7.251 4.634-11.18 1.234-3.929 3.406-10.786 4.233-11.18-1.234 3.176 2.299 7.323-1.271 8.635-3.46-.067-2.53-.024-9.523.006-13.196-4.846-.876-11.222-4.026-5.277-9.566.012.013 4.409 4.744 7.804 4.744 3.388 0 7.791-4.731 7.803-4.744 5.946 5.534-.407 8.69-5.253 9.566Zm28.616-35.69c2.854 0 5.168 3.716 5.168 8.295s-2.314 8.294-5.168 8.294c-2.855 0-5.168-3.715-5.168-8.294 0-4.579 2.313-8.295 5.168-8.295Zm-62.32 0c2.854 0 5.168 3.716 5.168 8.295s-2.314 8.294-5.168 8.294c-2.855 0-5.168-3.715-5.168-8.294 0-4.579 2.313-8.295 5.168-8.295Zm-28.251 25.735c-4.537 17.258-12.207 36.566-33.529 54.395-11.55 9.651-28.172 16.76-43.42 20.561l-.237.073-.007-.013c-8.083 1.995-15.765 3.065-22.099 3.084-5.374.018-9.892-.718-13.02-2.269-3.826-1.897-5.763-4.871-5.125-9.018.753-4.865 5.744-11.402 16.657-19.709 32.818-24.981 44.393-52.309 53.915-74.797 4.695-11.092 8.909-21.04 14.927-29.153 3.334-4.5 7.069-8.008 11.005-10.666 7.876-5.327 16.554-7.285 24.461-7.024 7.949.262 15.158 2.792 20.016 6.404a22.72 22.72 0 0 1 2.581 2.231c6.99-6.433 17.193-10.58 33.292-10.58s26.301 4.14 33.291 10.58a22.733 22.733 0 0 1 2.575-2.231c4.858-3.612 12.067-6.136 20.01-6.404 7.907-.261 16.585 1.697 24.462 7.024 3.935 2.664 7.67 6.166 11.004 10.666 6.018 8.112 10.233 18.061 14.927 29.153 9.522 22.488 21.097 49.816 53.915 74.797 10.913 8.307 15.911 14.844 16.658 19.709.637 4.147-1.3 7.121-5.126 9.018-3.121 1.551-7.639 2.281-13.014 2.269-6.334-.025-14.022-1.089-22.099-3.084l-.006.013-.237-.073c-15.255-3.801-31.876-10.91-43.421-20.561-21.328-17.829-28.992-37.137-33.534-54.395.121 1.192.212 2.366.267 3.521.48 9.997-1.488 18.699-6.103 25.906a37.19 37.19 0 0 1-6.322 7.461c12.394 9.487 25.816 28.32 33.17 49.701 4.998 14.546 7.22 30.308 4.482 45.206 3.352-2.292 7.238-3.557 11.283-3.928 4.148-.377 8.453.195 12.504 1.581 4.057 1.387 7.876 3.582 11.059 6.446 6.613 5.953 10.506 14.753 8.107 25.158-2.709 11.76-9.049 24.816-16.245 34.51-7.075 9.523-15.182 15.944-21.966 15.239a20.404 20.404 0 0 1-1.53-.219c-15.121-.316-44.49-8.477-49.342-9.851-5.933 1.958-12.103 2.754-17.854 2.456-1.184-.06-2.35-.17-3.498-.322 2.702 8.568 2.368 16.972-2.715 23.698a14.991 14.991 0 0 1-1.974 2.141c-6.419 5.77-18.139 6.67-30.589 4.268-12.085-2.335-25.014-7.783-34.317-14.831-2.563-1.94-4.859-4.008-6.802-6.173-3.462-3.855-5.745-8.841-6.808-14.199-.698-3.509-.874-7.194-.528-10.843-2.138-3.131-3.559-7.668-4.543-12.618-8.21 2.414-14.362 1.095-18.698-2.207-2.593-1.977-4.488-4.646-5.757-7.656-1.227-2.913-1.858-6.136-1.962-9.323-.242-7.613 2.612-15.196 7.689-18.121 3.279-1.891 6.631-2.469 9.801-2.268 2.545.164 4.956.833 7.112 1.727l.054-.432c.82-6.379 2.15-13.567 3.753-20.694-1.433-12.6-.394-25.79 2.903-38.122 3.863-14.431 10.828-27.742 20.575-37.654.194-.201.395-.396.595-.59-3.583-2.773-6.504-5.96-8.787-9.529-4.616-7.206-6.589-15.902-6.103-25.906.054-1.167.145-2.341.267-3.533Zm-44.94 56.384c2.922-1.824 5.666-3.782 8.162-5.868 25.045-20.931 30.334-44.289 34.67-63.408 1.464-6.452 2.818-12.442 4.78-17.799v-.012c1.348-3.691 2.951-6.47 4.694-8.526 1.707-2.019 3.547-3.357 5.429-4.19 1.069-2.925 2.211-5.795 3.516-8.544-5.702-1.642-10.834-.425-15.151 2.47-5.095 3.41-9.152 9.121-11.806 15.318l-.352.845c-3.006 7.425-4.901 16.65-6.929 26.55-4.373 21.302-9.359 45.59-27.013 63.164Zm67.585-118.605a16.709 16.709 0 0 0-2.113-1.855c-4.099-3.047-10.275-5.181-17.162-5.406-6.935-.231-14.55 1.49-21.474 6.172-3.491 2.366-6.813 5.48-9.777 9.48-5.672 7.644-9.765 17.319-14.332 28.101-9.759 23.047-21.619 51.057-55.518 76.859-9.74 7.413-14.138 12.813-14.703 16.461-.248 1.624.638 2.852 2.35 3.71 2.418 1.198 6.17 1.763 10.78 1.751 5.921-.018 13.081-1.003 20.624-2.84l-.007-.012c42.48-13.074 49.756-48.521 55.798-77.978 2.083-10.167 4.032-19.647 7.184-27.443l.389-.937c3.012-7.017 7.688-13.536 13.646-17.532 5.781-3.873 12.686-5.4 20.368-2.827a44.751 44.751 0 0 1 3.947-5.704Zm52.057 259.571a36.53 36.53 0 0 0 5.891.778c8.15.426 17.235-1.612 24.947-6.318 7.64-4.665 13.919-11.962 16.543-22.099.309-1.204.571-2.451.777-3.74-3.71 1.533-7.549 1.855-11.21 1.253-3.262-.541-6.365-1.825-9.092-3.667a25.082 25.082 0 0 1-6.886-6.975c-4.403-6.726-5.514-15.61-.377-23.972 5.867-9.547 10.446-21.052 12.674-32.375.589-3.004 1.106-5.996 1.476-8.927-3.182-6.27-5.897-15.288-8.532-24.027-2.66-8.817-5.229-17.337-7.901-21.886a48.38 48.38 0 0 1-1.822.736c-8.49 3.29-19.008 5.309-31.664 5.917h-.237c-9.139-.444-17.162-1.617-24.109-3.472l-.146.304h-.012a27.988 27.988 0 0 1-1.263 2.305 65.967 65.967 0 0 0-2.624 4.749c-6.485 13.068-7.348 26.635-3.37 38.876 3.99 12.296 12.862 23.309 25.816 31.215a76.355 76.355 0 0 0 5.654 3.125c7.068 3.515 10.469 10.356 10.767 17.763.158 3.837-.535 7.832-1.986 11.566-1.451 3.746-3.674 7.243-6.577 10.089a25.134 25.134 0 0 1-5.769 4.25c7.913 6.805 14.945 15.611 19.032 24.532Z" fill="#1A1A1A"/>
    <path d="M262.318 83.45a16.779 16.779 0 0 1 2.113-1.854c2.836-2.11 6.668-3.782 11.041-4.682 1.384 2.14 3.856 4.202 7.992 5.892 16.415 6.695 28.876 19.478 33.741 52.054 4.864 32.57 30.607 80.818 80.21 79.377-.17 1.155-1.008 2.067-2.362 2.736-2.417 1.198-6.17 1.764-10.78 1.751-5.921-.018-13.081-.997-20.623-2.839l.006-.013c-42.48-13.074-49.755-48.521-55.798-77.983-2.089-10.168-4.032-19.648-7.184-27.444l-.389-.937c-3.012-7.017-7.688-13.536-13.645-17.532-5.782-3.873-12.687-5.4-20.369-2.827-1.184-2.007-2.483-3.91-3.953-5.698Z" fill="#666"/>
    <path fill-rule="evenodd" clip-rule="evenodd" d="M192.935 122.972c.778 0 1.409 1.173 1.409 2.627 0 1.453-.631 2.627-1.409 2.627-.777 0-1.409-1.174-1.409-2.627 0-1.454.632-2.627 1.409-2.627ZM258.176 122.972c.777 0 1.409 1.173 1.409 2.627 0 1.453-.632 2.627-1.409 2.627s-1.409-1.174-1.409-2.627c0-1.454.632-2.627 1.409-2.627Z" fill="#fff"/>
  </g>
  <defs>
    <linearGradient id="b" x1=".141" y1="225.004" x2="450" y2="225.004" gradientUnits="userSpaceOnUse">
      <stop stop-color="#FF15E5"/>
      <stop offset=".502" stop-color="#8289F3"/>
      <stop offset=".844" stop-color="#34D2FC"/>
      <stop offset="1" stop-color="#15EEFF"/>
    </linearGradient>
    <clipPath id="a">
      <path fill="#fff" d="M0 0h450v450H0z"/>
    </clipPath>
  </defs>
</svg>
