<svg width="1504" height="420" fill="none" xmlns="http://www.w3.org/2000/svg"><g filter="url(#b)" clip-path="url(#a)"><path d="M0 55.8998v4.9l6.8.6c3.7.4 12.8 1.6 20.2 2.7 78.2 11.3 144.4 36.2002 200.2 75.2002 27.3 19.1 42.2 32.2 86.3 75.7 37.8 37.3 50.2 48.8 65 60.3 39.8 30.9 80.8 45 131 45 26.3.1 49.5-3.7 74.9-12 50.9-16.6 91.2-41.8 174.1-108.9 55.9-45.2 77.4-61.1 104.4-77.3 44.1-26.4002 85.2-37.9002 125.4-35.1002 23.6 1.7 43.3 7.1 62.7 17.1002 23.5 12.1 41.5 28.6 76.7 70.4 22.8 27 41.6 46.1 55.8 56.7 33.5 24.9 73.8 37.7 119.2 37.8 42.1 0 79.2-10.7 129.8-37.8 15.9-8.4 24.2-13.2 55-31.3l16-9.5.3-5.7c.2-3.1 0-5.7-.3-5.7s-13.5 7.6-29.3 16.9c-34.4 20.2-49.1 28.3-65.4 36.1-25.7 12.2-50.1 20.5-72.8 24.7-13.8 2.6-52.5 2.5-66.5-.1-32.2-5.9-57.1-16.5-81.3-34.6-12.6-9.3-34.2-31.5-54.2-55.5-29.8-35.8-45.2-50.9-65.1-63.8-35-22.7002-78.9-31.2002-123.4-23.7002-49.5 8.4-97 34.5002-170.5 93.9002-65.7 53.1-81.1 64.9-106.5 81.8-49 32.6-90.5 49.3-135.4 54.4-15.3 1.7-46.6.7-61.1-2-34.3-6.4-60.9-19-91-43-13.2-10.6-19.1-16.1-56.5-53.1-34.4-34-45.9-44.7-63.5-59.1-52.1-42.5-108.3-70.2002-176.5-87.2002-23.9-6-69.6-13.7-81.1-13.7H0v4.9Z" fill="url(#c)"/></g><defs><linearGradient id="c" x1="11.5" y1="61.5" x2="1525.5" y2="186" gradientUnits="userSpaceOnUse"><stop stop-color="#29298A"/><stop offset=".628125" stop-color="#7330BB"/></linearGradient><clipPath id="a"><path fill="#fff" d="M0 0h1504v420H0z"/></clipPath><filter id="b" x="-60" y="11" width="1623.88" height="389.302" filterUnits="userSpaceOnUse" color-interpolation-filters="sRGB"><feFlood flood-opacity="0" result="BackgroundImageFix"/><feColorMatrix in="SourceAlpha" values="0 0 0 0 0 0 0 0 0 0 0 0 0 0 0 0 0 0 127 0" result="hardAlpha"/><feOffset dy="20"/><feGaussianBlur stdDeviation="30"/><feComposite in2="hardAlpha" operator="out"/><feColorMatrix values="0 0 0 0 0 0 0 0 0 0 0 0 0 0 0 0 0 0 0.6 0"/><feBlend in2="BackgroundImageFix" result="effect1_dropShadow_57_2323"/><feBlend in="SourceGraphic" in2="effect1_dropShadow_57_2323" result="shape"/></filter></defs></svg>