<svg width="518" height="472" viewBox="0 0 518 472" fill="none" xmlns="http://www.w3.org/2000/svg">
<path fill-rule="evenodd" clip-rule="evenodd" d="M106.164 346.26C107.669 344.605 109.503 343.282 111.548 342.376C113.594 341.47 115.806 341.001 118.044 341L484.604 341.3C486.165 341.303 487.691 341.76 488.998 342.614C490.304 343.468 491.335 344.683 491.964 346.112C492.593 347.541 492.794 349.121 492.541 350.662C492.289 352.202 491.595 353.636 490.544 354.79L412.484 440.74C410.978 442.397 409.142 443.72 407.094 444.626C405.047 445.532 402.833 446 400.594 446L34.0436 445.7C32.4826 445.697 30.9561 445.24 29.6495 444.386C28.3429 443.532 27.3125 442.317 26.6835 440.888C26.0544 439.459 25.8537 437.879 26.1058 436.338C26.3579 434.798 27.052 433.364 28.1036 432.21L106.164 346.26ZM490.544 274.71C491.595 275.864 492.289 277.298 492.541 278.838C492.794 280.379 492.593 281.959 491.964 283.388C491.335 284.817 490.304 286.032 488.998 286.886C487.691 287.74 486.165 288.197 484.604 288.2L118.054 288.5C115.815 288.5 113.6 288.032 111.553 287.126C109.505 286.22 107.67 284.897 106.164 283.24L28.1036 197.24C27.052 196.086 26.3579 194.652 26.1058 193.112C25.8537 191.571 26.0544 189.991 26.6835 188.562C27.3125 187.133 28.3429 185.918 29.6495 185.064C30.9561 184.21 32.4826 183.753 34.0436 183.75L400.604 183.45C402.841 183.451 405.053 183.92 407.099 184.826C409.145 185.732 410.979 187.055 412.484 188.71L490.544 274.71ZM106.164 31.26C107.669 29.6046 109.503 28.2816 111.548 27.3759C113.594 26.4701 115.806 26.0015 118.044 26L484.604 26.3C486.165 26.3032 487.691 26.7596 488.998 27.6138C490.304 28.468 491.335 29.6832 491.964 31.1119C492.593 32.5406 492.794 34.1211 492.541 35.6617C492.289 37.2022 491.595 38.6364 490.544 39.79L412.484 125.74C410.978 127.397 409.142 128.72 407.094 129.626C405.047 130.532 402.833 131 400.594 131L34.0436 130.7C32.4826 130.697 30.9561 130.24 29.6495 129.386C28.3429 128.532 27.3125 127.317 26.6835 125.888C26.0544 124.459 25.8537 122.879 26.1058 121.338C26.3579 119.798 27.052 118.364 28.1036 117.21L106.164 31.26Z" fill="url(#paint0_linear_37_6)"/>
<defs>
<linearGradient id="paint0_linear_37_6" x1="40.1636" y1="455.16" x2="478.484" y2="16.84" gradientUnits="userSpaceOnUse">
<stop stop-color="#9945FF"/>
<stop offset="0.2" stop-color="#7962E7"/>
<stop offset="1" stop-color="#00D18C"/>
</linearGradient>
</defs>
</svg>
