<svg width="32" height="32" viewBox="0 0 32 32" fill="none" xmlns="http://www.w3.org/2000/svg">
<path d="M16 0C7.16338 0 0 7.16338 0 16C0 24.8366 7.16338 32 16 32C24.8366 32 32 24.8366 32 16C32 7.16338 24.8366 0 16 0ZM24.8889 9.24196L23.4695 10.6027C23.3472 10.6958 23.2864 10.8491 23.3117 11.0009V20.9991C23.2864 21.1509 23.3469 21.3041 23.4695 21.3973L24.8555 22.7581V23.0567H17.884V22.7581L19.3198 21.3643C19.461 21.2231 19.461 21.1819 19.461 20.9661V12.8843L15.4689 23.0236H14.9295L10.2816 12.8843V19.68C10.2428 19.9659 10.3378 20.2531 10.539 20.4601L12.4064 22.7253V23.024H7.11111V22.7253L8.97849 20.4601C9.17832 20.2531 9.26756 19.9637 9.2192 19.68V11.8222C9.24125 11.6039 9.15805 11.3884 8.9952 11.2416L7.33511 9.24196V8.94329H12.4893L16.4729 17.6804L19.9755 8.94329H24.8889V9.24196Z" fill="black"/>
</svg>
