<svg width="195" height="175" viewBox="0 0 195 175" fill="none" xmlns="http://www.w3.org/2000/svg">
<path d="M155.155 86.3758C155.244 87.656 155.244 88.9362 155.244 90.2283C155.244 129.596 125.319 175 70.6 175V174.976C54.4359 175 38.6076 170.363 25 161.62C27.3504 161.903 29.7126 162.044 32.0806 162.05C45.4761 162.062 58.4887 157.561 69.0272 149.272C56.2974 149.03 45.1345 140.717 41.2348 128.582C45.6941 129.443 50.2888 129.266 54.6657 128.068C40.7871 125.26 30.8024 113.048 30.8024 98.8653C30.8024 98.7355 30.8024 98.6116 30.8024 98.4877C34.9376 100.794 39.5677 102.075 44.3039 102.216C31.2324 93.4671 27.2031 76.0514 35.0967 62.4351C50.2005 81.0484 72.4851 92.3639 96.4073 93.5615C94.0097 83.2136 97.285 72.3701 105.014 65.0958C116.995 53.8157 135.84 54.3939 147.103 66.3879C153.765 65.0722 160.151 62.6239 165.994 59.1549C163.774 66.0516 159.126 71.9099 152.917 75.6326C158.814 74.9364 164.575 73.3553 170 70.9424C166.006 76.9364 160.975 82.1576 155.155 86.3758Z" fill="#1D9BF0"/>
</svg>
